Geologica-BlackSharpItalic.ufo
<glyph name="plus" format="2">
  <advance width="1296"/>
  <unicode hex="002B"/>
  <outline>
    <contour>
      <point x="420" y="110" type="line"/>
      <point x="700" y="110" type="line"/>
      <point x="792" y="536" type="line"/>
      <point x="1232" y="536" type="line"/>
      <point x="1288" y="804" type="line"/>
      <point x="848" y="804" type="line"/>
      <point x="940" y="1230" type="line"/>
      <point x="660" y="1230" type="line"/>
      <point x="568" y="804" type="line"/>
      <point x="128" y="804" type="line"/>
      <point x="72" y="536" type="line"/>
      <point x="512" y="536" type="line"/>
    </contour>
  </outline>
</glyph>
<glyph name="one" format="2">
  <advance width="971"/>
  <unicode hex="0031"/>
  <guideline x="87" y="429" angle="106.9719"/>
  <guideline x="87" y="429" angle="77.9052"/>
  <outline>
    <contour>
      <point x="298" y="0" type="line"/>
      <point x="666" y="0" type="line"/>
      <point x="970" y="1430" type="line"/>
      <point x="942" y="1430" type="line"/>
      <point x="272" y="1220" type="line"/>
      <point x="194" y="858" type="line"/>
      <point x="502" y="952" type="line"/>
    </contour>
  </outline>
</glyph>
<glyph name="five" format="2">
  <advance width="1188"/>
  <unicode hex="0035"/>
  <outline>
    <contour>
      <point x="484" y="-30" type="curve" smooth="yes"/>
      <point x="818" y="-30"/>
      <point x="1068" y="180"/>
      <point x="1068" y="496" type="curve" smooth="yes"/>
      <point x="1068" y="746"/>
      <point x="886" y="898"/>
      <point x="606" y="898" type="curve" smooth="yes"/>
      <point x="584" y="898"/>
      <point x="564" y="896"/>
      <point x="546" y="894" type="curve"/>
      <point x="602" y="1054" type="line"/>
      <point x="1158" y="1054" type="line"/>
      <point x="1232" y="1396" type="line"/>
      <point x="402" y="1400" type="line"/>
      <point x="188" y="738" type="line"/>
      <point x="304" y="564" type="line"/>
      <point x="370" y="588"/>
      <point x="434" y="598"/>
      <point x="490" y="598" type="curve" smooth="yes"/>
      <point x="622" y="598"/>
      <point x="694" y="546"/>
      <point x="694" y="468" type="curve" smooth="yes"/>
      <point x="694" y="364"/>
      <point x="614" y="304"/>
      <point x="488" y="304" type="curve" smooth="yes"/>
      <point x="334" y="304"/>
      <point x="192" y="344"/>
      <point x="108" y="444" type="curve"/>
      <point x="36" y="103" type="line"/>
      <point x="145" y="20"/>
      <point x="307" y="-30"/>
    </contour>
  </outline>
</glyph>
<glyph name="eight" format="2">
  <advance width="1247"/>
  <unicode hex="0038"/>
  <outline>
    <contour>
      <point x="545" y="-30" type="curve" smooth="yes"/>
      <point x="883" y="-30"/>
      <point x="1149" y="160"/>
      <point x="1149" y="428" type="curve" smooth="yes"/>
      <point x="1148" y="548"/>
      <point x="1083" y="652"/>
      <point x="971" y="716" type="curve"/>
      <point x="1127" y="772"/>
      <point x="1239" y="908"/>
      <point x="1239" y="1066" type="curve" smooth="yes"/>
      <point x="1240" y="1280"/>
      <point x="1044" y="1430"/>
      <point x="770" y="1430" type="curve" smooth="yes"/>
      <point x="454" y="1430"/>
      <point x="238" y="1250"/>
      <point x="237" y="1010" type="curve" smooth="yes"/>
      <point x="237" y="910"/>
      <point x="296" y="811"/>
      <point x="375" y="762" type="curve"/>
      <point x="187" y="707"/>
      <point x="42" y="545"/>
      <point x="43" y="354" type="curve" smooth="yes"/>
      <point x="43" y="122"/>
      <point x="237" y="-30"/>
    </contour>
    <contour>
      <point x="587" y="276" type="curve" smooth="yes"/>
      <point x="491" y="276"/>
      <point x="420" y="336"/>
      <point x="421" y="420" type="curve" smooth="yes"/>
      <point x="422" y="520"/>
      <point x="505" y="598"/>
      <point x="615" y="598" type="curve" smooth="yes"/>
      <point x="719" y="598"/>
      <point x="784" y="544"/>
      <point x="784" y="458" type="curve" smooth="yes"/>
      <point x="784" y="354"/>
      <point x="701" y="276"/>
    </contour>
    <contour>
      <point x="728" y="905" type="curve" smooth="yes"/>
      <point x="642" y="905"/>
      <point x="584" y="954"/>
      <point x="584" y="1023" type="curve" smooth="yes"/>
      <point x="584" y="1105"/>
      <point x="655" y="1168"/>
      <point x="748" y="1168" type="curve" smooth="yes"/>
      <point x="828" y="1168"/>
      <point x="886" y="1119"/>
      <point x="886" y="1052" type="curve" smooth="yes"/>
      <point x="886" y="968"/>
      <point x="817" y="905"/>
    </contour>
  </outline>
</glyph>
<glyph name="nine" format="2">
  <advance width="1282"/>
  <unicode hex="0039"/>
  <guideline x="97" y="-15" angle="78.0016"/>
  <outline>
    <contour>
      <point x="101" y="-18" type="line"/>
      <point x="732" y="-105"/>
      <point x="1273" y="300"/>
      <point x="1273" y="917" type="curve" smooth="yes"/>
      <point x="1273" y="1238"/>
      <point x="1063" y="1430"/>
      <point x="738" y="1430" type="curve" smooth="yes"/>
      <point x="417" y="1430"/>
      <point x="174" y="1215"/>
      <point x="174" y="904" type="curve" smooth="yes"/>
      <point x="174" y="651"/>
      <point x="346" y="500"/>
      <point x="596" y="500" type="curve" smooth="yes"/>
      <point x="686" y="500"/>
      <point x="762" y="529"/>
      <point x="827" y="577" type="curve"/>
      <point x="735" y="353"/>
      <point x="445" y="287"/>
      <point x="169" y="308" type="curve"/>
    </contour>
    <contour>
      <point x="714" y="806" type="curve" smooth="yes"/>
      <point x="617" y="806"/>
      <point x="552" y="866"/>
      <point x="552" y="944" type="curve" smooth="yes"/>
      <point x="552" y="1045"/>
      <point x="637" y="1114"/>
      <point x="740" y="1114" type="curve" smooth="yes"/>
      <point x="837" y="1114"/>
      <point x="904" y="1053"/>
      <point x="904" y="974" type="curve" smooth="yes"/>
      <point x="904" y="875"/>
      <point x="818" y="806"/>
    </contour>
  </outline>
</glyph>
<glyph name="less" format="2">
  <advance width="1296"/>
  <unicode hex="003C"/>
  <outline>
    <contour>
      <point x="1127" y="44" type="line"/>
      <point x="1185" y="317" type="line"/>
      <point x="508" y="612" type="line"/>
      <point x="1311" y="915" type="line"/>
      <point x="1376" y="1227" type="line"/>
      <point x="120" y="764" type="line"/>
      <point x="64" y="494" type="line"/>
    </contour>
  </outline>
</glyph>
<glyph name="greater" format="2">
  <advance width="1296"/>
  <unicode hex="003E"/>
  <outline>
    <contour>
      <point x="-33" y="31" type="line"/>
      <point x="1223" y="494" type="line"/>
      <point x="1279" y="764" type="line"/>
      <point x="216" y="1214" type="line"/>
      <point x="158" y="941" type="line"/>
      <point x="835" y="646" type="line"/>
      <point x="32" y="343" type="line"/>
    </contour>
  </outline>
</glyph>
<glyph name="question" format="2">
  <advance width="1066"/>
  <unicode hex="003F"/>
  <outline>
    <contour>
      <point x="306" y="524" type="curve"/>
      <point x="662" y="524" type="line"/>
      <point x="684" y="648"/>
      <point x="726" y="698"/>
      <point x="826" y="752" type="curve" smooth="yes"/>
      <point x="1000" y="846"/>
      <point x="1106" y="922"/>
      <point x="1106" y="1088" type="curve" smooth="yes"/>
      <point x="1106" y="1282"/>
      <point x="902" y="1430"/>
      <point x="626" y="1430" type="curve" smooth="yes"/>
      <point x="490" y="1430"/>
      <point x="366" y="1398"/>
      <point x="274" y="1360" type="curve"/>
      <point x="200" y="1010" type="line"/>
      <point x="304" y="1052"/>
      <point x="390" y="1064"/>
      <point x="484" y="1064" type="curve" smooth="yes"/>
      <point x="580" y="1064"/>
      <point x="624" y="1030"/>
      <point x="624" y="982" type="curve" smooth="yes"/>
      <point x="624" y="938"/>
      <point x="590" y="914"/>
      <point x="476" y="842" type="curve" smooth="yes"/>
      <point x="388" y="786"/>
      <point x="308" y="734"/>
    </contour>
    <contour>
      <point x="414" y="-30" type="curve" smooth="yes"/>
      <point x="554" y="-30"/>
      <point x="672" y="76"/>
      <point x="672" y="214" type="curve" smooth="yes"/>
      <point x="672" y="340"/>
      <point x="588" y="416"/>
      <point x="458" y="416" type="curve" smooth="yes"/>
      <point x="318" y="416"/>
      <point x="200" y="310"/>
      <point x="200" y="170" type="curve" smooth="yes"/>
      <point x="200" y="44"/>
      <point x="286" y="-30"/>
    </contour>
  </outline>
</glyph>
<glyph name="at" format="2">
  <advance width="1692"/>
  <unicode hex="0040"/>
  <guideline x="496" y="264" angle="86.6499"/>
  <outline>
    <contour>
      <point x="864" y="-234" type="curve" smooth="yes"/>
      <point x="1031" y="-234"/>
      <point x="1195" y="-193"/>
      <point x="1336" y="-118" type="curve"/>
      <point x="1386" y="116" type="line"/>
      <point x="1237" y="14"/>
      <point x="1055" y="-40"/>
      <point x="860" y="-40" type="curve" smooth="yes"/>
      <point x="518" y="-40"/>
      <point x="286" y="170"/>
      <point x="286" y="480" type="curve" smooth="yes"/>
      <point x="286" y="810"/>
      <point x="538" y="1054"/>
      <point x="876" y="1054" type="curve" smooth="yes"/>
      <point x="1198" y="1054"/>
      <point x="1418" y="860"/>
      <point x="1418" y="576" type="curve" smooth="yes"/>
      <point x="1418" y="428"/>
      <point x="1366" y="346"/>
      <point x="1272" y="346" type="curve" smooth="yes"/>
      <point x="1212" y="346"/>
      <point x="1182" y="382"/>
      <point x="1186" y="450" type="curve" smooth="yes"/>
      <point x="1208" y="840" type="line"/>
      <point x="1022" y="840" type="line"/>
      <point x="1020" y="788" type="line"/>
      <point x="954" y="842"/>
      <point x="888" y="866"/>
      <point x="810" y="866" type="curve" smooth="yes"/>
      <point x="600" y="866"/>
      <point x="448" y="708"/>
      <point x="448" y="492" type="curve" smooth="yes"/>
      <point x="448" y="292"/>
      <point x="584" y="154"/>
      <point x="782" y="154" type="curve" smooth="yes"/>
      <point x="880" y="154"/>
      <point x="952" y="186"/>
      <point x="1026" y="262" type="curve"/>
      <point x="1070" y="192"/>
      <point x="1148" y="154"/>
      <point x="1252" y="154" type="curve" smooth="yes"/>
      <point x="1458" y="154"/>
      <point x="1626" y="344"/>
      <point x="1626" y="576" type="curve" smooth="yes"/>
      <point x="1626" y="970"/>
      <point x="1322" y="1242"/>
      <point x="882" y="1242" type="curve" smooth="yes"/>
      <point x="420" y="1242"/>
      <point x="78" y="920"/>
      <point x="78" y="486" type="curve" smooth="yes"/>
      <point x="78" y="60"/>
      <point x="400" y="-234"/>
    </contour>
    <contour>
      <point x="808" y="366" type="curve" smooth="yes"/>
      <point x="738" y="366"/>
      <point x="696" y="412"/>
      <point x="696" y="490" type="curve" smooth="yes"/>
      <point x="696" y="588"/>
      <point x="752" y="652"/>
      <point x="836" y="652" type="curve" smooth="yes"/>
      <point x="908" y="652"/>
      <point x="950" y="606"/>
      <point x="950" y="528" type="curve" smooth="yes"/>
      <point x="950" y="428"/>
      <point x="894" y="366"/>
    </contour>
  </outline>
</glyph>
<glyph name="A" format="2">
  <advance width="1502"/>
  <unicode hex="0041"/>
  <anchor x="648" y="0" name="bottom"/>
  <anchor x="1346" y="0" name="ogonek"/>
  <anchor x="944" y="1400" name="top"/>
  <anchor x="456" y="1400" name="topleft"/>
  <outline>
    <contour>
      <point x="-110" y="0" type="line"/>
      <point x="354" y="0" type="line"/>
      <point x="486" y="250" type="line"/>
      <point x="918" y="250" type="line"/>
      <point x="944" y="0" type="line"/>
      <point x="1390" y="0" type="line"/>
      <point x="1184" y="1400" type="line"/>
      <point x="706" y="1400" type="line"/>
    </contour>
    <contour>
      <point x="642" y="584" type="line"/>
      <point x="858" y="974" type="line"/>
      <point x="904" y="584" type="line"/>
    </contour>
  </outline>
</glyph>
<glyph name="B" format="2">
  <advance width="1356"/>
  <unicode hex="0042"/>
  <outline>
    <contour>
      <point x="45" y="0" type="line"/>
      <point x="697" y="0" type="line" smooth="yes"/>
      <point x="1009" y="0"/>
      <point x="1265" y="168"/>
      <point x="1265" y="452" type="curve" smooth="yes"/>
      <point x="1265" y="586"/>
      <point x="1201" y="696"/>
      <point x="1087" y="756" type="curve"/>
      <point x="1237" y="814"/>
      <point x="1343" y="920"/>
      <point x="1343" y="1074" type="curve" smooth="yes"/>
      <point x="1343" y="1282"/>
      <point x="1169" y="1400"/>
      <point x="871" y="1400" type="curve" smooth="yes"/>
      <point x="341" y="1400" type="line"/>
    </contour>
    <contour>
      <point x="509" y="290" type="line"/>
      <point x="571" y="574" type="line"/>
      <point x="685" y="574" type="line" smooth="yes"/>
      <point x="789" y="574"/>
      <point x="841" y="532"/>
      <point x="841" y="450" type="curve" smooth="yes"/>
      <point x="841" y="356"/>
      <point x="777" y="290"/>
      <point x="673" y="290" type="curve" smooth="yes"/>
    </contour>
    <contour>
      <point x="627" y="842" type="line"/>
      <point x="685" y="1110" type="line"/>
      <point x="781" y="1110" type="line" smooth="yes"/>
      <point x="887" y="1110"/>
      <point x="939" y="1072"/>
      <point x="939" y="994" type="curve" smooth="yes"/>
      <point x="939" y="916"/>
      <point x="885" y="842"/>
      <point x="799" y="842" type="curve" smooth="yes"/>
    </contour>
  </outline>
</glyph>
<glyph name="C" format="2">
  <advance width="1304"/>
  <unicode hex="0043"/>
  <guideline x="603" y="451" angle="78.0016"/>
  <guideline x="41" y="224" angle="78.0016"/>
  <guideline x="41" y="224" angle="78.0016"/>
  <anchor x="690" y="0" name="bottom"/>
  <anchor x="916" y="1400" name="top"/>
  <outline>
    <contour>
      <point x="792" y="-30" type="curve" smooth="yes"/>
      <point x="916" y="-30"/>
      <point x="1028" y="-10"/>
      <point x="1122" y="24" type="curve"/>
      <point x="1216" y="454" type="line"/>
      <point x="1096" y="390"/>
      <point x="966" y="364"/>
      <point x="852" y="364" type="curve" smooth="yes"/>
      <point x="646" y="364"/>
      <point x="532" y="470"/>
      <point x="532" y="642" type="curve" smooth="yes"/>
      <point x="532" y="868"/>
      <point x="670" y="1036"/>
      <point x="898" y="1036" type="curve" smooth="yes"/>
      <point x="1052" y="1036"/>
      <point x="1174" y="990"/>
      <point x="1244" y="902" type="curve"/>
      <point x="1336" y="1320" type="line"/>
      <point x="1220" y="1398"/>
      <point x="1090" y="1430"/>
      <point x="916" y="1430" type="curve" smooth="yes"/>
      <point x="456" y="1430"/>
      <point x="102" y="1062"/>
      <point x="102" y="586" type="curve" smooth="yes"/>
      <point x="102" y="194"/>
      <point x="398" y="-30"/>
    </contour>
  </outline>
</glyph>
<glyph name="D" format="2">
  <advance width="1485"/>
  <unicode hex="0044"/>
  <anchor x="479" y="712" name="bar"/>
  <anchor x="909" y="1400" name="top"/>
  <outline>
    <contour>
      <point x="45" y="0" type="line"/>
      <point x="647" y="0" type="line" smooth="yes"/>
      <point x="1119" y="0"/>
      <point x="1455" y="336"/>
      <point x="1455" y="788" type="curve" smooth="yes"/>
      <point x="1455" y="1182"/>
      <point x="1155" y="1400"/>
      <point x="735" y="1400" type="curve" smooth="yes"/>
      <point x="341" y="1400" type="line"/>
    </contour>
    <contour>
      <point x="529" y="376" type="line"/>
      <point x="665" y="1024" type="line"/>
      <point x="715" y="1024" type="line" smooth="yes"/>
      <point x="903" y="1024"/>
      <point x="1029" y="936"/>
      <point x="1029" y="754" type="curve" smooth="yes"/>
      <point x="1029" y="532"/>
      <point x="895" y="376"/>
      <point x="669" y="376" type="curve" smooth="yes"/>
    </contour>
  </outline>
</glyph>
<glyph name="E" format="2">
  <advance width="1302"/>
  <unicode hex="0045"/>
  <anchor x="559" y="0" name="bottom"/>
  <anchor x="1051" y="0" name="ogonek"/>
  <anchor x="855" y="1400" name="top"/>
  <anchor x="225" y="1400" name="topleft"/>
  <outline>
    <contour>
      <point x="45" y="0" type="line"/>
      <point x="1051" y="0" type="line"/>
      <point x="1205" y="352" type="line"/>
      <point x="523" y="352" type="line"/>
      <point x="565" y="552" type="line"/>
      <point x="1085" y="552" type="line"/>
      <point x="1153" y="870" type="line"/>
      <point x="633" y="870" type="line"/>
      <point x="671" y="1052" type="line"/>
      <point x="1305" y="1052" type="line"/>
      <point x="1379" y="1400" type="line"/>
      <point x="341" y="1400" type="line"/>
    </contour>
  </outline>
</glyph>
<glyph name="F" format="2">
  <advance width="1212"/>
  <unicode hex="0046"/>
  <outline>
    <contour>
      <point x="45" y="0" type="line"/>
      <point x="449" y="0" type="line"/>
      <point x="547" y="466" type="line"/>
      <point x="1041" y="466" type="line"/>
      <point x="1117" y="818" type="line"/>
      <point x="623" y="818" type="line"/>
      <point x="667" y="1032" type="line"/>
      <point x="1223" y="1032" type="line"/>
      <point x="1301" y="1400" type="line"/>
      <point x="341" y="1400" type="line"/>
    </contour>
  </outline>
</glyph>
<glyph name="G" format="2">
  <advance width="1523"/>
  <unicode hex="0047"/>
  <guideline x="638" y="481" angle="77.8319"/>
  <anchor x="786" y="0" name="bottom"/>
  <anchor x="950" y="1400" name="top"/>
  <outline>
    <contour>
      <point x="846" y="-30" type="curve" smooth="yes"/>
      <point x="984" y="-30"/>
      <point x="1156" y="-4"/>
      <point x="1284" y="44" type="curve"/>
      <point x="1454" y="838" type="line"/>
      <point x="878" y="838" type="line"/>
      <point x="730" y="522" type="line"/>
      <point x="1036" y="522" type="line"/>
      <point x="994" y="328" type="line"/>
      <point x="962" y="322"/>
      <point x="932" y="320"/>
      <point x="902" y="320" type="curve" smooth="yes"/>
      <point x="696" y="320"/>
      <point x="528" y="428"/>
      <point x="528" y="642" type="curve" smooth="yes"/>
      <point x="528" y="892"/>
      <point x="692" y="1068"/>
      <point x="956" y="1068" type="curve" smooth="yes"/>
      <point x="1108" y="1068"/>
      <point x="1226" y="1034"/>
      <point x="1326" y="962" type="curve"/>
      <point x="1404" y="1325" type="line"/>
      <point x="1248" y="1412"/>
      <point x="1089" y="1430"/>
      <point x="960" y="1430" type="curve" smooth="yes"/>
      <point x="484" y="1430"/>
      <point x="110" y="1084"/>
      <point x="110" y="618" type="curve" smooth="yes"/>
      <point x="110" y="216"/>
      <point x="436" y="-30"/>
    </contour>
  </outline>
</glyph>
<glyph name="I" format="2">
  <advance width="714"/>
  <unicode hex="0049"/>
  <anchor x="247" y="0" name="bottom"/>
  <anchor x="449" y="0" name="ogonek"/>
  <anchor x="543" y="1400" name="top"/>
  <anchor x="225" y="1400" name="topleft"/>
  <outline>
    <contour>
      <point x="45" y="0" type="line"/>
      <point x="449" y="0" type="line"/>
      <point x="745" y="1400" type="line"/>
      <point x="341" y="1400" type="line"/>
    </contour>
  </outline>
</glyph>
<glyph name="N" format="2">
  <advance width="1594"/>
  <unicode hex="004E"/>
  <anchor x="687" y="0" name="bottom"/>
  <anchor x="983" y="1400" name="top"/>
  <outline>
    <contour>
      <point x="45" y="0" type="line"/>
      <point x="435" y="0" type="line"/>
      <point x="601" y="778" type="line"/>
      <point x="933" y="0" type="line"/>
      <point x="1329" y="0" type="line"/>
      <point x="1625" y="1400" type="line"/>
      <point x="1235" y="1400" type="line"/>
      <point x="1071" y="634" type="line"/>
      <point x="739" y="1400" type="line"/>
      <point x="341" y="1400" type="line"/>
    </contour>
  </outline>
</glyph>
<glyph name="P" format="2">
  <advance width="1364"/>
  <unicode hex="0050"/>
  <outline>
    <contour>
      <point x="48" y="0" type="line"/>
      <point x="452" y="0" type="line"/>
      <point x="544" y="432" type="line"/>
      <point x="798" y="432" type="line" smooth="yes"/>
      <point x="1152" y="432"/>
      <point x="1406" y="638"/>
      <point x="1406" y="972" type="curve" smooth="yes"/>
      <point x="1406" y="1236"/>
      <point x="1198" y="1400"/>
      <point x="872" y="1400" type="curve" smooth="yes"/>
      <point x="344" y="1400" type="line"/>
    </contour>
    <contour>
      <point x="614" y="766" type="line"/>
      <point x="676" y="1056" type="line"/>
      <point x="810" y="1056" type="line" smooth="yes"/>
      <point x="922" y="1056"/>
      <point x="996" y="1032"/>
      <point x="996" y="930" type="curve" smooth="yes"/>
      <point x="996" y="830"/>
      <point x="932" y="766"/>
      <point x="818" y="766" type="curve" smooth="yes"/>
    </contour>
  </outline>
</glyph>
<glyph name="S" format="2">
  <advance width="1284"/>
  <unicode hex="0053"/>
  <guideline x="590" y="473" angle="78.0016"/>
  <guideline x="74" y="237" angle="78.0016"/>
  <anchor x="575" y="0" name="bottom"/>
  <anchor x="839" y="1400" name="top"/>
  <outline>
    <contour>
      <point x="605" y="-30" type="curve" smooth="yes"/>
      <point x="929" y="-30"/>
      <point x="1195" y="168"/>
      <point x="1195" y="474" type="curve" smooth="yes"/>
      <point x="1195" y="642"/>
      <point x="1087" y="762"/>
      <point x="863" y="848" type="curve" smooth="yes"/>
      <point x="763" y="886" type="line" smooth="yes"/>
      <point x="663" y="924"/>
      <point x="625" y="954"/>
      <point x="625" y="996" type="curve" smooth="yes"/>
      <point x="625" y="1054"/>
      <point x="695" y="1092"/>
      <point x="795" y="1092" type="curve" smooth="yes"/>
      <point x="961" y="1092"/>
      <point x="1133" y="1030"/>
      <point x="1209" y="946" type="curve"/>
      <point x="1289" y="1313" type="line"/>
      <point x="1162" y="1386"/>
      <point x="987" y="1430"/>
      <point x="795" y="1430" type="curve" smooth="yes"/>
      <point x="495" y="1430"/>
      <point x="229" y="1230"/>
      <point x="229" y="934" type="curve" smooth="yes"/>
      <point x="229" y="772"/>
      <point x="327" y="632"/>
      <point x="551" y="552" type="curve" smooth="yes"/>
      <point x="647" y="518" type="line" smooth="yes"/>
      <point x="749" y="482"/>
      <point x="789" y="442"/>
      <point x="789" y="394" type="curve" smooth="yes"/>
      <point x="789" y="336"/>
      <point x="719" y="306"/>
      <point x="619" y="306" type="curve" smooth="yes"/>
      <point x="449" y="306"/>
      <point x="231" y="376"/>
      <point x="137" y="474" type="curve"/>
      <point x="59" y="107" type="line"/>
      <point x="206" y="19"/>
      <point x="404" y="-30"/>
    </contour>
  </outline>
</glyph>
<glyph name="U" format="2">
  <advance width="1539"/>
  <unicode hex="0055"/>
  <anchor x="694" y="0" name="bottom"/>
  <anchor x="1578" y="1400" name="horn"/>
  <anchor x="1074" y="0" name="ogonek"/>
  <anchor x="956" y="1400" name="top"/>
  <outline>
    <contour>
      <point x="710" y="-30" type="curve" smooth="yes"/>
      <point x="1088" y="-30"/>
      <point x="1326" y="208"/>
      <point x="1408" y="596" type="curve" smooth="yes"/>
      <point x="1578" y="1400" type="line"/>
      <point x="1172" y="1400" type="line"/>
      <point x="996" y="574" type="line" smooth="yes"/>
      <point x="962" y="412"/>
      <point x="870" y="348"/>
      <point x="742" y="348" type="curve" smooth="yes"/>
      <point x="588" y="348"/>
      <point x="530" y="424"/>
      <point x="562" y="574" type="curve" smooth="yes"/>
      <point x="738" y="1400" type="line"/>
      <point x="334" y="1400" type="line"/>
      <point x="164" y="596" type="line" smooth="yes"/>
      <point x="80" y="202"/>
      <point x="306" y="-30"/>
    </contour>
  </outline>
</glyph>
<glyph name="V" format="2">
  <advance width="1440"/>
  <unicode hex="0056"/>
  <outline>
    <contour>
      <point x="369" y="0" type="line"/>
      <point x="837" y="0" type="line"/>
      <point x="1647" y="1400" type="line"/>
      <point x="1177" y="1400" type="line"/>
      <point x="707" y="518" type="line"/>
      <point x="615" y="1400" type="line"/>
      <point x="167" y="1400" type="line"/>
    </contour>
  </outline>
</glyph>
<glyph name="W" format="2">
  <advance width="2094"/>
  <unicode hex="0057"/>
  <anchor x="1233" y="1400" name="top"/>
  <outline>
    <contour>
      <point x="333" y="0" type="line"/>
      <point x="715" y="0" type="line"/>
      <point x="1109" y="796" type="line"/>
      <point x="1157" y="0" type="line"/>
      <point x="1543" y="0" type="line"/>
      <point x="2265" y="1400" type="line"/>
      <point x="1843" y="1400" type="line"/>
      <point x="1489" y="636" type="line"/>
      <point x="1437" y="1400" type="line"/>
      <point x="1039" y="1400" type="line"/>
      <point x="647" y="628" type="line"/>
      <point x="615" y="1400" type="line"/>
      <point x="205" y="1400" type="line"/>
    </contour>
  </outline>
</glyph>
<glyph name="backslash" format="2">
  <advance width="996"/>
  <unicode hex="005C"/>
  <guideline x="384" y="1306" angle="10.6398"/>
  <guideline x="371" y="385" angle="10.6398"/>
  <outline>
    <contour>
      <point x="528" y="-220" type="line"/>
      <point x="893" y="-220" type="line"/>
      <point x="544" y="1600" type="line"/>
      <point x="180" y="1600" type="line"/>
    </contour>
  </outline>
</glyph>
<glyph name="bracketright" format="2">
  <advance width="756"/>
  <unicode hex="005D"/>
  <outline>
    <contour>
      <point x="448" y="-220" type="line"/>
      <point x="834" y="1600" type="line"/>
      <point x="318" y="1600" type="line"/>
      <point x="262" y="1334" type="line"/>
      <point x="462" y="1334" type="line"/>
      <point x="186" y="46" type="line"/>
      <point x="-14" y="46" type="line"/>
      <point x="-68" y="-220" type="line"/>
    </contour>
  </outline>
</glyph>
<glyph name="asciicircum" format="2">
  <advance width="1296"/>
  <unicode hex="005E"/>
  <outline>
    <contour>
      <point x="186" y="782" type="line"/>
      <point x="538" y="782" type="line"/>
      <point x="796" y="1128" type="line"/>
      <point x="900" y="782" type="line"/>
      <point x="1222" y="782" type="line"/>
      <point x="1022" y="1400" type="line"/>
      <point x="660" y="1400" type="line"/>
    </contour>
  </outline>
</glyph>
<glyph name="b" format="2">
  <advance width="1374"/>
  <unicode hex="0062"/>
  <outline>
    <contour>
      <point x="746" y="-30" type="curve" smooth="yes"/>
      <point x="1082" y="-30"/>
      <point x="1324" y="252"/>
      <point x="1324" y="596" type="curve" smooth="yes"/>
      <point x="1324" y="870"/>
      <point x="1140" y="1070"/>
      <point x="852" y="1070" type="curve" smooth="yes"/>
      <point x="722" y="1070"/>
      <point x="622" y="1024"/>
      <point x="516" y="918" type="curve"/>
      <point x="590" y="808" type="line"/>
      <point x="732" y="1480" type="line"/>
      <point x="294" y="1294" type="line"/>
      <point x="10" y="-40" type="line"/>
      <point x="450" y="146" type="line"/>
      <point x="480" y="280" type="line"/>
      <point x="346" y="216" type="line"/>
      <point x="378" y="70"/>
      <point x="546" y="-30"/>
    </contour>
    <contour>
      <point x="708" y="310" type="curve" smooth="yes"/>
      <point x="602" y="310"/>
      <point x="526" y="380"/>
      <point x="526" y="490" type="curve" smooth="yes"/>
      <point x="526" y="614"/>
      <point x="612" y="730"/>
      <point x="750" y="730" type="curve" smooth="yes"/>
      <point x="856" y="730"/>
      <point x="932" y="664"/>
      <point x="932" y="556" type="curve" smooth="yes"/>
      <point x="932" y="428"/>
      <point x="844" y="310"/>
    </contour>
  </outline>
</glyph>
<glyph name="e" format="2">
  <advance width="1232"/>
  <unicode hex="0065"/>
  <guideline x="476" y="171" angle="78.0016"/>
  <anchor x="520" y="0" name="bottom"/>
  <anchor x="991" y="0" name="ogonek"/>
  <anchor x="708" y="1040" name="top"/>
  <outline>
    <contour>
      <point x="630" y="-30" type="curve" smooth="yes"/>
      <point x="740" y="-30"/>
      <point x="870" y="-8"/>
      <point x="970" y="26" type="curve"/>
      <point x="1038" y="342" type="line"/>
      <point x="920" y="292"/>
      <point x="810" y="270"/>
      <point x="686" y="270" type="curve" smooth="yes"/>
      <point x="540" y="270"/>
      <point x="402" y="312"/>
      <point x="400" y="408" type="curve"/>
      <point x="1156" y="408" type="line"/>
      <point x="1278" y="774"/>
      <point x="1072" y="1070"/>
      <point x="674" y="1070" type="curve" smooth="yes"/>
      <point x="316" y="1070"/>
      <point x="50" y="816"/>
      <point x="50" y="460" type="curve" smooth="yes"/>
      <point x="50" y="172"/>
      <point x="274" y="-30"/>
    </contour>
    <contour>
      <point x="468" y="668" type="line"/>
      <point x="480" y="742"/>
      <point x="554" y="790"/>
      <point x="652" y="790" type="curve" smooth="yes"/>
      <point x="748" y="790"/>
      <point x="816" y="750"/>
      <point x="816" y="668" type="curve"/>
    </contour>
  </outline>
</glyph>
<glyph name="f" format="2">
  <advance width="878"/>
  <unicode hex="0066"/>
  <guideline x="461" y="556" angle="78.0422"/>
  <guideline x="379" y="364" angle="180"/>
  <outline>
    <contour>
      <point x="91" y="0" type="line"/>
      <point x="491" y="0" type="line"/>
      <point x="645" y="728" type="line"/>
      <point x="887" y="728" type="line"/>
      <point x="955" y="1040" type="line"/>
      <point x="711" y="1040" type="line"/>
      <point x="717" y="1064" type="line" smooth="yes"/>
      <point x="729" y="1116"/>
      <point x="767" y="1144"/>
      <point x="827" y="1144" type="curve" smooth="yes"/>
      <point x="871" y="1144"/>
      <point x="923" y="1138"/>
      <point x="971" y="1112" type="curve"/>
      <point x="1033" y="1408" type="line"/>
      <point x="949" y="1456"/>
      <point x="857" y="1470"/>
      <point x="767" y="1470" type="curve" smooth="yes"/>
      <point x="521" y="1470"/>
      <point x="373" y="1328"/>
      <point x="321" y="1086" type="curve" smooth="yes"/>
    </contour>
    <contour>
      <point x="41" y="728" type="line"/>
      <point x="285" y="728" type="line"/>
      <point x="353" y="1060" type="line"/>
      <point x="57" y="808" type="line"/>
    </contour>
  </outline>
</glyph>
<glyph name="l" format="2">
  <advance width="653"/>
  <unicode hex="006C"/>
  <anchor x="215" y="0" name="bottom"/>
  <anchor x="723" y="1440" name="caron"/>
  <anchor x="523" y="1440" name="top"/>
  <outline>
    <contour>
      <point x="15" y="0" type="line"/>
      <point x="415" y="0" type="line"/>
      <point x="731" y="1480" type="line"/>
      <point x="291" y="1294" type="line"/>
    </contour>
  </outline>
</glyph>
<glyph name="o" format="2">
  <advance width="1286"/>
  <unicode hex="006F"/>
  <guideline x="336" y="450" angle="84.9575"/>
  <anchor x="559" y="0" name="bottom"/>
  <anchor x="1127" y="1040" name="horn"/>
  <anchor x="833" y="0" name="ogonek"/>
  <anchor x="727" y="1040" name="top"/>
  <outline>
    <contour>
      <point x="591" y="-30" type="curve" smooth="yes"/>
      <point x="937" y="-30"/>
      <point x="1239" y="244"/>
      <point x="1239" y="578" type="curve" smooth="yes"/>
      <point x="1239" y="848"/>
      <point x="1029" y="1070"/>
      <point x="695" y="1070" type="curve" smooth="yes"/>
      <point x="349" y="1070"/>
      <point x="47" y="796"/>
      <point x="47" y="464" type="curve" smooth="yes"/>
      <point x="47" y="192"/>
      <point x="255" y="-30"/>
    </contour>
    <contour>
      <point x="621" y="310" type="curve" smooth="yes"/>
      <point x="515" y="310"/>
      <point x="439" y="380"/>
      <point x="439" y="490" type="curve" smooth="yes"/>
      <point x="439" y="616"/>
      <point x="529" y="730"/>
      <point x="665" y="730" type="curve" smooth="yes"/>
      <point x="773" y="730"/>
      <point x="847" y="662"/>
      <point x="847" y="552" type="curve" smooth="yes"/>
      <point x="847" y="426"/>
      <point x="759" y="310"/>
    </contour>
  </outline>
</glyph>
<glyph name="r" format="2">
  <advance width="936"/>
  <unicode hex="0072"/>
  <guideline x="450" y="323" angle="258.0239"/>
  <anchor x="218" y="0" name="bottom"/>
  <anchor x="640" y="1040" name="top"/>
  <outline>
    <contour>
      <point x="18" y="0" type="line"/>
      <point x="418" y="0" type="line"/>
      <point x="526" y="506" type="line" smooth="yes"/>
      <point x="552" y="632"/>
      <point x="638" y="680"/>
      <point x="738" y="680" type="curve" smooth="yes"/>
      <point x="794" y="680"/>
      <point x="852" y="666"/>
      <point x="900" y="646" type="curve"/>
      <point x="990" y="1068" type="line"/>
      <point x="967" y="1071"/>
      <point x="944" y="1072"/>
      <point x="918" y="1072" type="curve" smooth="yes"/>
      <point x="798" y="1072"/>
      <point x="674" y="1012"/>
      <point x="606" y="888" type="curve"/>
      <point x="652" y="1100" type="line"/>
      <point x="214" y="914" type="line"/>
    </contour>
  </outline>
</glyph>
<glyph name="s" format="2">
  <advance width="1064"/>
  <unicode hex="0073"/>
  <guideline x="465" y="333" angle="78.0016"/>
  <guideline x="39" y="198" angle="78.0016"/>
  <anchor x="445" y="0" name="bottom"/>
  <anchor x="617" y="1040" name="top"/>
  <outline>
    <contour>
      <point x="463" y="-28" type="curve" smooth="yes"/>
      <point x="747" y="-28"/>
      <point x="959" y="128"/>
      <point x="959" y="370" type="curve" smooth="yes"/>
      <point x="959" y="518"/>
      <point x="849" y="602"/>
      <point x="601" y="672" type="curve" smooth="yes"/>
      <point x="503" y="702"/>
      <point x="479" y="712"/>
      <point x="479" y="736" type="curve" smooth="yes"/>
      <point x="479" y="768"/>
      <point x="521" y="788"/>
      <point x="589" y="788" type="curve" smooth="yes"/>
      <point x="711" y="788"/>
      <point x="863" y="738"/>
      <point x="939" y="666" type="curve"/>
      <point x="1018" y="969" type="line"/>
      <point x="911" y="1037"/>
      <point x="763" y="1080"/>
      <point x="603" y="1080" type="curve" smooth="yes"/>
      <point x="337" y="1080"/>
      <point x="119" y="934"/>
      <point x="119" y="688" type="curve" smooth="yes"/>
      <point x="119" y="526"/>
      <point x="239" y="428"/>
      <point x="473" y="376" type="curve" smooth="yes"/>
      <point x="577" y="350"/>
      <point x="603" y="344"/>
      <point x="603" y="322" type="curve" smooth="yes"/>
      <point x="603" y="284"/>
      <point x="563" y="264"/>
      <point x="487" y="264" type="curve" smooth="yes"/>
      <point x="359" y="264"/>
      <point x="199" y="316"/>
      <point x="67" y="396" type="curve"/>
      <point x="3" y="95" type="line"/>
      <point x="133" y="9"/>
      <point x="301" y="-28"/>
    </contour>
  </outline>
</glyph>
<glyph name="t" format="2">
  <advance width="928"/>
  <unicode hex="0074"/>
  <guideline x="218" y="330" angle="90"/>
  <guideline x="393" y="173" angle="78.0016"/>
  <anchor x="419" y="534" name="bar"/>
  <anchor x="445" y="0" name="bottom"/>
  <anchor x="797" y="1440" name="caron"/>
  <outline>
    <contour>
      <point x="523" y="-30" type="curve" smooth="yes"/>
      <point x="595" y="-30"/>
      <point x="665" y="-16"/>
      <point x="723" y="2" type="curve"/>
      <point x="795" y="346" type="line"/>
      <point x="757" y="328"/>
      <point x="717" y="320"/>
      <point x="679" y="320" type="curve" smooth="yes"/>
      <point x="595" y="320"/>
      <point x="567" y="362"/>
      <point x="583" y="440" type="curve" smooth="yes"/>
      <point x="645" y="728" type="line"/>
      <point x="861" y="728" type="line"/>
      <point x="929" y="1040" type="line"/>
      <point x="711" y="1040" type="line"/>
      <point x="773" y="1334" type="line"/>
      <point x="373" y="1334" type="line"/>
      <point x="171" y="378" type="line" smooth="yes"/>
      <point x="117" y="118"/>
      <point x="257" y="-30"/>
    </contour>
    <contour>
      <point x="21" y="728" type="line"/>
      <point x="265" y="728" type="line"/>
      <point x="333" y="1060" type="line"/>
      <point x="37" y="808" type="line"/>
    </contour>
  </outline>
</glyph>
<glyph name="u" format="2">
  <advance width="1321"/>
  <unicode hex="0075"/>
  <anchor x="542" y="0" name="bottom"/>
  <anchor x="1084" y="0" name="descender"/>
  <anchor x="1306" y="1040" name="horn"/>
  <anchor x="1084" y="0" name="ogonek"/>
  <anchor x="776" y="1040" name="top"/>
  <outline>
    <contour>
      <point x="422" y="-30" type="curve" smooth="yes"/>
      <point x="598" y="-30"/>
      <point x="706" y="50"/>
      <point x="774" y="136" type="curve"/>
      <point x="744" y="0" type="line"/>
      <point x="1084" y="0" type="line"/>
      <point x="1318" y="1100" type="line"/>
      <point x="880" y="914" type="line"/>
      <point x="788" y="482" type="line" smooth="yes"/>
      <point x="768" y="384"/>
      <point x="702" y="330"/>
      <point x="605" y="330" type="curve" smooth="yes"/>
      <point x="510" y="330"/>
      <point x="486" y="382"/>
      <point x="508" y="482" type="curve" smooth="yes"/>
      <point x="638" y="1100" type="line"/>
      <point x="200" y="914" type="line"/>
      <point x="96" y="428" type="line" smooth="yes"/>
      <point x="34" y="140"/>
      <point x="162" y="-30"/>
    </contour>
  </outline>
</glyph>
<glyph name="v" format="2">
  <advance width="1176"/>
  <unicode hex="0076"/>
  <outline>
    <contour>
      <point x="252" y="0" type="line"/>
      <point x="720" y="0" type="line"/>
      <point x="1278" y="1040" type="line"/>
      <point x="846" y="1040" type="line"/>
      <point x="490" y="270" type="line"/>
      <point x="574" y="254" type="line"/>
      <point x="540" y="1040" type="line"/>
      <point x="120" y="1040" type="line"/>
    </contour>
  </outline>
</glyph>
<glyph name="braceleft" format="2">
  <advance width="756"/>
  <unicode hex="007B"/>
  <outline>
    <contour>
      <point x="510" y="-226" type="curve"/>
      <point x="566" y="40" type="line"/>
      <point x="440" y="34"/>
      <point x="402" y="74"/>
      <point x="438" y="164" type="curve" smooth="yes"/>
      <point x="552" y="442" type="line" smooth="yes"/>
      <point x="602" y="570"/>
      <point x="562" y="664"/>
      <point x="432" y="690" type="curve"/>
      <point x="432" y="692" type="line"/>
      <point x="568" y="714"/>
      <point x="650" y="808"/>
      <point x="652" y="938" type="curve" smooth="yes"/>
      <point x="662" y="1216" type="line" smooth="yes"/>
      <point x="666" y="1310"/>
      <point x="720" y="1348"/>
      <point x="842" y="1340" type="curve"/>
      <point x="898" y="1606" type="line"/>
      <point x="534" y="1634"/>
      <point x="350" y="1504"/>
      <point x="340" y="1188" type="curve" smooth="yes"/>
      <point x="332" y="948" type="line" smooth="yes"/>
      <point x="330" y="856"/>
      <point x="282" y="824"/>
      <point x="132" y="824" type="curve"/>
      <point x="76" y="558" type="line"/>
      <point x="226" y="558"/>
      <point x="260" y="526"/>
      <point x="224" y="434" type="curve" smooth="yes"/>
      <point x="128" y="190" type="line" smooth="yes"/>
      <point x="4" y="-124"/>
      <point x="134" y="-254"/>
    </contour>
  </outline>
</glyph>
<glyph name="registered" format="2">
  <advance width="1240"/>
  <unicode hex="00AE"/>
  <anchor x="742" y="870" name="bottom"/>
  <anchor x="724" y="982" name="center"/>
  <anchor x="732" y="1092" name="top"/>
  <outline>
    <contour>
      <point x="726" y="470" type="curve" smooth="yes"/>
      <point x="1020" y="470"/>
      <point x="1248" y="692"/>
      <point x="1248" y="980" type="curve" smooth="yes"/>
      <point x="1248" y="1264"/>
      <point x="1018" y="1492"/>
      <point x="722" y="1492" type="curve" smooth="yes"/>
      <point x="428" y="1492"/>
      <point x="200" y="1272"/>
      <point x="200" y="982" type="curve" smooth="yes"/>
      <point x="200" y="694"/>
      <point x="428" y="470"/>
    </contour>
    <contour>
      <point x="726" y="566" type="curve" smooth="yes"/>
      <point x="498" y="566"/>
      <point x="308" y="732"/>
      <point x="308" y="982" type="curve" smooth="yes"/>
      <point x="308" y="1232"/>
      <point x="498" y="1394"/>
      <point x="722" y="1394" type="curve" smooth="yes"/>
      <point x="948" y="1394"/>
      <point x="1140" y="1230"/>
      <point x="1140" y="980" type="curve" smooth="yes"/>
      <point x="1140" y="732"/>
      <point x="952" y="566"/>
    </contour>
    <contour>
      <point x="528" y="706" type="line"/>
      <point x="650" y="706" type="line"/>
      <point x="650" y="912" type="line"/>
      <point x="710" y="912" type="line"/>
      <point x="850" y="706" type="line"/>
      <point x="996" y="706" type="line"/>
      <point x="834" y="936" type="line"/>
      <point x="908" y="956"/>
      <point x="964" y="1008"/>
      <point x="964" y="1088" type="curve" smooth="yes"/>
      <point x="964" y="1192"/>
      <point x="880" y="1256"/>
      <point x="756" y="1256" type="curve" smooth="yes"/>
      <point x="528" y="1256" type="line"/>
    </contour>
    <contour>
      <point x="650" y="1010" type="line"/>
      <point x="650" y="1156" type="line"/>
      <point x="744" y="1156" type="line" smooth="yes"/>
      <point x="806" y="1156"/>
      <point x="840" y="1130"/>
      <point x="840" y="1082" type="curve" smooth="yes"/>
      <point x="840" y="1034"/>
      <point x="802" y="1010"/>
      <point x="740" y="1010" type="curve" smooth="yes"/>
    </contour>
  </outline>
</glyph>
<glyph name="twosuperior" format="2">
  <advance width="856"/>
  <unicode hex="00B2"/>
  <outline>
    <contour>
      <point x="136" y="722" type="line"/>
      <point x="798" y="722" type="line"/>
      <point x="894" y="934" type="line"/>
      <point x="536" y="934" type="line"/>
      <point x="610" y="990" type="line" smooth="yes"/>
      <point x="798" y="1132"/>
      <point x="930" y="1238"/>
      <point x="930" y="1396" type="curve" smooth="yes"/>
      <point x="930" y="1546"/>
      <point x="808" y="1652"/>
      <point x="602" y="1652" type="curve" smooth="yes"/>
      <point x="519" y="1652"/>
      <point x="433" y="1633"/>
      <point x="354" y="1597" type="curve"/>
      <point x="304" y="1350" type="line"/>
      <point x="376" y="1406"/>
      <point x="450" y="1434"/>
      <point x="540" y="1434" type="curve" smooth="yes"/>
      <point x="630" y="1434"/>
      <point x="682" y="1404"/>
      <point x="682" y="1350" type="curve" smooth="yes"/>
      <point x="682" y="1248"/>
      <point x="568" y="1178"/>
      <point x="414" y="1066" type="curve" smooth="yes"/>
      <point x="170" y="890" type="line"/>
    </contour>
  </outline>
</glyph>
<glyph name="micro" format="2">
  <advance width="1343"/>
  <unicode hex="00B5"/>
  <outline>
    <contour>
      <point x="-71" y="-420" type="line"/>
      <point x="289" y="-420" type="line"/>
      <point x="361" y="56" type="line"/>
      <point x="395" y="12"/>
      <point x="453" y="-30"/>
      <point x="561" y="-30" type="curve" smooth="yes"/>
      <point x="667" y="-30"/>
      <point x="733" y="28"/>
      <point x="781" y="88" type="curve"/>
      <point x="763" y="0" type="line"/>
      <point x="1103" y="0" type="line"/>
      <point x="1337" y="1100" type="line"/>
      <point x="899" y="914" type="line"/>
      <point x="805" y="482" type="line" smooth="yes"/>
      <point x="783" y="384"/>
      <point x="717" y="330"/>
      <point x="633" y="330" type="curve" smooth="yes"/>
      <point x="539" y="330"/>
      <point x="503" y="396"/>
      <point x="521" y="482" type="curve" smooth="yes"/>
      <point x="653" y="1100" type="line"/>
      <point x="215" y="914" type="line"/>
    </contour>
  </outline>
</glyph>
<glyph name="ordmasculine" format="2">
  <advance width="904"/>
  <unicode hex="00BA"/>
  <anchor x="516" y="722" name="bottom"/>
  <anchor x="892" y="1398" name="horn"/>
  <anchor x="648" y="722" name="ogonek"/>
  <anchor x="624" y="1398" name="top"/>
  <outline>
    <contour>
      <point x="538" y="702" type="curve" smooth="yes"/>
      <point x="768" y="702"/>
      <point x="968" y="880"/>
      <point x="968" y="1096" type="curve" smooth="yes"/>
      <point x="968" y="1272"/>
      <point x="826" y="1418"/>
      <point x="604" y="1418" type="curve" smooth="yes"/>
      <point x="374" y="1418"/>
      <point x="174" y="1240"/>
      <point x="174" y="1026" type="curve" smooth="yes"/>
      <point x="174" y="848"/>
      <point x="314" y="702"/>
    </contour>
    <contour>
      <point x="556" y="924" type="curve" smooth="yes"/>
      <point x="482" y="924"/>
      <point x="428" y="970"/>
      <point x="428" y="1042" type="curve" smooth="yes"/>
      <point x="428" y="1122"/>
      <point x="490" y="1196"/>
      <point x="586" y="1196" type="curve" smooth="yes"/>
      <point x="660" y="1196"/>
      <point x="712" y="1152"/>
      <point x="712" y="1080" type="curve" smooth="yes"/>
      <point x="712" y="1000"/>
      <point x="652" y="924"/>
    </contour>
  </outline>
</glyph>
<glyph name="AE" format="2">
  <advance width="1864"/>
  <unicode hex="00C6"/>
  <anchor x="1388" y="1400" name="top"/>
  <outline>
    <contour>
      <point x="-210" y="0" type="line"/>
      <point x="242" y="0" type="line"/>
      <point x="398" y="250" type="line"/>
      <point x="740" y="250" type="line"/>
      <point x="688" y="0" type="line"/>
      <point x="1610" y="0" type="line"/>
      <point x="1764" y="352" type="line"/>
      <point x="1166" y="352" type="line"/>
      <point x="1208" y="550" type="line"/>
      <point x="1676" y="550" type="line"/>
      <point x="1744" y="870" type="line"/>
      <point x="1276" y="870" type="line"/>
      <point x="1314" y="1052" type="line"/>
      <point x="1864" y="1052" type="line"/>
      <point x="1938" y="1400" type="line"/>
      <point x="712" y="1400" type="line"/>
    </contour>
    <contour>
      <point x="598" y="566" type="line"/>
      <point x="916" y="1074" type="line"/>
      <point x="808" y="566" type="line"/>
    </contour>
  </outline>
</glyph>
<glyph name="germandbls" format="2">
  <advance width="1473"/>
  <unicode hex="00DF"/>
  <guideline x="413" y="306" angle="90"/>
  <outline>
    <contour>
      <point x="884" y="-32" type="curve" smooth="yes"/>
      <point x="1144" y="-32"/>
      <point x="1384" y="136"/>
      <point x="1384" y="374" type="curve" smooth="yes"/>
      <point x="1384" y="490"/>
      <point x="1312" y="570"/>
      <point x="1256" y="636" type="curve" smooth="yes"/>
      <point x="1220" y="678"/>
      <point x="1188" y="712"/>
      <point x="1188" y="746" type="curve" smooth="yes"/>
      <point x="1188" y="780"/>
      <point x="1216" y="816"/>
      <point x="1250" y="862" type="curve" smooth="yes"/>
      <point x="1300" y="928"/>
      <point x="1372" y="1018"/>
      <point x="1372" y="1140" type="curve" smooth="yes"/>
      <point x="1372" y="1332"/>
      <point x="1168" y="1470"/>
      <point x="848" y="1470" type="curve" smooth="yes"/>
      <point x="502" y="1470"/>
      <point x="290" y="1280"/>
      <point x="220" y="946" type="curve" smooth="yes"/>
      <point x="18" y="0" type="line"/>
      <point x="418" y="0" type="line"/>
      <point x="616" y="924" type="line" smooth="yes"/>
      <point x="646" y="1066"/>
      <point x="708" y="1144"/>
      <point x="824" y="1144" type="curve" smooth="yes"/>
      <point x="912" y="1144"/>
      <point x="972" y="1104"/>
      <point x="972" y="1038" type="curve" smooth="yes"/>
      <point x="972" y="990"/>
      <point x="930" y="938"/>
      <point x="884" y="884" type="curve" smooth="yes"/>
      <point x="832" y="824"/>
      <point x="784" y="754"/>
      <point x="784" y="688" type="curve" smooth="yes"/>
      <point x="784" y="608"/>
      <point x="842" y="550"/>
      <point x="892" y="498" type="curve" smooth="yes"/>
      <point x="938" y="450"/>
      <point x="978" y="408"/>
      <point x="970" y="360" type="curve" smooth="yes"/>
      <point x="960" y="300"/>
      <point x="904" y="264"/>
      <point x="826" y="264" type="curve" smooth="yes"/>
      <point x="754" y="264"/>
      <point x="684" y="286"/>
      <point x="604" y="332" type="curve"/>
      <point x="540" y="20" type="line"/>
      <point x="658" y="-18"/>
      <point x="768" y="-32"/>
    </contour>
  </outline>
</glyph>
<glyph name="ae" format="2">
  <advance width="1854"/>
  <unicode hex="00E6"/>
  <guideline x="778" y="173" angle="78.0016"/>
  <guideline x="111" y="351" angle="78.0016"/>
  <anchor x="1000" y="1040" name="top"/>
  <outline>
    <contour>
      <point x="389" y="-30" type="curve" smooth="yes"/>
      <point x="591" y="-30"/>
      <point x="813" y="46"/>
      <point x="931" y="286" type="curve"/>
      <point x="827" y="278" type="line"/>
      <point x="845" y="76"/>
      <point x="1011" y="-30"/>
      <point x="1261" y="-30" type="curve" smooth="yes"/>
      <point x="1371" y="-30"/>
      <point x="1495" y="-6"/>
      <point x="1593" y="26" type="curve"/>
      <point x="1661" y="342" type="line"/>
      <point x="1537" y="292"/>
      <point x="1427" y="270"/>
      <point x="1305" y="270" type="curve" smooth="yes"/>
      <point x="1171" y="270"/>
      <point x="1075" y="324"/>
      <point x="1069" y="408" type="curve"/>
      <point x="1779" y="408" type="line"/>
      <point x="1895" y="778"/>
      <point x="1715" y="1070"/>
      <point x="1347" y="1070" type="curve" smooth="yes"/>
      <point x="1169" y="1070"/>
      <point x="1017" y="1000"/>
      <point x="911" y="854" type="curve"/>
      <point x="1051" y="848" type="line"/>
      <point x="985" y="990"/>
      <point x="841" y="1070"/>
      <point x="627" y="1070" type="curve" smooth="yes"/>
      <point x="497" y="1070"/>
      <point x="379" y="1050"/>
      <point x="275" y="1004" type="curve"/>
      <point x="209" y="692" type="line"/>
      <point x="285" y="740"/>
      <point x="415" y="772"/>
      <point x="529" y="772" type="curve" smooth="yes"/>
      <point x="689" y="772"/>
      <point x="758" y="725"/>
      <point x="739" y="620" type="curve" smooth="yes"/>
      <point x="691" y="402" type="line" smooth="yes"/>
      <point x="669" y="298"/>
      <point x="597" y="248"/>
      <point x="493" y="248" type="curve" smooth="yes"/>
      <point x="423" y="248"/>
      <point x="381" y="274"/>
      <point x="381" y="322" type="curve" smooth="yes"/>
      <point x="381" y="419"/>
      <point x="549" y="452"/>
      <point x="743" y="422" type="curve"/>
      <point x="791" y="648" type="line"/>
      <point x="303" y="690"/>
      <point x="11" y="558"/>
      <point x="11" y="286" type="curve" smooth="yes"/>
      <point x="11" y="92"/>
      <point x="153" y="-30"/>
    </contour>
    <contour>
      <point x="1115" y="668" type="line"/>
      <point x="1123" y="740"/>
      <point x="1197" y="790"/>
      <point x="1295" y="790" type="curve" smooth="yes"/>
      <point x="1393" y="790"/>
      <point x="1457" y="740"/>
      <point x="1449" y="668" type="curve"/>
    </contour>
  </outline>
</glyph>
<glyph name="thorn" format="2">
  <advance width="1367"/>
  <unicode hex="00FE"/>
  <outline>
    <contour>
      <point x="-71" y="-420" type="line"/>
      <point x="327" y="-420" type="line"/>
      <point x="433" y="76" type="line"/>
      <point x="513" y="4"/>
      <point x="619" y="-30"/>
      <point x="729" y="-30" type="curve" smooth="yes"/>
      <point x="1073" y="-30"/>
      <point x="1323" y="260"/>
      <point x="1323" y="608" type="curve" smooth="yes"/>
      <point x="1323" y="876"/>
      <point x="1139" y="1070"/>
      <point x="849" y="1070" type="curve" smooth="yes"/>
      <point x="767" y="1070"/>
      <point x="697" y="1052"/>
      <point x="631" y="1012" type="curve"/>
      <point x="733" y="1480" type="line"/>
      <point x="291" y="1294" type="line"/>
    </contour>
    <contour>
      <point x="703" y="310" type="curve" smooth="yes"/>
      <point x="595" y="310"/>
      <point x="521" y="382"/>
      <point x="521" y="496" type="curve" smooth="yes"/>
      <point x="521" y="618"/>
      <point x="611" y="730"/>
      <point x="747" y="730" type="curve" smooth="yes"/>
      <point x="853" y="730"/>
      <point x="929" y="664"/>
      <point x="929" y="556" type="curve" smooth="yes"/>
      <point x="929" y="404"/>
      <point x="825" y="310"/>
    </contour>
  </outline>
</glyph>
<glyph name="dcroat" format="2">
  <advance width="1364"/>
  <unicode hex="0111"/>
  <anchor x="1151" y="1224" name="bar"/>
  <anchor x="1435" y="1440" name="caron"/>
  <outline>
    <contour>
      <point x="689" y="1118" type="line"/>
      <point x="1489" y="1118" type="line"/>
      <point x="1533" y="1330" type="line"/>
      <point x="733" y="1330" type="line"/>
    </contour>
    <component base="d"/>
  </outline>
</glyph>
<glyph name="Hbar" format="2">
  <advance width="1627"/>
  <unicode hex="0126"/>
  <outline>
    <contour>
      <point x="938" y="0" type="line"/>
      <point x="1342" y="0" type="line"/>
      <point x="1638" y="1400" type="line"/>
      <point x="1234" y="1400" type="line"/>
    </contour>
    <contour>
      <point x="66" y="0" type="line"/>
      <point x="470" y="0" type="line"/>
      <point x="766" y="1400" type="line"/>
      <point x="362" y="1400" type="line"/>
    </contour>
    <contour>
      <point x="534" y="458" type="line"/>
      <point x="1066" y="458" type="line"/>
      <point x="1144" y="826" type="line"/>
      <point x="612" y="826" type="line"/>
    </contour>
    <contour>
      <point x="108" y="956" type="line"/>
      <point x="1704" y="956" type="line"/>
      <point x="1770" y="1264" type="line"/>
      <point x="174" y="1264" type="line"/>
    </contour>
  </outline>
</glyph>
<glyph name="idotless" format="2">
  <advance width="658"/>
  <unicode hex="0131"/>
  <anchor x="218" y="0" name="bottom"/>
  <anchor x="418" y="0" name="ogonek"/>
  <anchor x="438" y="1040" name="top"/>
  <outline>
    <contour>
      <point x="18" y="0" type="line"/>
      <point x="418" y="0" type="line"/>
      <point x="652" y="1100" type="line"/>
      <point x="214" y="914" type="line"/>
    </contour>
  </outline>
</glyph>
<glyph name="kgreenlandic" format="2">
  <advance width="1274"/>
  <unicode hex="0138"/>
  <outline>
    <contour>
      <point x="18" y="0" type="line"/>
      <point x="418" y="0" type="line"/>
      <point x="476" y="270" type="line"/>
      <point x="556" y="344" type="line"/>
      <point x="694" y="0" type="line"/>
      <point x="1150" y="0" type="line"/>
      <point x="888" y="594" type="line"/>
      <point x="1348" y="1040" type="line"/>
      <point x="868" y="1040" type="line"/>
      <point x="580" y="766" type="line"/>
      <point x="646" y="1080" type="line"/>
      <point x="208" y="894" type="line"/>
    </contour>
  </outline>
</glyph>
<glyph name="Lslash" format="2">
  <advance width="1186"/>
  <unicode hex="0141"/>
  <anchor x="552" y="0" name="bottom"/>
  <anchor x="794" y="1440" name="caron"/>
  <anchor x="582" y="1400" name="top"/>
  <outline>
    <contour>
      <point x="-56" y="356" type="line"/>
      <point x="376" y="538" type="line"/>
      <point x="368" y="498" type="line"/>
      <point x="1086" y="804" type="line"/>
      <point x="1160" y="1152" type="line"/>
      <point x="442" y="846" type="line"/>
      <point x="450" y="886" type="line"/>
      <point x="18" y="704" type="line"/>
    </contour>
    <component base="L" xOffset="39"/>
  </outline>
</glyph>
<glyph name="lslash" format="2">
  <advance width="810"/>
  <unicode hex="0142"/>
  <guideline x="10" y="520" angle="78.0793"/>
  <guideline x="10" y="520" angle="112.3244"/>
  <anchor x="291.0" y="0" name="bottom"/>
  <anchor x="802.384" y="1440" name="caron"/>
  <anchor x="602.384" y="1440" name="top"/>
  <outline>
    <contour>
      <point x="-25" y="340" type="line"/>
      <point x="419" y="530" type="line"/>
      <point x="413" y="490" type="line"/>
      <point x="827" y="660" type="line"/>
      <point x="903" y="1020" type="line"/>
      <point x="461" y="838" type="line"/>
      <point x="465" y="878" type="line"/>
      <point x="51" y="700" type="line"/>
    </contour>
    <component base="l" yxScale="0.00235" xOffset="76"/>
  </outline>
</glyph>
<glyph name="Eng" format="2">
  <advance width="1593"/>
  <unicode hex="014A"/>
  <guideline x="346" y="-49" angle="78.0619"/>
  <outline>
    <contour>
      <point x="959" y="-66" type="line"/>
      <point x="1089" y="596" type="line"/>
      <point x="737" y="1400" type="line"/>
      <point x="341" y="1400" type="line"/>
      <point x="45" y="0" type="line"/>
      <point x="435" y="0" type="line"/>
      <point x="601" y="776" type="line"/>
    </contour>
    <contour>
      <point x="861" y="-450" type="curve" smooth="yes"/>
      <point x="1091" y="-450"/>
      <point x="1267" y="-290"/>
      <point x="1321" y="-36" type="curve" smooth="yes"/>
      <point x="1625" y="1400" type="line"/>
      <point x="1235" y="1400" type="line"/>
      <point x="929" y="-40" type="line" smooth="yes"/>
      <point x="917" y="-96"/>
      <point x="875" y="-126"/>
      <point x="811" y="-126" type="curve" smooth="yes"/>
      <point x="753" y="-126"/>
      <point x="707" y="-118"/>
      <point x="661" y="-98" type="curve"/>
      <point x="599" y="-390" type="line"/>
      <point x="671" y="-432"/>
      <point x="745" y="-450"/>
    </contour>
  </outline>
</glyph>
<glyph name="Schwa" format="2">
  <advance width="1617"/>
  <unicode hex="018F"/>
  <outline>
    <contour>
      <point x="758" y="-30" type="curve" smooth="yes"/>
      <point x="1228" y="-30"/>
      <point x="1590" y="332"/>
      <point x="1590" y="804" type="curve" smooth="yes"/>
      <point x="1590" y="1202"/>
      <point x="1298" y="1430"/>
      <point x="850" y="1430" type="curve" smooth="yes"/>
      <point x="704" y="1430"/>
      <point x="577" y="1401"/>
      <point x="470" y="1358" type="curve"/>
      <point x="382" y="946" type="line"/>
      <point x="490" y="1020"/>
      <point x="642" y="1056"/>
      <point x="786" y="1056" type="curve" smooth="yes"/>
      <point x="1046" y="1056"/>
      <point x="1172" y="940"/>
      <point x="1172" y="754" type="curve" smooth="yes"/>
      <point x="1172" y="508"/>
      <point x="1038" y="308"/>
      <point x="788" y="308" type="curve" smooth="yes"/>
      <point x="552" y="308"/>
      <point x="454" y="454"/>
      <point x="502" y="680" type="curve"/>
      <point x="314" y="526" type="line"/>
      <point x="1298" y="526" type="line"/>
      <point x="1366" y="822" type="line"/>
      <point x="132" y="822" type="line"/>
      <point x="0" y="308"/>
      <point x="242" y="-30"/>
    </contour>
  </outline>
</glyph>
<glyph name="florin" format="2">
  <advance width="1296"/>
  <unicode hex="0192"/>
  <guideline x="-2" y="-47" angle="78.0239"/>
  <guideline x="592" y="537" angle="78.0239"/>
  <outline>
    <contour>
      <point x="218" y="-450" type="curve" smooth="yes"/>
      <point x="474" y="-450"/>
      <point x="654" y="-296"/>
      <point x="726" y="28" type="curve" smooth="yes"/>
      <point x="928" y="926" type="line" smooth="yes"/>
      <point x="958" y="1056"/>
      <point x="1018" y="1100"/>
      <point x="1100" y="1100" type="curve" smooth="yes"/>
      <point x="1144" y="1100"/>
      <point x="1190" y="1092"/>
      <point x="1244" y="1074" type="curve"/>
      <point x="1310" y="1378" type="line"/>
      <point x="1218" y="1416"/>
      <point x="1128" y="1430"/>
      <point x="1042" y="1430" type="curve" smooth="yes"/>
      <point x="776" y="1430"/>
      <point x="608" y="1276"/>
      <point x="534" y="952" type="curve" smooth="yes"/>
      <point x="330" y="52" type="line" smooth="yes"/>
      <point x="302" y="-76"/>
      <point x="242" y="-120"/>
      <point x="160" y="-120" type="curve" smooth="yes"/>
      <point x="116" y="-120"/>
      <point x="70" y="-112"/>
      <point x="16" y="-94" type="curve"/>
      <point x="-50" y="-398" type="line"/>
      <point x="42" y="-436"/>
      <point x="132" y="-450"/>
    </contour>
    <contour>
      <point x="138" y="560" type="line"/>
      <point x="1178" y="560" type="line"/>
      <point x="1232" y="810" type="line"/>
      <point x="192" y="810" type="line"/>
    </contour>
  </outline>
</glyph>
<glyph name="Oogonek" format="2">
  <advance width="1658"/>
  <unicode hex="01EA"/>
  <anchor x="979" y="1400" name="top"/>
  <outline>
    <contour>
      <point x="746" y="-158" type="curve" smooth="yes"/>
      <point x="746" y="-66"/>
      <point x="837" y="-32"/>
      <point x="937" y="-18" type="curve"/>
      <point x="969" y="99" type="line"/>
      <point x="726" y="72"/>
      <point x="510" y="-38"/>
      <point x="510" y="-235" type="curve" smooth="yes"/>
      <point x="510" y="-365"/>
      <point x="607" y="-449"/>
      <point x="729" y="-449" type="curve" smooth="yes"/>
      <point x="796" y="-449"/>
      <point x="857" y="-437"/>
      <point x="915" y="-407" type="curve"/>
      <point x="964" y="-174" type="line"/>
      <point x="925" y="-213"/>
      <point x="874" y="-229"/>
      <point x="823" y="-229" type="curve" smooth="yes"/>
      <point x="780" y="-229"/>
      <point x="746" y="-205"/>
    </contour>
    <contour>
      <point x="799" y="-30" type="curve" smooth="yes"/>
      <point x="1255" y="-30"/>
      <point x="1629" y="332"/>
      <point x="1629" y="782" type="curve" smooth="yes"/>
      <point x="1629" y="1148"/>
      <point x="1353" y="1430"/>
      <point x="933" y="1430" type="curve" smooth="yes"/>
      <point x="477" y="1430"/>
      <point x="105" y="1070"/>
      <point x="105" y="614" type="curve" smooth="yes"/>
      <point x="105" y="244"/>
      <point x="381" y="-30"/>
    </contour>
    <contour>
      <point x="833" y="348" type="curve" smooth="yes"/>
      <point x="649" y="348"/>
      <point x="531" y="462"/>
      <point x="531" y="644" type="curve" smooth="yes"/>
      <point x="531" y="872"/>
      <point x="681" y="1052"/>
      <point x="901" y="1052" type="curve" smooth="yes"/>
      <point x="1085" y="1052"/>
      <point x="1203" y="938"/>
      <point x="1203" y="756" type="curve" smooth="yes"/>
      <point x="1203" y="528"/>
      <point x="1053" y="348"/>
    </contour>
  </outline>
</glyph>
<glyph name="jdotless" format="2">
  <advance width="658"/>
  <unicode hex="0237"/>
  <guideline x="-105" y="-49" angle="77.9397"/>
  <anchor x="438" y="1040" name="top"/>
  <outline>
    <contour>
      <point x="-50" y="-450" type="curve" smooth="yes"/>
      <point x="180" y="-450"/>
      <point x="356" y="-290"/>
      <point x="410" y="-36" type="curve" smooth="yes"/>
      <point x="652" y="1100" type="line"/>
      <point x="214" y="914" type="line"/>
      <point x="14" y="-14" type="line" smooth="yes"/>
      <point x="-2" y="-92"/>
      <point x="-46" y="-126"/>
      <point x="-110" y="-126" type="curve" smooth="yes"/>
      <point x="-148" y="-126"/>
      <point x="-180" y="-118"/>
      <point x="-210" y="-98" type="curve"/>
      <point x="-276" y="-408" type="line"/>
      <point x="-214" y="-438"/>
      <point x="-146" y="-450"/>
    </contour>
  </outline>
</glyph>
<glyph name="gravecomb" format="2">
  <unicode hex="0300"/>
  <anchor x="514" y="1040" name="_top"/>
  <anchor x="548" y="1040" name="_top_right"/>
  <outline>
    <contour>
      <point x="382" y="1170" type="line"/>
      <point x="742" y="1170" type="line"/>
      <point x="618" y="1544" type="line"/>
      <point x="228" y="1544" type="line"/>
    </contour>
  </outline>
</glyph>
<glyph name="circumflexcomb" format="2">
  <unicode hex="0302"/>
  <anchor x="-706" y="1040" name="_top"/>
  <anchor x="-612" y="1484" name="top"/>
  <anchor x="-152" y="1384" name="top_right"/>
  <outline>
    <contour>
      <point x="-1166" y="1170" type="line"/>
      <point x="-786" y="1170" type="line"/>
      <point x="-636" y="1326" type="line"/>
      <point x="-560" y="1170" type="line"/>
      <point x="-210" y="1170" type="line"/>
      <point x="-428" y="1544" type="line"/>
      <point x="-768" y="1544" type="line"/>
    </contour>
  </outline>
</glyph>
<glyph name="tildecomb" format="2">
  <unicode hex="0303"/>
  <anchor x="545" y="1040" name="_top"/>
  <anchor x="635" y="1464" name="top"/>
  <outline>
    <contour>
      <point x="150" y="1178" type="line"/>
      <point x="218" y="1240"/>
      <point x="299" y="1280"/>
      <point x="379" y="1280" type="curve" smooth="yes"/>
      <point x="499" y="1280"/>
      <point x="629" y="1180"/>
      <point x="783" y="1180" type="curve" smooth="yes"/>
      <point x="874" y="1180"/>
      <point x="951" y="1215"/>
      <point x="1020" y="1270" type="curve"/>
      <point x="1077" y="1536" type="line"/>
      <point x="1010" y="1474"/>
      <point x="929" y="1434"/>
      <point x="849" y="1434" type="curve" smooth="yes"/>
      <point x="729" y="1434"/>
      <point x="599" y="1534"/>
      <point x="445" y="1534" type="curve" smooth="yes"/>
      <point x="350" y="1534"/>
      <point x="276" y="1499"/>
      <point x="207" y="1445" type="curve"/>
    </contour>
  </outline>
</glyph>
<glyph name="macroncomb" format="2">
  <unicode hex="0304"/>
  <anchor x="-528" y="1040" name="_top"/>
  <outline>
    <contour>
      <point x="-874" y="1230" type="line"/>
      <point x="-98" y="1230" type="line"/>
      <point x="-50" y="1462" type="line"/>
      <point x="-826" y="1462" type="line"/>
    </contour>
  </outline>
</glyph>
<glyph name="dblgravecomb" format="2">
  <unicode hex="030F"/>
  <anchor x="734" y="1040" name="_top"/>
  <outline>
    <contour>
      <point x="882" y="1170" type="line"/>
      <point x="1202" y="1170" type="line"/>
      <point x="1092" y="1544" type="line"/>
      <point x="738" y="1544" type="line"/>
    </contour>
    <contour>
      <point x="372" y="1170" type="line"/>
      <point x="692" y="1170" type="line"/>
      <point x="582" y="1544" type="line"/>
      <point x="228" y="1544" type="line"/>
    </contour>
  </outline>
</glyph>
<glyph name="horncomb" format="2">
  <unicode hex="031B"/>
  <anchor x="559" y="1040" name="_horn"/>
  <outline>
    <contour>
      <point x="625" y="752" type="curve" smooth="yes"/>
      <point x="807" y="752"/>
      <point x="939" y="884"/>
      <point x="939" y="1046" type="curve" smooth="yes"/>
      <point x="939" y="1104"/>
      <point x="923" y="1168"/>
      <point x="886" y="1227" type="curve"/>
      <point x="609" y="1220" type="line"/>
      <point x="646" y="1157"/>
      <point x="660" y="1099"/>
      <point x="657" y="1052" type="curve" smooth="yes"/>
      <point x="657" y="1010"/>
      <point x="630" y="978"/>
      <point x="576" y="978" type="curve" smooth="yes"/>
      <point x="482" y="978"/>
      <point x="357" y="1070"/>
      <point x="127" y="1070" type="curve"/>
      <point x="85" y="860" type="line"/>
      <point x="274" y="874"/>
      <point x="445" y="752"/>
    </contour>
  </outline>
</glyph>
<glyph name="commaaccentcomb" format="2">
  <unicode hex="0326"/>
  <anchor x="146" y="0" name="_bottom"/>
  <outline>
    <contour>
      <point x="-285" y="-895" type="line"/>
      <point x="46" y="-869"/>
      <point x="322" y="-684"/>
      <point x="322" y="-396" type="curve" smooth="yes"/>
      <point x="322" y="-234"/>
      <point x="215" y="-134"/>
      <point x="64" y="-134" type="curve" smooth="yes"/>
      <point x="-69" y="-134"/>
      <point x="-169" y="-232"/>
      <point x="-169" y="-354" type="curve" smooth="yes"/>
      <point x="-169" y="-469"/>
      <point x="-64" y="-549"/>
      <point x="52" y="-538" type="curve"/>
      <point x="9" y="-633"/>
      <point x="-113" y="-687"/>
      <point x="-248" y="-693" type="curve"/>
    </contour>
  </outline>
</glyph>
<glyph name="cedillacomb" format="2">
  <unicode hex="0327"/>
  <anchor x="185" y="0" name="_bottom"/>
  <outline>
    <contour>
      <point x="103" y="-450" type="curve" smooth="yes"/>
      <point x="311" y="-450"/>
      <point x="447" y="-368"/>
      <point x="447" y="-234" type="curve" smooth="yes"/>
      <point x="447" y="-152"/>
      <point x="377" y="-86"/>
      <point x="237" y="-60" type="curve"/>
      <point x="293" y="40" type="line"/>
      <point x="89" y="40" type="line"/>
      <point x="-3" y="-76" type="line"/>
      <point x="49" y="-218" type="line"/>
      <point x="111" y="-206"/>
      <point x="179" y="-218"/>
      <point x="179" y="-242" type="curve" smooth="yes"/>
      <point x="179" y="-258"/>
      <point x="153" y="-268"/>
      <point x="101" y="-268" type="curve" smooth="yes"/>
      <point x="-3" y="-268"/>
      <point x="-87" y="-244"/>
      <point x="-141" y="-202" type="curve"/>
      <point x="-179" y="-370" type="line"/>
      <point x="-101" y="-424"/>
      <point x="13" y="-450"/>
    </contour>
  </outline>
</glyph>
<glyph name="Delta" format="2">
  <advance width="1454"/>
  <unicode hex="0394"/>
  <guideline x="1319" y="168" angle="258.2317"/>
  <outline>
    <contour>
      <point x="-50" y="0" type="line"/>
      <point x="1247" y="0" type="line"/>
      <point x="1366" y="275" type="line"/>
      <point x="1150" y="1400" type="line"/>
      <point x="680" y="1400" type="line"/>
      <point x="20" y="336" type="line"/>
    </contour>
    <contour>
      <point x="474" y="368" type="line"/>
      <point x="826" y="946" type="line"/>
      <point x="934" y="368" type="line"/>
    </contour>
  </outline>
</glyph>
<glyph name="Theta" format="2">
  <advance width="1658"/>
  <unicode hex="0398"/>
  <outline>
    <contour>
      <point x="799" y="-30" type="curve" smooth="yes"/>
      <point x="1255" y="-30"/>
      <point x="1629" y="332"/>
      <point x="1629" y="782" type="curve" smooth="yes"/>
      <point x="1629" y="1148"/>
      <point x="1353" y="1430"/>
      <point x="933" y="1430" type="curve" smooth="yes"/>
      <point x="477" y="1430"/>
      <point x="105" y="1070"/>
      <point x="105" y="614" type="curve" smooth="yes"/>
      <point x="105" y="244"/>
      <point x="381" y="-30"/>
    </contour>
    <contour>
      <point x="599" y="556" type="line"/>
      <point x="1029" y="556" type="line"/>
      <point x="1087" y="836" type="line"/>
      <point x="717" y="836" type="line"/>
    </contour>
    <contour>
      <point x="833" y="348" type="curve" smooth="yes"/>
      <point x="649" y="348"/>
      <point x="531" y="462"/>
      <point x="531" y="644" type="curve" smooth="yes"/>
      <point x="531" y="872"/>
      <point x="681" y="1052"/>
      <point x="901" y="1052" type="curve" smooth="yes"/>
      <point x="1085" y="1052"/>
      <point x="1203" y="938"/>
      <point x="1203" y="756" type="curve" smooth="yes"/>
      <point x="1203" y="528"/>
      <point x="1053" y="348"/>
    </contour>
  </outline>
</glyph>
<glyph name="Lambda" format="2">
  <advance width="1466"/>
  <unicode hex="039B"/>
  <outline>
    <contour>
      <point x="-108" y="0" type="line"/>
      <point x="356" y="0" type="line"/>
      <point x="820" y="890" type="line"/>
      <point x="908" y="0" type="line"/>
      <point x="1352" y="0" type="line"/>
      <point x="1154" y="1400" type="line"/>
      <point x="684" y="1400" type="line"/>
    </contour>
  </outline>
</glyph>
<glyph name="Psi" format="2">
  <advance width="1860"/>
  <unicode hex="03A8"/>
  <outline>
    <contour>
      <point x="632" y="0" type="line"/>
      <point x="1032" y="0" type="line"/>
      <point x="1083" y="243" type="line"/>
      <point x="1482" y="261"/>
      <point x="1732" y="473"/>
      <point x="1816" y="867" type="curve" smooth="yes"/>
      <point x="1844" y="998"/>
      <point x="1861" y="1146"/>
      <point x="1868" y="1400" type="curve"/>
      <point x="1481" y="1400" type="line"/>
      <point x="1476" y="1212"/>
      <point x="1468" y="1069"/>
      <point x="1433" y="907" type="curve" smooth="yes"/>
      <point x="1397" y="735"/>
      <point x="1309" y="625"/>
      <point x="1159" y="603" type="curve"/>
      <point x="1326" y="1400" type="line"/>
      <point x="926" y="1400" type="line"/>
      <point x="765" y="634" type="line"/>
      <point x="636" y="659"/>
      <point x="593" y="735"/>
      <point x="593" y="853" type="curve" smooth="yes"/>
      <point x="593" y="1010"/>
      <point x="673" y="1263"/>
      <point x="769" y="1400" type="curve"/>
      <point x="382" y="1400" type="line"/>
      <point x="279" y="1272"/>
      <point x="198" y="990"/>
      <point x="198" y="802" type="curve" smooth="yes"/>
      <point x="198" y="511"/>
      <point x="332" y="333"/>
      <point x="689" y="272" type="curve"/>
    </contour>
  </outline>
</glyph>
<glyph name="beta" format="2">
  <advance width="1325"/>
  <unicode hex="03B2"/>
  <outline>
    <contour>
      <point x="-74" y="-420" type="line"/>
      <point x="326" y="-420" type="line"/>
      <point x="430" y="78" type="line"/>
      <point x="496" y="2"/>
      <point x="626" y="-24"/>
      <point x="742" y="-24" type="curve" smooth="yes"/>
      <point x="1058" y="-24"/>
      <point x="1250" y="162"/>
      <point x="1250" y="450" type="curve" smooth="yes"/>
      <point x="1250" y="616"/>
      <point x="1172" y="708"/>
      <point x="1062" y="764" type="curve"/>
      <point x="1232" y="840"/>
      <point x="1320" y="947"/>
      <point x="1320" y="1098" type="curve" smooth="yes"/>
      <point x="1320" y="1326"/>
      <point x="1146" y="1466"/>
      <point x="832" y="1466" type="curve" smooth="yes"/>
      <point x="410" y="1466"/>
      <point x="266" y="1178"/>
      <point x="214" y="936" type="curve" smooth="yes"/>
    </contour>
    <contour>
      <point x="684" y="318" type="curve"/>
      <point x="552" y="318"/>
      <point x="496" y="381"/>
      <point x="518" y="490" type="curve" smooth="yes"/>
      <point x="616" y="958" type="line" smooth="yes"/>
      <point x="646" y="1102"/>
      <point x="722" y="1142"/>
      <point x="808" y="1142" type="curve" smooth="yes"/>
      <point x="892" y="1142"/>
      <point x="946" y="1104"/>
      <point x="946" y="1020" type="curve" smooth="yes"/>
      <point x="946" y="940"/>
      <point x="896" y="892"/>
      <point x="806" y="892" type="curve" smooth="yes"/>
      <point x="720" y="892" type="line"/>
      <point x="654" y="580" type="line"/>
      <point x="740" y="580" type="line" smooth="yes"/>
      <point x="828" y="580"/>
      <point x="874" y="528"/>
      <point x="874" y="454" type="curve" smooth="yes"/>
      <point x="874" y="360"/>
      <point x="800" y="318"/>
    </contour>
  </outline>
</glyph>
<glyph name="gamma" format="2">
  <advance width="1241"/>
  <unicode hex="03B3"/>
  <outline>
    <contour>
      <point x="193" y="-420" type="line"/>
      <point x="593" y="-420" type="line"/>
      <point x="679" y="-20" type="line"/>
      <point x="970" y="304"/>
      <point x="1181" y="692"/>
      <point x="1311" y="1040" type="curve"/>
      <point x="885" y="1040" type="line"/>
      <point x="793" y="786"/>
      <point x="656" y="456"/>
      <point x="493" y="276" type="curve"/>
      <point x="587" y="190" type="line"/>
      <point x="533" y="1040" type="line"/>
      <point x="117" y="1040" type="line"/>
      <point x="273" y="-52" type="line"/>
    </contour>
  </outline>
</glyph>
<glyph name="epsilon" format="2">
  <advance width="1063"/>
  <unicode hex="03B5"/>
  <anchor x="680" y="1040" name="top"/>
  <outline>
    <contour>
      <point x="498" y="-30" type="curve" smooth="yes"/>
      <point x="635" y="-30"/>
      <point x="765" y="-9"/>
      <point x="890" y="39" type="curve"/>
      <point x="958" y="354" type="line"/>
      <point x="810" y="299"/>
      <point x="699" y="276"/>
      <point x="584" y="276" type="curve" smooth="yes"/>
      <point x="476" y="276"/>
      <point x="432" y="294"/>
      <point x="432" y="339" type="curve" smooth="yes"/>
      <point x="432" y="381"/>
      <point x="481" y="404"/>
      <point x="572" y="404" type="curve" smooth="yes"/>
      <point x="730" y="404" type="line"/>
      <point x="782" y="652" type="line"/>
      <point x="622" y="652" type="line" smooth="yes"/>
      <point x="541" y="652"/>
      <point x="508" y="666"/>
      <point x="508" y="701" type="curve" smooth="yes"/>
      <point x="508" y="747"/>
      <point x="572" y="772"/>
      <point x="688" y="772" type="curve" smooth="yes"/>
      <point x="810" y="772"/>
      <point x="916" y="743"/>
      <point x="994" y="688" type="curve"/>
      <point x="1060" y="996" type="line"/>
      <point x="943" y="1047"/>
      <point x="818" y="1070"/>
      <point x="667" y="1070" type="curve" smooth="yes"/>
      <point x="356" y="1070"/>
      <point x="142" y="930"/>
      <point x="142" y="726" type="curve" smooth="yes"/>
      <point x="142" y="647"/>
      <point x="191" y="580"/>
      <point x="278" y="540" type="curve"/>
      <point x="121" y="503"/>
      <point x="24" y="403"/>
      <point x="24" y="278" type="curve" smooth="yes"/>
      <point x="24" y="87"/>
      <point x="198" y="-30"/>
    </contour>
  </outline>
</glyph>
<glyph name="zeta" format="2">
  <advance width="1066"/>
  <unicode hex="03B6"/>
  <outline>
    <contour>
      <point x="804" y="-420" type="line"/>
      <point x="893" y="-324"/>
      <point x="957" y="-183"/>
      <point x="957" y="-85" type="curve" smooth="yes"/>
      <point x="957" y="209"/>
      <point x="463" y="294"/>
      <point x="461" y="492" type="curve"/>
      <point x="461" y="690"/>
      <point x="783" y="921"/>
      <point x="1182" y="1180" type="curve"/>
      <point x="1236" y="1440" type="line"/>
      <point x="331" y="1440" type="line"/>
      <point x="183" y="1112" type="line"/>
      <point x="630" y="1112" type="line"/>
      <point x="307" y="937"/>
      <point x="56" y="683"/>
      <point x="56" y="422" type="curve" smooth="yes"/>
      <point x="56" y="85"/>
      <point x="557" y="13"/>
      <point x="557" y="-184" type="curve" smooth="yes"/>
      <point x="557" y="-237"/>
      <point x="514" y="-309"/>
      <point x="417" y="-420" type="curve"/>
    </contour>
  </outline>
</glyph>
<glyph name="eta" format="2">
  <advance width="1364"/>
  <unicode hex="03B7"/>
  <anchor x="792" y="1040" name="top"/>
  <outline>
    <contour>
      <point x="648" y="-420" type="line"/>
      <point x="1048" y="-420" type="line"/>
      <point x="1276" y="662" type="line" smooth="yes"/>
      <point x="1328" y="904"/>
      <point x="1170" y="1070"/>
      <point x="938" y="1070" type="curve" smooth="yes"/>
      <point x="814" y="1070"/>
      <point x="698" y="1020"/>
      <point x="608" y="912" type="curve"/>
      <point x="650" y="1100" type="line"/>
      <point x="210" y="914" type="line"/>
      <point x="16" y="0" type="line"/>
      <point x="416" y="0" type="line"/>
      <point x="530" y="536" type="line" smooth="yes"/>
      <point x="554" y="650"/>
      <point x="628" y="710"/>
      <point x="724" y="710" type="curve" smooth="yes"/>
      <point x="836" y="710"/>
      <point x="876" y="660"/>
      <point x="850" y="536" type="curve" smooth="yes"/>
    </contour>
  </outline>
</glyph>
<glyph name="theta" format="2">
  <advance width="1291"/>
  <unicode hex="03B8"/>
  <outline>
    <contour>
      <point x="553" y="-30" type="curve" smooth="yes"/>
      <point x="996" y="-30"/>
      <point x="1282" y="442"/>
      <point x="1282" y="936" type="curve" smooth="yes"/>
      <point x="1282" y="1270"/>
      <point x="1100" y="1470"/>
      <point x="827" y="1470" type="curve" smooth="yes"/>
      <point x="380" y="1470"/>
      <point x="95" y="1003"/>
      <point x="95" y="505" type="curve" smooth="yes"/>
      <point x="95" y="171"/>
      <point x="277" y="-30"/>
    </contour>
    <contour>
      <point x="597" y="310" type="curve" smooth="yes"/>
      <point x="479" y="310"/>
      <point x="468" y="408"/>
      <point x="496" y="564" type="curve"/>
      <point x="808" y="564" type="line"/>
      <point x="773" y="388"/>
      <point x="705" y="310"/>
    </contour>
    <contour>
      <point x="568" y="876" type="line"/>
      <point x="603" y="1052"/>
      <point x="671" y="1130"/>
      <point x="779" y="1130" type="curve" smooth="yes"/>
      <point x="897" y="1130"/>
      <point x="908" y="1032"/>
      <point x="880" y="876" type="curve"/>
    </contour>
  </outline>
</glyph>
<glyph name="iota" format="2">
  <advance width="762"/>
  <unicode hex="03B9"/>
  <anchor x="428" y="1040" name="top"/>
  <outline>
    <contour>
      <point x="392" y="-28" type="curve" smooth="yes"/>
      <point x="450" y="-28"/>
      <point x="524" y="-22"/>
      <point x="596" y="0" type="curve"/>
      <point x="666" y="322" type="line"/>
      <point x="630" y="308"/>
      <point x="596" y="304"/>
      <point x="572" y="304" type="curve" smooth="yes"/>
      <point x="506" y="304"/>
      <point x="478" y="336"/>
      <point x="496" y="426" type="curve" smooth="yes"/>
      <point x="640" y="1100" type="line"/>
      <point x="200" y="914" type="line"/>
      <point x="86" y="378" type="line" smooth="yes"/>
      <point x="26" y="98"/>
      <point x="212" y="-28"/>
    </contour>
  </outline>
</glyph>
<glyph name="kappa" format="2">
  <advance width="1245"/>
  <unicode hex="03BA"/>
  <outline>
    <contour>
      <point x="19" y="0" type="line"/>
      <point x="419" y="0" type="line"/>
      <point x="485" y="308" type="line"/>
      <point x="583" y="374" type="line"/>
      <point x="679" y="0" type="line"/>
      <point x="1091" y="0" type="line"/>
      <point x="901" y="590" type="line"/>
      <point x="951" y="624" type="line" smooth="yes"/>
      <point x="1023" y="674"/>
      <point x="1073" y="704"/>
      <point x="1187" y="698" type="curve"/>
      <point x="1301" y="1058" type="line"/>
      <point x="1091" y="1096"/>
      <point x="959" y="1040"/>
      <point x="791" y="914" type="curve" smooth="yes"/>
      <point x="579" y="756" type="line"/>
      <point x="651" y="1100" type="line"/>
      <point x="213" y="914" type="line"/>
    </contour>
  </outline>
</glyph>
<glyph name="mu" format="2">
  <advance width="1343"/>
  <unicode hex="03BC"/>
  <outline>
    <contour>
      <point x="-71" y="-420" type="line"/>
      <point x="297" y="-420" type="line"/>
      <point x="389" y="8" type="line"/>
      <point x="429" y="-20"/>
      <point x="471" y="-30"/>
      <point x="525" y="-30" type="curve" smooth="yes"/>
      <point x="617" y="-30"/>
      <point x="715" y="0"/>
      <point x="799" y="136" type="curve"/>
      <point x="767" y="0" type="line"/>
      <point x="1103" y="0" type="line"/>
      <point x="1337" y="1100" type="line"/>
      <point x="897" y="914" type="line"/>
      <point x="805" y="482" type="line" smooth="yes"/>
      <point x="785" y="392"/>
      <point x="727" y="330"/>
      <point x="629" y="330" type="curve" smooth="yes"/>
      <point x="531" y="330"/>
      <point x="505" y="392"/>
      <point x="521" y="472" type="curve" smooth="yes"/>
      <point x="653" y="1100" type="line"/>
      <point x="213" y="914" type="line"/>
    </contour>
  </outline>
</glyph>
<glyph name="nu" format="2">
  <advance width="1229"/>
  <unicode hex="03BD"/>
  <outline>
    <contour>
      <point x="245" y="0" type="line"/>
      <point x="685" y="0" type="line"/>
      <point x="952" y="324"/>
      <point x="1177" y="694"/>
      <point x="1299" y="1040" type="curve"/>
      <point x="883" y="1040" type="line"/>
      <point x="801" y="808"/>
      <point x="674" y="526"/>
      <point x="537" y="338" type="curve"/>
      <point x="577" y="346" type="line"/>
      <point x="543" y="1040" type="line"/>
      <point x="117" y="1040" type="line"/>
    </contour>
  </outline>
</glyph>
<glyph name="xi" format="2">
  <advance width="1070"/>
  <unicode hex="03BE"/>
  <guideline x="956" y="741" angle="257.9694"/>
  <outline>
    <contour>
      <point x="786" y="-420" type="line"/>
      <point x="875" y="-324"/>
      <point x="939" y="-183"/>
      <point x="939" y="-85" type="curve" smooth="yes"/>
      <point x="939" y="209"/>
      <point x="445" y="294"/>
      <point x="443" y="452" type="curve" smooth="yes"/>
      <point x="442" y="528"/>
      <point x="504" y="568"/>
      <point x="622" y="568" type="curve" smooth="yes"/>
      <point x="917" y="568" type="line"/>
      <point x="988" y="893" type="line"/>
      <point x="728" y="893" type="line" smooth="yes"/>
      <point x="644" y="893"/>
      <point x="592" y="934"/>
      <point x="592" y="1000" type="curve" smooth="yes"/>
      <point x="592" y="1089"/>
      <point x="667" y="1140"/>
      <point x="798" y="1140" type="curve" smooth="yes"/>
      <point x="918" y="1140"/>
      <point x="1049" y="1104"/>
      <point x="1134" y="1048" type="curve"/>
      <point x="1206" y="1383" type="line"/>
      <point x="1086" y="1439"/>
      <point x="935" y="1470"/>
      <point x="778" y="1470" type="curve" smooth="yes"/>
      <point x="453" y="1470"/>
      <point x="229" y="1305"/>
      <point x="229" y="1066" type="curve" smooth="yes"/>
      <point x="229" y="958"/>
      <point x="285" y="868"/>
      <point x="396" y="802" type="curve"/>
      <point x="170" y="755"/>
      <point x="38" y="615"/>
      <point x="38" y="422" type="curve" smooth="yes"/>
      <point x="38" y="85"/>
      <point x="539" y="13"/>
      <point x="539" y="-184" type="curve" smooth="yes"/>
      <point x="539" y="-237"/>
      <point x="496" y="-309"/>
      <point x="399" y="-420" type="curve"/>
    </contour>
  </outline>
</glyph>
<glyph name="pi" format="2">
  <advance width="1414"/>
  <unicode hex="03C0"/>
  <outline>
    <contour>
      <point x="1020" y="-30" type="curve" smooth="yes"/>
      <point x="1080" y="-30"/>
      <point x="1144" y="-28"/>
      <point x="1220" y="-10" type="curve"/>
      <point x="1290" y="320" type="line"/>
      <point x="1254" y="312"/>
      <point x="1222" y="306"/>
      <point x="1196" y="306" type="curve" smooth="yes"/>
      <point x="1142" y="306"/>
      <point x="1108" y="338"/>
      <point x="1124" y="412" type="curve" smooth="yes"/>
      <point x="1186" y="712" type="line"/>
      <point x="1372" y="712" type="line"/>
      <point x="1442" y="1040" type="line"/>
      <point x="200" y="1040" type="line"/>
      <point x="50" y="712" type="line"/>
      <point x="246" y="712" type="line"/>
      <point x="66" y="0" type="line"/>
      <point x="462" y="0" type="line"/>
      <point x="642" y="712" type="line"/>
      <point x="804" y="712" type="line"/>
      <point x="740" y="410" type="line" smooth="yes"/>
      <point x="672" y="90"/>
      <point x="860" y="-30"/>
    </contour>
  </outline>
</glyph>
<glyph name="rho" format="2">
  <advance width="1348"/>
  <unicode hex="03C1"/>
  <outline>
    <contour>
      <point x="-101" y="-420" type="line"/>
      <point x="297" y="-420" type="line"/>
      <point x="397" y="52" type="line"/>
      <point x="483" y="-16"/>
      <point x="591" y="-30"/>
      <point x="679" y="-30" type="curve" smooth="yes"/>
      <point x="1025" y="-30"/>
      <point x="1297" y="244"/>
      <point x="1297" y="578" type="curve" smooth="yes"/>
      <point x="1297" y="848"/>
      <point x="1087" y="1070"/>
      <point x="753" y="1070" type="curve" smooth="yes"/>
      <point x="407" y="1070"/>
      <point x="175" y="884"/>
      <point x="93" y="494" type="curve" smooth="yes"/>
    </contour>
    <contour>
      <point x="679" y="310" type="curve" smooth="yes"/>
      <point x="573" y="310"/>
      <point x="497" y="380"/>
      <point x="497" y="490" type="curve" smooth="yes"/>
      <point x="497" y="616"/>
      <point x="587" y="730"/>
      <point x="723" y="730" type="curve" smooth="yes"/>
      <point x="831" y="730"/>
      <point x="905" y="662"/>
      <point x="905" y="552" type="curve" smooth="yes"/>
      <point x="905" y="426"/>
      <point x="817" y="310"/>
    </contour>
  </outline>
</glyph>
<glyph name="sigma" format="2">
  <advance width="1378"/>
  <unicode hex="03C3"/>
  <outline>
    <contour>
      <point x="585" y="-30" type="curve" smooth="yes"/>
      <point x="941" y="-30"/>
      <point x="1209" y="190"/>
      <point x="1209" y="512" type="curve" smooth="yes"/>
      <point x="1209" y="594"/>
      <point x="1193" y="660"/>
      <point x="1159" y="716" type="curve"/>
      <point x="1392" y="716" type="line"/>
      <point x="1462" y="1040" type="line"/>
      <point x="769" y="1040" type="line" smooth="yes"/>
      <point x="321" y="1040"/>
      <point x="49" y="824"/>
      <point x="49" y="462" type="curve" smooth="yes"/>
      <point x="49" y="164"/>
      <point x="275" y="-30"/>
    </contour>
    <contour>
      <point x="617" y="310" type="curve" smooth="yes"/>
      <point x="509" y="310"/>
      <point x="437" y="380"/>
      <point x="437" y="502" type="curve" smooth="yes"/>
      <point x="437" y="616"/>
      <point x="523" y="710"/>
      <point x="661" y="710" type="curve" smooth="yes"/>
      <point x="767" y="710"/>
      <point x="841" y="652"/>
      <point x="841" y="532" type="curve" smooth="yes"/>
      <point x="841" y="416"/>
      <point x="753" y="310"/>
    </contour>
  </outline>
</glyph>
<glyph name="tau" format="2">
  <advance width="964"/>
  <unicode hex="03C4"/>
  <outline>
    <contour>
      <point x="532" y="-28" type="curve" smooth="yes"/>
      <point x="596" y="-28"/>
      <point x="652" y="-20"/>
      <point x="736" y="2" type="curve"/>
      <point x="790" y="328" type="line"/>
      <point x="760" y="320"/>
      <point x="722" y="314"/>
      <point x="698" y="314" type="curve" smooth="yes"/>
      <point x="640" y="314"/>
      <point x="606" y="348"/>
      <point x="626" y="438" type="curve" smooth="yes"/>
      <point x="682" y="704" type="line"/>
      <point x="974" y="704" type="line"/>
      <point x="1046" y="1040" type="line"/>
      <point x="148" y="1040" type="line"/>
      <point x="2" y="704" type="line"/>
      <point x="282" y="704" type="line"/>
      <point x="214" y="384" type="line" smooth="yes"/>
      <point x="154" y="104"/>
      <point x="288" y="-28"/>
    </contour>
  </outline>
</glyph>
<glyph name="upsilon" format="2">
  <advance width="1278"/>
  <unicode hex="03C5"/>
  <anchor x="723" y="1040" name="top"/>
  <outline>
    <contour>
      <point x="573" y="-30" type="curve" smooth="yes"/>
      <point x="993" y="-30"/>
      <point x="1219" y="307"/>
      <point x="1219" y="760" type="curve" smooth="yes"/>
      <point x="1219" y="853"/>
      <point x="1210" y="946"/>
      <point x="1190" y="1040" type="curve"/>
      <point x="802" y="1040" type="line"/>
      <point x="820" y="975"/>
      <point x="828" y="890"/>
      <point x="828" y="801" type="curve" smooth="yes"/>
      <point x="828" y="559"/>
      <point x="765" y="310"/>
      <point x="619" y="310" type="curve" smooth="yes"/>
      <point x="521" y="310"/>
      <point x="481" y="370"/>
      <point x="503" y="474" type="curve" smooth="yes"/>
      <point x="637" y="1102" type="line"/>
      <point x="191" y="914" type="line"/>
      <point x="111" y="542" type="line" smooth="yes"/>
      <point x="33" y="180"/>
      <point x="209" y="-30"/>
    </contour>
  </outline>
</glyph>
<glyph name="phi" format="2">
  <advance width="1606"/>
  <unicode hex="03C6"/>
  <outline>
    <contour>
      <point x="398" y="-420" type="line"/>
      <point x="786" y="-420" type="line"/>
      <point x="1003" y="600" type="line" smooth="yes"/>
      <point x="1021" y="686"/>
      <point x="1056" y="730"/>
      <point x="1106" y="730" type="curve" smooth="yes"/>
      <point x="1163" y="730"/>
      <point x="1194" y="692"/>
      <point x="1194" y="622" type="curve" smooth="yes"/>
      <point x="1194" y="415"/>
      <point x="1036" y="282"/>
      <point x="769" y="282" type="curve" smooth="yes"/>
      <point x="565" y="282"/>
      <point x="451" y="370"/>
      <point x="451" y="564" type="curve" smooth="yes"/>
      <point x="451" y="720"/>
      <point x="533" y="906"/>
      <point x="661" y="1040" type="curve"/>
      <point x="254" y="1040" type="line"/>
      <point x="136" y="889"/>
      <point x="65" y="702"/>
      <point x="65" y="541" type="curve" smooth="yes"/>
      <point x="65" y="175"/>
      <point x="272" y="-25"/>
      <point x="766" y="-25" type="curve" smooth="yes"/>
      <point x="1287" y="-25"/>
      <point x="1574" y="267"/>
      <point x="1574" y="676" type="curve" smooth="yes"/>
      <point x="1574" y="917"/>
      <point x="1418" y="1070"/>
      <point x="1150" y="1070" type="curve" smooth="yes"/>
      <point x="841" y="1070"/>
      <point x="674" y="876"/>
      <point x="601" y="534" type="curve" smooth="yes"/>
    </contour>
  </outline>
</glyph>
<glyph name="psi" format="2">
  <advance width="1716"/>
  <unicode hex="03C8"/>
  <outline>
    <contour>
      <point x="456" y="-420" type="line"/>
      <point x="856" y="-420" type="line"/>
      <point x="938" y="-30" type="line"/>
      <point x="1407" y="-30"/>
      <point x="1660" y="316"/>
      <point x="1660" y="780" type="curve" smooth="yes"/>
      <point x="1660" y="866"/>
      <point x="1654" y="953"/>
      <point x="1641" y="1040" type="curve"/>
      <point x="1243" y="1040" type="line"/>
      <point x="1261" y="975"/>
      <point x="1269" y="890"/>
      <point x="1269" y="801" type="curve" smooth="yes"/>
      <point x="1269" y="559"/>
      <point x="1188" y="310"/>
      <point x="1002" y="310" type="curve"/>
      <point x="1208" y="1280" type="line"/>
      <point x="824" y="1280" type="line"/>
      <point x="618" y="310" type="line"/>
      <point x="514" y="310"/>
      <point x="460" y="358"/>
      <point x="502" y="550" type="curve" smooth="yes"/>
      <point x="620" y="1094" type="line"/>
      <point x="194" y="914" type="line"/>
      <point x="148" y="702" type="line" smooth="yes"/>
      <point x="32" y="170"/>
      <point x="182" y="-6"/>
      <point x="538" y="-30" type="curve"/>
    </contour>
  </outline>
</glyph>
<glyph name="omega" format="2">
  <advance width="1723"/>
  <unicode hex="03C9"/>
  <anchor x="751" y="0" name="bottom"/>
  <anchor x="971" y="1040" name="top"/>
  <outline>
    <contour>
      <point x="450" y="-30" type="curve" smooth="yes"/>
      <point x="572" y="-30"/>
      <point x="687" y="23"/>
      <point x="790" y="136" type="curve"/>
      <point x="864" y="25"/>
      <point x="968" y="-30"/>
      <point x="1102" y="-30" type="curve" smooth="yes"/>
      <point x="1469" y="-30"/>
      <point x="1667" y="356"/>
      <point x="1667" y="780" type="curve" smooth="yes"/>
      <point x="1667" y="866"/>
      <point x="1661" y="953"/>
      <point x="1648" y="1040" type="curve"/>
      <point x="1250" y="1040" type="line"/>
      <point x="1268" y="975"/>
      <point x="1276" y="890"/>
      <point x="1276" y="801" type="curve" smooth="yes"/>
      <point x="1276" y="607"/>
      <point x="1220" y="330"/>
      <point x="1091" y="330" type="curve" smooth="yes"/>
      <point x="1012" y="330"/>
      <point x="1010" y="392"/>
      <point x="1032" y="500" type="curve" smooth="yes"/>
      <point x="1099" y="820" type="line"/>
      <point x="751" y="820" type="line"/>
      <point x="684" y="500" type="line" smooth="yes"/>
      <point x="657" y="370"/>
      <point x="615" y="330"/>
      <point x="558" y="330" type="curve" smooth="yes"/>
      <point x="499" y="330"/>
      <point x="478" y="382"/>
      <point x="478" y="457" type="curve" smooth="yes"/>
      <point x="478" y="619"/>
      <point x="595" y="891"/>
      <point x="696" y="1040" type="curve"/>
      <point x="298" y="1040" type="line"/>
      <point x="170" y="884"/>
      <point x="70" y="581"/>
      <point x="70" y="376" type="curve" smooth="yes"/>
      <point x="70" y="122"/>
      <point x="215" y="-30"/>
    </contour>
  </outline>
</glyph>
<glyph name="kaiSymbol" format="2">
  <advance width="1245"/>
  <unicode hex="03D7"/>
  <outline>
    <contour>
      <point x="352" y="-430" type="line"/>
      <point x="664" y="-478"/>
      <point x="826" y="-394"/>
      <point x="1116" y="-84" type="curve"/>
      <point x="901" y="590" type="line"/>
      <point x="951" y="624" type="line" smooth="yes"/>
      <point x="1023" y="674"/>
      <point x="1073" y="704"/>
      <point x="1187" y="698" type="curve"/>
      <point x="1301" y="1058" type="line"/>
      <point x="1091" y="1096"/>
      <point x="959" y="1040"/>
      <point x="791" y="914" type="curve" smooth="yes"/>
      <point x="579" y="756" type="line"/>
      <point x="651" y="1100" type="line"/>
      <point x="213" y="914" type="line"/>
      <point x="19" y="0" type="line"/>
      <point x="419" y="0" type="line"/>
      <point x="485" y="308" type="line"/>
      <point x="582" y="374" type="line"/>
      <point x="681" y="-9" type="line"/>
      <point x="578" y="-94"/>
      <point x="541" y="-114"/>
      <point x="404" y="-106" type="curve"/>
    </contour>
  </outline>
</glyph>
<glyph name="Dje-cy" format="2">
  <advance width="1699"/>
  <unicode hex="0402"/>
  <outline>
    <contour>
      <point x="282" y="0" type="line"/>
      <point x="688" y="0" type="line"/>
      <point x="908" y="1040" type="line"/>
      <point x="1464" y="1040" type="line"/>
      <point x="1540" y="1400" type="line"/>
      <point x="258" y="1400" type="line"/>
      <point x="102" y="1040" type="line"/>
      <point x="502" y="1040" type="line"/>
    </contour>
    <contour>
      <point x="1038" y="-336" type="line"/>
      <point x="1372" y="-208"/>
      <point x="1610" y="100"/>
      <point x="1612" y="410" type="curve" smooth="yes"/>
      <point x="1614" y="714"/>
      <point x="1400" y="902"/>
      <point x="1052" y="902" type="curve" smooth="yes"/>
      <point x="970" y="902"/>
      <point x="886" y="888"/>
      <point x="800" y="862" type="curve"/>
      <point x="740" y="546" type="line"/>
      <point x="810" y="570"/>
      <point x="868" y="582"/>
      <point x="922" y="582" type="curve" smooth="yes"/>
      <point x="1086" y="582"/>
      <point x="1190" y="486"/>
      <point x="1188" y="340" type="curve" smooth="yes"/>
      <point x="1186" y="194"/>
      <point x="1072" y="54"/>
      <point x="896" y="-20" type="curve"/>
    </contour>
  </outline>
</glyph>
<glyph name="E-cy" format="2">
  <advance width="1340"/>
  <unicode hex="0404"/>
  <outline>
    <contour>
      <point x="813" y="-30" type="curve" smooth="yes"/>
      <point x="947" y="-30"/>
      <point x="1061" y="-8"/>
      <point x="1161" y="26" type="curve"/>
      <point x="1247" y="434" type="line"/>
      <point x="1121" y="364"/>
      <point x="985" y="334"/>
      <point x="863" y="334" type="curve" smooth="yes"/>
      <point x="627" y="334"/>
      <point x="497" y="452"/>
      <point x="497" y="644" type="curve" smooth="yes"/>
      <point x="497" y="888"/>
      <point x="657" y="1066"/>
      <point x="927" y="1066" type="curve" smooth="yes"/>
      <point x="1091" y="1066"/>
      <point x="1215" y="1018"/>
      <point x="1285" y="922" type="curve"/>
      <point x="1373" y="1334" type="line"/>
      <point x="1251" y="1402"/>
      <point x="1113" y="1430"/>
      <point x="933" y="1430" type="curve" smooth="yes"/>
      <point x="443" y="1430"/>
      <point x="107" y="1070"/>
      <point x="107" y="610" type="curve" smooth="yes"/>
      <point x="107" y="204"/>
      <point x="427" y="-30"/>
    </contour>
    <contour>
      <point x="415" y="562" type="line"/>
      <point x="1083" y="562" type="line"/>
      <point x="1147" y="864" type="line"/>
      <point x="477" y="864" type="line"/>
    </contour>
  </outline>
</glyph>
<glyph name="Tshe-cy" format="2">
  <advance width="1712"/>
  <unicode hex="040B"/>
  <outline>
    <contour>
      <point x="102" y="1040" type="line"/>
      <point x="1464" y="1040" type="line"/>
      <point x="1540" y="1400" type="line"/>
      <point x="258" y="1400" type="line"/>
    </contour>
    <contour>
      <point x="284" y="0" type="line"/>
      <point x="688" y="0" type="line"/>
      <point x="796" y="520" type="line"/>
      <point x="862" y="538"/>
      <point x="922" y="548"/>
      <point x="1000" y="548" type="curve" smooth="yes"/>
      <point x="1152" y="548"/>
      <point x="1222" y="482"/>
      <point x="1182" y="298" type="curve" smooth="yes"/>
      <point x="1120" y="0" type="line"/>
      <point x="1524" y="0" type="line"/>
      <point x="1598" y="352" type="line" smooth="yes"/>
      <point x="1682" y="744"/>
      <point x="1488" y="900"/>
      <point x="1158" y="900" type="curve" smooth="yes"/>
      <point x="1060" y="900"/>
      <point x="968" y="882"/>
      <point x="866" y="850" type="curve"/>
      <point x="984" y="1400" type="line"/>
      <point x="580" y="1400" type="line"/>
    </contour>
  </outline>
</glyph>
<glyph name="Ze-cy" format="2">
  <advance width="1211"/>
  <unicode hex="0417"/>
  <anchor x="471" y="0" name="bottom"/>
  <anchor x="717" y="1400" name="top"/>
  <outline>
    <contour>
      <point x="477" y="-30" type="curve" smooth="yes"/>
      <point x="835" y="-30"/>
      <point x="1117" y="154"/>
      <point x="1117" y="438" type="curve" smooth="yes"/>
      <point x="1117" y="558"/>
      <point x="1049" y="672"/>
      <point x="921" y="732" type="curve"/>
      <point x="1073" y="792"/>
      <point x="1187" y="922"/>
      <point x="1187" y="1080" type="curve" smooth="yes"/>
      <point x="1187" y="1328"/>
      <point x="923" y="1430"/>
      <point x="645" y="1430" type="curve" smooth="yes"/>
      <point x="505" y="1430"/>
      <point x="381" y="1408"/>
      <point x="275" y="1364" type="curve"/>
      <point x="191" y="972" type="line"/>
      <point x="269" y="1024"/>
      <point x="403" y="1066"/>
      <point x="553" y="1066" type="curve" smooth="yes"/>
      <point x="667" y="1066"/>
      <point x="759" y="1044"/>
      <point x="759" y="965" type="curve" smooth="yes"/>
      <point x="759" y="888"/>
      <point x="677" y="864"/>
      <point x="557" y="864" type="curve" smooth="yes"/>
      <point x="333" y="864" type="line"/>
      <point x="205" y="562" type="line"/>
      <point x="523" y="562" type="line" smooth="yes"/>
      <point x="637" y="562"/>
      <point x="691" y="512"/>
      <point x="691" y="448" type="curve" smooth="yes"/>
      <point x="690" y="366"/>
      <point x="597" y="316"/>
      <point x="473" y="316" type="curve" smooth="yes"/>
      <point x="335" y="316"/>
      <point x="167" y="361"/>
      <point x="59" y="450" type="curve"/>
      <point x="-17" y="94" type="line"/>
      <point x="131" y="10"/>
      <point x="299" y="-30"/>
    </contour>
  </outline>
</glyph>
<glyph name="Ii-cy" format="2">
  <advance width="1592"/>
  <unicode hex="0418"/>
  <anchor x="687" y="0" name="bottom"/>
  <anchor x="983" y="1400" name="top"/>
  <outline>
    <contour>
      <point x="45" y="0" type="line"/>
      <point x="445" y="0" type="line"/>
      <point x="1089" y="760" type="line"/>
      <point x="927" y="0" type="line"/>
      <point x="1327" y="0" type="line"/>
      <point x="1623" y="1400" type="line"/>
      <point x="1221" y="1400" type="line"/>
      <point x="583" y="654" type="line"/>
      <point x="741" y="1400" type="line"/>
      <point x="341" y="1400" type="line"/>
    </contour>
  </outline>
</glyph>
<glyph name="Ka-cy" format="2">
  <advance width="1526"/>
  <unicode hex="041A"/>
  <guideline x="469" y="700" angle="0"/>
  <anchor x="1286" y="0" name="descender"/>
  <anchor x="918" y="1400" name="top"/>
  <outline>
    <contour>
      <point x="924" y="0" type="line"/>
      <point x="1426" y="0" type="line"/>
      <point x="988" y="696" type="line"/>
      <point x="1658" y="1400" type="line"/>
      <point x="1126" y="1400" type="line"/>
      <point x="496" y="724" type="line"/>
    </contour>
    <contour>
      <point x="48" y="0" type="line"/>
      <point x="452" y="0" type="line"/>
      <point x="566" y="538" type="line"/>
      <point x="818" y="538" type="line"/>
      <point x="896" y="906" type="line"/>
      <point x="644" y="906" type="line"/>
      <point x="748" y="1400" type="line"/>
      <point x="344" y="1400" type="line"/>
    </contour>
  </outline>
</glyph>
<glyph name="El-cy" format="2">
  <advance width="1566"/>
  <unicode hex="041B"/>
  <outline>
    <contour>
      <point x="-53" y="-20" type="line"/>
      <point x="267" y="-68"/>
      <point x="567" y="62"/>
      <point x="643" y="420" type="curve" smooth="yes"/>
      <point x="773" y="1032" type="line"/>
      <point x="1119" y="1032" type="line"/>
      <point x="901" y="0" type="line"/>
      <point x="1301" y="0" type="line"/>
      <point x="1595" y="1400" type="line"/>
      <point x="471" y="1400" type="line"/>
      <point x="281" y="504" type="line" smooth="yes"/>
      <point x="247" y="340"/>
      <point x="119" y="304"/>
      <point x="17" y="312" type="curve"/>
    </contour>
  </outline>
</glyph>
<glyph name="U-cy" format="2">
  <advance width="1386"/>
  <unicode hex="0423"/>
  <anchor x="915" y="1400" name="top"/>
  <outline>
    <contour>
      <point x="9" y="-30" type="line"/>
      <point x="419" y="-56"/>
      <point x="693" y="88"/>
      <point x="1047" y="598" type="curve" smooth="yes"/>
      <point x="1603" y="1400" type="line"/>
      <point x="1119" y="1400" type="line"/>
      <point x="747" y="826" type="line" smooth="yes"/>
      <point x="537" y="500"/>
      <point x="339" y="328"/>
      <point x="93" y="368" type="curve"/>
    </contour>
    <contour>
      <point x="561" y="360" type="line"/>
      <point x="905" y="668" type="line"/>
      <point x="715" y="1400" type="line"/>
      <point x="229" y="1400" type="line"/>
    </contour>
  </outline>
</glyph>
<glyph name="Che-cy" format="2">
  <advance width="1471"/>
  <unicode hex="0427"/>
  <anchor x="722" y="636" name="center"/>
  <anchor x="1206" y="0" name="descender"/>
  <anchor x="802" y="0" name="descender_alt"/>
  <anchor x="882" y="1400" name="top"/>
  <outline>
    <contour>
      <point x="802" y="0" type="line"/>
      <point x="1206" y="0" type="line"/>
      <point x="1502" y="1400" type="line"/>
      <point x="1098" y="1400" type="line"/>
      <point x="980" y="840" type="line"/>
      <point x="916" y="822"/>
      <point x="854" y="812"/>
      <point x="776" y="812" type="curve" smooth="yes"/>
      <point x="624" y="812"/>
      <point x="556" y="878"/>
      <point x="594" y="1062" type="curve" smooth="yes"/>
      <point x="666" y="1400" type="line"/>
      <point x="262" y="1400" type="line"/>
      <point x="178" y="1008" type="line" smooth="yes"/>
      <point x="96" y="616"/>
      <point x="288" y="460"/>
      <point x="618" y="460" type="curve" smooth="yes"/>
      <point x="716" y="460"/>
      <point x="808" y="478"/>
      <point x="910" y="510" type="curve"/>
    </contour>
  </outline>
</glyph>
<glyph name="Sha-cy" format="2">
  <advance width="2286"/>
  <unicode hex="0428"/>
  <anchor x="2021" y="0" name="descender"/>
  <outline>
    <contour>
      <point x="45" y="0" type="line"/>
      <point x="2021" y="0" type="line"/>
      <point x="2317" y="1400" type="line"/>
      <point x="1913" y="1400" type="line"/>
      <point x="1695" y="368" type="line"/>
      <point x="1313" y="368" type="line"/>
      <point x="1531" y="1400" type="line"/>
      <point x="1127" y="1400" type="line"/>
      <point x="909" y="368" type="line"/>
      <point x="527" y="368" type="line"/>
      <point x="745" y="1400" type="line"/>
      <point x="341" y="1400" type="line"/>
    </contour>
  </outline>
</glyph>
<glyph name="Yeru-cy" format="2">
  <advance width="2022"/>
  <unicode hex="042B"/>
  <anchor x="900" y="0" name="bottom"/>
  <anchor x="1196" y="1400" name="top"/>
  <outline>
    <contour>
      <point x="48" y="0" type="line"/>
      <point x="672" y="0" type="line" smooth="yes"/>
      <point x="1088" y="0"/>
      <point x="1294" y="276"/>
      <point x="1294" y="534" type="curve" smooth="yes"/>
      <point x="1294" y="758"/>
      <point x="1136" y="968"/>
      <point x="774" y="968" type="curve" smooth="yes"/>
      <point x="652" y="968" type="line"/>
      <point x="746" y="1400" type="line"/>
      <point x="344" y="1400" type="line"/>
    </contour>
    <contour>
      <point x="524" y="334" type="line"/>
      <point x="584" y="626" type="line"/>
      <point x="702" y="626" type="line" smooth="yes"/>
      <point x="812" y="626"/>
      <point x="864" y="558"/>
      <point x="864" y="488" type="curve" smooth="yes"/>
      <point x="864" y="412"/>
      <point x="806" y="334"/>
      <point x="678" y="334" type="curve" smooth="yes"/>
    </contour>
    <contour>
      <point x="1350" y="0" type="line"/>
      <point x="1754" y="0" type="line"/>
      <point x="2050" y="1400" type="line"/>
      <point x="1646" y="1400" type="line"/>
    </contour>
  </outline>
</glyph>
<glyph name="Ereversed-cy" format="2">
  <advance width="1294"/>
  <unicode hex="042D"/>
  <guideline x="78" y="492" angle="78.1288"/>
  <guideline x="29" y="246" angle="78.1288"/>
  <anchor x="421" y="0" name="bottom"/>
  <anchor x="713" y="1400" name="top"/>
  <outline>
    <contour>
      <point x="447" y="-30" type="curve" smooth="yes"/>
      <point x="925" y="-30"/>
      <point x="1263" y="336"/>
      <point x="1263" y="782" type="curve" smooth="yes"/>
      <point x="1263" y="1174"/>
      <point x="979" y="1430"/>
      <point x="581" y="1430" type="curve" smooth="yes"/>
      <point x="463" y="1430"/>
      <point x="353" y="1412"/>
      <point x="257" y="1380" type="curve"/>
      <point x="177" y="1002" type="line"/>
      <point x="271" y="1042"/>
      <point x="387" y="1066"/>
      <point x="527" y="1066" type="curve" smooth="yes"/>
      <point x="739" y="1066"/>
      <point x="873" y="968"/>
      <point x="873" y="738" type="curve" smooth="yes"/>
      <point x="873" y="510"/>
      <point x="717" y="336"/>
      <point x="465" y="336" type="curve" smooth="yes"/>
      <point x="333" y="336"/>
      <point x="191" y="382"/>
      <point x="71" y="476" type="curve"/>
      <point x="-11" y="84" type="line"/>
      <point x="101" y="14"/>
      <point x="263" y="-30"/>
    </contour>
    <contour>
      <point x="241" y="562" type="line"/>
      <point x="941" y="562" type="line"/>
      <point x="1007" y="864" type="line"/>
      <point x="369" y="864" type="line"/>
    </contour>
  </outline>
</glyph>
<glyph name="Ia-cy" format="2">
  <advance width="1404"/>
  <unicode hex="042F"/>
  <anchor x="923" y="1400" name="top"/>
  <outline>
    <contour>
      <point x="-81" y="0" type="line"/>
      <point x="395" y="0" type="line"/>
      <point x="757" y="482" type="line"/>
      <point x="837" y="482" type="line"/>
      <point x="735" y="0" type="line"/>
      <point x="1139" y="0" type="line"/>
      <point x="1435" y="1400" type="line"/>
      <point x="841" y="1400" type="line" smooth="yes"/>
      <point x="459" y="1400"/>
      <point x="195" y="1240"/>
      <point x="195" y="900" type="curve" smooth="yes"/>
      <point x="195" y="760"/>
      <point x="259" y="648"/>
      <point x="381" y="568" type="curve"/>
    </contour>
    <contour>
      <point x="785" y="800" type="line" smooth="yes"/>
      <point x="673" y="800"/>
      <point x="601" y="840"/>
      <point x="601" y="926" type="curve" smooth="yes"/>
      <point x="601" y="1034"/>
      <point x="689" y="1072"/>
      <point x="801" y="1072" type="curve" smooth="yes"/>
      <point x="961" y="1072" type="line"/>
      <point x="905" y="800" type="line"/>
    </contour>
  </outline>
</glyph>
<glyph name="ve-cy" format="2">
  <advance width="1207"/>
  <unicode hex="0432"/>
  <guideline x="110" y="457" angle="78.0166"/>
  <outline>
    <contour>
      <point x="16" y="0" type="line"/>
      <point x="584" y="0" type="line" smooth="yes"/>
      <point x="864" y="0"/>
      <point x="1102" y="112"/>
      <point x="1102" y="342" type="curve" smooth="yes"/>
      <point x="1102" y="490"/>
      <point x="962" y="586"/>
      <point x="726" y="596" type="curve"/>
      <point x="842" y="506" type="line"/>
      <point x="1008" y="550"/>
      <point x="1152" y="632"/>
      <point x="1152" y="802" type="curve" smooth="yes"/>
      <point x="1152" y="964"/>
      <point x="998" y="1040"/>
      <point x="742" y="1040" type="curve" smooth="yes"/>
      <point x="237" y="1040" type="line"/>
    </contour>
    <contour>
      <point x="450" y="266" type="line"/>
      <point x="562" y="774" type="line"/>
      <point x="694" y="774" type="line" smooth="yes"/>
      <point x="748" y="774"/>
      <point x="782" y="754"/>
      <point x="782" y="718" type="curve" smooth="yes"/>
      <point x="782" y="670"/>
      <point x="742" y="644"/>
      <point x="680" y="644" type="curve" smooth="yes"/>
      <point x="498" y="644" type="line"/>
      <point x="448" y="400" type="line"/>
      <point x="624" y="400" type="line" smooth="yes"/>
      <point x="682" y="400"/>
      <point x="712" y="376"/>
      <point x="712" y="340" type="curve" smooth="yes"/>
      <point x="712" y="296"/>
      <point x="672" y="266"/>
      <point x="608" y="266" type="curve" smooth="yes"/>
    </contour>
  </outline>
</glyph>
<glyph name="ge-cy" format="2">
  <advance width="899"/>
  <unicode hex="0433"/>
  <anchor x="336" y="462" name="bar"/>
  <anchor x="418" y="0" name="descender"/>
  <anchor x="610" y="1040" name="top"/>
  <outline>
    <contour>
      <point x="19" y="0" type="line"/>
      <point x="419" y="0" type="line"/>
      <point x="573" y="728" type="line"/>
      <point x="905" y="728" type="line"/>
      <point x="971" y="1040" type="line"/>
      <point x="237" y="1040" type="line"/>
    </contour>
  </outline>
</glyph>
<glyph name="de-cy" format="2">
  <advance width="1460"/>
  <unicode hex="0434"/>
  <guideline x="272" y="679" angle="77.9885"/>
  <outline>
    <contour>
      <point x="723" y="0" type="line"/>
      <point x="1123" y="0" type="line"/>
      <point x="1343" y="1040" type="line"/>
      <point x="352" y="1040" type="line"/>
      <point x="225" y="444" type="line" smooth="yes"/>
      <point x="198" y="316"/>
      <point x="97" y="288"/>
      <point x="11" y="292" type="curve"/>
      <point x="-47" y="20" type="line"/>
      <point x="241" y="-26"/>
      <point x="509" y="86"/>
      <point x="575" y="400" type="curve" smooth="yes"/>
      <point x="645" y="728" type="line"/>
      <point x="877" y="728" type="line"/>
    </contour>
    <contour>
      <point x="-133" y="-384" type="line"/>
      <point x="267" y="-216" type="line"/>
      <point x="313" y="0" type="line"/>
      <point x="963" y="0" type="line"/>
      <point x="881" y="-384" type="line"/>
      <point x="1281" y="-216" type="line"/>
      <point x="1393" y="312" type="line"/>
      <point x="273" y="312" type="line"/>
      <point x="205" y="286" type="line"/>
      <point x="11" y="292" type="line"/>
    </contour>
  </outline>
</glyph>
<glyph name="ze-cy" format="2">
  <advance width="1060"/>
  <unicode hex="0437"/>
  <anchor x="382" y="0" name="bottom"/>
  <anchor x="580" y="1040" name="top"/>
  <outline>
    <contour>
      <point x="448" y="-30" type="curve" smooth="yes"/>
      <point x="708" y="-30"/>
      <point x="942" y="92"/>
      <point x="942" y="312" type="curve" smooth="yes"/>
      <point x="942" y="420"/>
      <point x="884" y="492"/>
      <point x="776" y="542" type="curve"/>
      <point x="894" y="572"/>
      <point x="992" y="678"/>
      <point x="992" y="790" type="curve" smooth="yes"/>
      <point x="992" y="994"/>
      <point x="764" y="1076"/>
      <point x="548" y="1076" type="curve" smooth="yes"/>
      <point x="432" y="1076"/>
      <point x="308" y="1058"/>
      <point x="192" y="1016" type="curve"/>
      <point x="128" y="710" type="line"/>
      <point x="222" y="760"/>
      <point x="342" y="784"/>
      <point x="466" y="784" type="curve" smooth="yes"/>
      <point x="542" y="784"/>
      <point x="634" y="766"/>
      <point x="626" y="708" type="curve" smooth="yes"/>
      <point x="618" y="666"/>
      <point x="578" y="662"/>
      <point x="474" y="662" type="curve" smooth="yes"/>
      <point x="324" y="662" type="line"/>
      <point x="210" y="394" type="line"/>
      <point x="428" y="394" type="line" smooth="yes"/>
      <point x="530" y="394"/>
      <point x="580" y="370"/>
      <point x="580" y="330" type="curve" smooth="yes"/>
      <point x="580" y="275"/>
      <point x="526" y="252"/>
      <point x="431" y="252" type="curve" smooth="yes"/>
      <point x="309" y="252"/>
      <point x="155" y="290"/>
      <point x="73" y="372" type="curve"/>
      <point x="14" y="76" type="line"/>
      <point x="134" y="4"/>
      <point x="302" y="-30"/>
    </contour>
  </outline>
</glyph>
<glyph name="ii-cy" format="2">
  <advance width="1366"/>
  <unicode hex="0438"/>
  <anchor x="573" y="0" name="bottom"/>
  <anchor x="793" y="1040" name="top"/>
  <outline>
    <contour>
      <point x="15" y="0" type="line"/>
      <point x="375" y="0" type="line"/>
      <point x="845" y="460" type="line"/>
      <point x="747" y="0" type="line"/>
      <point x="1129" y="0" type="line"/>
      <point x="1351" y="1040" type="line"/>
      <point x="989" y="1040" type="line"/>
      <point x="519" y="590" type="line"/>
      <point x="627" y="1100" type="line"/>
      <point x="211" y="922" type="line"/>
    </contour>
  </outline>
</glyph>
<glyph name="ka-cy" format="2">
  <advance width="1266"/>
  <unicode hex="043A"/>
  <anchor x="1025" y="0" name="descender"/>
  <anchor x="753" y="1040" name="top"/>
  <outline>
    <contour>
      <point x="689" y="0" type="line"/>
      <point x="1145" y="0" type="line"/>
      <point x="903" y="538" type="line"/>
      <point x="1347" y="1040" type="line"/>
      <point x="911" y="1040" type="line"/>
      <point x="477" y="536" type="line"/>
    </contour>
    <contour>
      <point x="15" y="0" type="line"/>
      <point x="415" y="0" type="line"/>
      <point x="493" y="370" type="line"/>
      <point x="813" y="370" type="line"/>
      <point x="879" y="682" type="line"/>
      <point x="559" y="682" type="line"/>
      <point x="649" y="1100" type="line"/>
      <point x="211" y="914" type="line"/>
    </contour>
  </outline>
</glyph>
<glyph name="el-cy" format="2">
  <advance width="1346"/>
  <unicode hex="043B"/>
  <guideline x="368" y="364" angle="180"/>
  <guideline x="113" y="148" angle="0"/>
  <guideline x="8" y="156" angle="0"/>
  <guideline x="278" y="679" angle="77.9885"/>
  <outline>
    <contour>
      <point x="-50" y="-20" type="line"/>
      <point x="238" y="-66"/>
      <point x="502" y="46"/>
      <point x="570" y="360" type="curve" smooth="yes"/>
      <point x="650" y="728" type="line"/>
      <point x="862" y="728" type="line"/>
      <point x="706" y="0" type="line"/>
      <point x="1106" y="0" type="line"/>
      <point x="1328" y="1040" type="line"/>
      <point x="355" y="1040" type="line"/>
      <point x="228" y="444" type="line" smooth="yes"/>
      <point x="200" y="312"/>
      <point x="102" y="284"/>
      <point x="16" y="292" type="curve"/>
    </contour>
  </outline>
</glyph>
<glyph name="en-cy" format="2">
  <advance width="1372"/>
  <unicode hex="043D"/>
  <anchor x="1135" y="0" name="descender"/>
  <anchor x="795" y="1040" name="top"/>
  <outline>
    <contour>
      <point x="15" y="0" type="line"/>
      <point x="415" y="0" type="line"/>
      <point x="493" y="370" type="line"/>
      <point x="813" y="370" type="line"/>
      <point x="735" y="0" type="line"/>
      <point x="1135" y="0" type="line"/>
      <point x="1369" y="1100" type="line"/>
      <point x="931" y="914" type="line"/>
      <point x="879" y="682" type="line"/>
      <point x="559" y="682" type="line"/>
      <point x="649" y="1100" type="line"/>
      <point x="211" y="914" type="line"/>
    </contour>
  </outline>
</glyph>
<glyph name="pe-cy" format="2">
  <advance width="1374"/>
  <unicode hex="043F"/>
  <anchor x="795" y="1040" name="top"/>
  <outline>
    <contour>
      <point x="17" y="0" type="line"/>
      <point x="417" y="0" type="line"/>
      <point x="571" y="728" type="line"/>
      <point x="891" y="728" type="line"/>
      <point x="737" y="0" type="line"/>
      <point x="1137" y="0" type="line"/>
      <point x="1357" y="1040" type="line"/>
      <point x="237" y="1040" type="line"/>
    </contour>
  </outline>
</glyph>
<glyph name="te-cy" format="2">
  <advance width="1030"/>
  <unicode hex="0442"/>
  <anchor x="503" y="452" name="bar"/>
  <anchor x="405" y="0" name="bottom"/>
  <anchor x="625" y="1040" name="top"/>
  <outline>
    <contour>
      <point x="205" y="0" type="line"/>
      <point x="605" y="0" type="line"/>
      <point x="759" y="728" type="line"/>
      <point x="1031" y="728" type="line"/>
      <point x="1097" y="1040" type="line"/>
      <point x="193" y="1040" type="line"/>
      <point x="47" y="728" type="line"/>
      <point x="359" y="728" type="line"/>
    </contour>
  </outline>
</glyph>
<glyph name="che-cy" format="2">
  <advance width="1230"/>
  <unicode hex="0447"/>
  <anchor x="561" y="486" name="center"/>
  <anchor x="993" y="0" name="descender"/>
  <anchor x="593" y="0" name="descender_alt"/>
  <anchor x="679" y="1040" name="top"/>
  <outline>
    <contour>
      <point x="593" y="0" type="line"/>
      <point x="993" y="0" type="line"/>
      <point x="1227" y="1100" type="line"/>
      <point x="787" y="914" type="line"/>
      <point x="727" y="638" type="line"/>
      <point x="689" y="632"/>
      <point x="651" y="626"/>
      <point x="591" y="626" type="curve" smooth="yes"/>
      <point x="495" y="626"/>
      <point x="471" y="680"/>
      <point x="493" y="782" type="curve" smooth="yes"/>
      <point x="561" y="1100" type="line"/>
      <point x="121" y="914" type="line"/>
      <point x="81" y="730" type="line" smooth="yes"/>
      <point x="13" y="420"/>
      <point x="181" y="302"/>
      <point x="433" y="302" type="curve" smooth="yes"/>
      <point x="503" y="302"/>
      <point x="575" y="314"/>
      <point x="665" y="336" type="curve"/>
    </contour>
  </outline>
</glyph>
<glyph name="sha-cy" format="2">
  <advance width="1911"/>
  <unicode hex="0448"/>
  <anchor x="1671" y="0" name="descender"/>
  <outline>
    <contour>
      <point x="19" y="0" type="line"/>
      <point x="1671" y="0" type="line"/>
      <point x="1903" y="1100" type="line"/>
      <point x="1487" y="924" type="line"/>
      <point x="1357" y="312" type="line"/>
      <point x="1101" y="312" type="line"/>
      <point x="1267" y="1100" type="line"/>
      <point x="851" y="924" type="line"/>
      <point x="721" y="312" type="line"/>
      <point x="465" y="312" type="line"/>
      <point x="631" y="1100" type="line"/>
      <point x="215" y="924" type="line"/>
    </contour>
  </outline>
</glyph>
<glyph name="hardsign-cy" format="2">
  <advance width="1397"/>
  <unicode hex="044A"/>
  <anchor x="621" y="1040" name="top"/>
  <outline>
    <contour>
      <point x="201" y="0" type="line"/>
      <point x="799" y="0" type="line" smooth="yes"/>
      <point x="1099" y="0"/>
      <point x="1307" y="166"/>
      <point x="1307" y="404" type="curve" smooth="yes"/>
      <point x="1307" y="632"/>
      <point x="1147" y="758"/>
      <point x="857" y="758" type="curve" smooth="yes"/>
      <point x="725" y="758" type="line"/>
      <point x="669" y="490" type="line"/>
      <point x="785" y="490" type="line" smooth="yes"/>
      <point x="855" y="490"/>
      <point x="893" y="454"/>
      <point x="893" y="386" type="curve" smooth="yes"/>
      <point x="893" y="320"/>
      <point x="841" y="272"/>
      <point x="773" y="272" type="curve" smooth="yes"/>
      <point x="657" y="272" type="line"/>
      <point x="821" y="1040" type="line"/>
      <point x="421" y="1040" type="line"/>
    </contour>
    <contour>
      <point x="39" y="690" type="line"/>
      <point x="347" y="690" type="line"/>
      <point x="821" y="1040" type="line"/>
      <point x="193" y="1040" type="line"/>
    </contour>
  </outline>
</glyph>
<glyph name="yeru-cy" format="2">
  <advance width="1781"/>
  <unicode hex="044B"/>
  <anchor x="810" y="0" name="bottom"/>
  <anchor x="1000" y="1040" name="top"/>
  <outline>
    <contour>
      <point x="16" y="0" type="line"/>
      <point x="604" y="0" type="line" smooth="yes"/>
      <point x="904" y="0"/>
      <point x="1112" y="166"/>
      <point x="1112" y="404" type="curve" smooth="yes"/>
      <point x="1112" y="632"/>
      <point x="952" y="758"/>
      <point x="662" y="758" type="curve" smooth="yes"/>
      <point x="540" y="758" type="line"/>
      <point x="484" y="490" type="line"/>
      <point x="590" y="490" type="line" smooth="yes"/>
      <point x="660" y="490"/>
      <point x="698" y="450"/>
      <point x="698" y="388" type="curve" smooth="yes"/>
      <point x="698" y="316"/>
      <point x="646" y="272"/>
      <point x="578" y="272" type="curve" smooth="yes"/>
      <point x="472" y="272" type="line"/>
      <point x="648" y="1100" type="line"/>
      <point x="210" y="914" type="line"/>
    </contour>
    <contour>
      <point x="1144" y="0" type="line"/>
      <point x="1544" y="0" type="line"/>
      <point x="1778" y="1100" type="line"/>
      <point x="1340" y="914" type="line"/>
    </contour>
  </outline>
</glyph>
<glyph name="ereversed-cy" format="2">
  <advance width="1066"/>
  <unicode hex="044D"/>
  <guideline x="34" y="355" angle="78.0016"/>
  <guideline x="0" y="193" angle="78.0016"/>
  <anchor x="330" y="0" name="bottom"/>
  <anchor x="550" y="1040" name="top"/>
  <outline>
    <contour>
      <point x="384" y="-30" type="curve" smooth="yes"/>
      <point x="766" y="-30"/>
      <point x="1012" y="224"/>
      <point x="1012" y="556" type="curve" smooth="yes"/>
      <point x="1012" y="884"/>
      <point x="796" y="1070"/>
      <point x="462" y="1070" type="curve" smooth="yes"/>
      <point x="360" y="1070"/>
      <point x="260" y="1050"/>
      <point x="174" y="1018" type="curve"/>
      <point x="106" y="702" type="line"/>
      <point x="184" y="748"/>
      <point x="288" y="778"/>
      <point x="402" y="778" type="curve" smooth="yes"/>
      <point x="566" y="778"/>
      <point x="656" y="714"/>
      <point x="656" y="546" type="curve" smooth="yes"/>
      <point x="656" y="390"/>
      <point x="592" y="262"/>
      <point x="390" y="262" type="curve" smooth="yes"/>
      <point x="254" y="262"/>
      <point x="120" y="304"/>
      <point x="40" y="384" type="curve"/>
      <point x="-26" y="76" type="line"/>
      <point x="92" y="8"/>
      <point x="250" y="-30"/>
    </contour>
    <contour>
      <point x="190" y="396" type="line"/>
      <point x="746" y="396" type="line"/>
      <point x="802" y="664" type="line"/>
      <point x="302" y="664" type="line"/>
    </contour>
  </outline>
</glyph>
<glyph name="iu-cy" format="2">
  <advance width="1900"/>
  <unicode hex="044E"/>
  <anchor x="1093" y="1040" name="top"/>
  <outline>
    <contour>
      <point x="15" y="0" type="line"/>
      <point x="415" y="0" type="line"/>
      <point x="493" y="370" type="line"/>
      <point x="813" y="370" type="line"/>
      <point x="879" y="682" type="line"/>
      <point x="559" y="682" type="line"/>
      <point x="649" y="1100" type="line"/>
      <point x="211" y="914" type="line"/>
    </contour>
    <contour>
      <point x="1205" y="-30" type="curve" smooth="yes"/>
      <point x="1551" y="-30"/>
      <point x="1853" y="244"/>
      <point x="1853" y="578" type="curve" smooth="yes"/>
      <point x="1853" y="848"/>
      <point x="1643" y="1070"/>
      <point x="1309" y="1070" type="curve" smooth="yes"/>
      <point x="963" y="1070"/>
      <point x="661" y="796"/>
      <point x="661" y="464" type="curve" smooth="yes"/>
      <point x="661" y="192"/>
      <point x="869" y="-30"/>
    </contour>
    <contour>
      <point x="1235" y="310" type="curve" smooth="yes"/>
      <point x="1129" y="310"/>
      <point x="1053" y="380"/>
      <point x="1053" y="490" type="curve" smooth="yes"/>
      <point x="1053" y="616"/>
      <point x="1143" y="730"/>
      <point x="1279" y="730" type="curve" smooth="yes"/>
      <point x="1387" y="730"/>
      <point x="1461" y="662"/>
      <point x="1461" y="552" type="curve" smooth="yes"/>
      <point x="1461" y="426"/>
      <point x="1373" y="310"/>
    </contour>
  </outline>
</glyph>
<glyph name="ia-cy" format="2">
  <advance width="1176"/>
  <unicode hex="044F"/>
  <anchor x="711" y="1040" name="top"/>
  <outline>
    <contour>
      <point x="-71" y="0" type="line"/>
      <point x="349" y="0" type="line"/>
      <point x="585" y="320" type="line"/>
      <point x="659" y="320" type="line"/>
      <point x="711" y="578" type="line"/>
      <point x="623" y="578" type="line" smooth="yes"/>
      <point x="545" y="578"/>
      <point x="509" y="610"/>
      <point x="509" y="668" type="curve" smooth="yes"/>
      <point x="509" y="728"/>
      <point x="549" y="768"/>
      <point x="637" y="768" type="curve" smooth="yes"/>
      <point x="723" y="768" type="line"/>
      <point x="559" y="0" type="line"/>
      <point x="939" y="0" type="line"/>
      <point x="1159" y="1040" type="line"/>
      <point x="639" y="1040" type="line" smooth="yes"/>
      <point x="283" y="1040"/>
      <point x="107" y="898"/>
      <point x="103" y="652" type="curve" smooth="yes"/>
      <point x="109" y="442"/>
      <point x="289" y="352"/>
      <point x="467" y="326" type="curve"/>
      <point x="387" y="566" type="line"/>
    </contour>
  </outline>
</glyph>
<glyph name="lje-cy" format="2">
  <advance width="1887"/>
  <unicode hex="0459"/>
  <guideline x="278" y="679" angle="77.9885"/>
  <outline>
    <contour>
      <point x="-50" y="-20" type="line"/>
      <point x="238" y="-66"/>
      <point x="502" y="46"/>
      <point x="570" y="360" type="curve" smooth="yes"/>
      <point x="650" y="728" type="line"/>
      <point x="842" y="728" type="line"/>
      <point x="1308" y="1040" type="line"/>
      <point x="355" y="1040" type="line"/>
      <point x="228" y="444" type="line" smooth="yes"/>
      <point x="201" y="317"/>
      <point x="102" y="288"/>
      <point x="16" y="292" type="curve"/>
    </contour>
    <contour>
      <point x="688" y="0" type="line"/>
      <point x="1286" y="0" type="line" smooth="yes"/>
      <point x="1586" y="0"/>
      <point x="1794" y="166"/>
      <point x="1794" y="404" type="curve" smooth="yes"/>
      <point x="1794" y="632"/>
      <point x="1634" y="758"/>
      <point x="1344" y="758" type="curve" smooth="yes"/>
      <point x="1212" y="758" type="line"/>
      <point x="1156" y="490" type="line"/>
      <point x="1272" y="490" type="line" smooth="yes"/>
      <point x="1342" y="490"/>
      <point x="1380" y="450"/>
      <point x="1380" y="388" type="curve" smooth="yes"/>
      <point x="1380" y="316"/>
      <point x="1328" y="272"/>
      <point x="1260" y="272" type="curve" smooth="yes"/>
      <point x="1144" y="272" type="line"/>
      <point x="1308" y="1040" type="line"/>
      <point x="908" y="1040" type="line"/>
    </contour>
  </outline>
</glyph>
<glyph name="nje-cy" format="2">
  <advance width="1904"/>
  <unicode hex="045A"/>
  <outline>
    <contour>
      <point x="18" y="0" type="line"/>
      <point x="418" y="0" type="line"/>
      <point x="652" y="1100" type="line"/>
      <point x="214" y="914" type="line"/>
    </contour>
    <contour>
      <point x="718" y="0" type="line"/>
      <point x="1316" y="0" type="line" smooth="yes"/>
      <point x="1606" y="0"/>
      <point x="1804" y="152"/>
      <point x="1804" y="366" type="curve" smooth="yes"/>
      <point x="1804" y="582"/>
      <point x="1644" y="704"/>
      <point x="1356" y="704" type="curve" smooth="yes"/>
      <point x="500" y="704" type="line"/>
      <point x="450" y="420" type="line"/>
      <point x="940" y="420" type="line"/>
      <point x="1106" y="440" type="line"/>
      <point x="1290" y="440" type="line" smooth="yes"/>
      <point x="1354" y="440"/>
      <point x="1390" y="408"/>
      <point x="1390" y="359" type="curve" smooth="yes"/>
      <point x="1390" y="304"/>
      <point x="1344" y="268"/>
      <point x="1284" y="268" type="curve" smooth="yes"/>
      <point x="1172" y="268" type="line"/>
      <point x="1352" y="1100" type="line"/>
      <point x="914" y="914" type="line"/>
    </contour>
  </outline>
</glyph>
<glyph name="yat-cy" format="2">
  <advance width="1372"/>
  <unicode hex="0463"/>
  <guideline x="111" y="894" angle="66.7638"/>
  <outline>
    <contour>
      <point x="189" y="0" type="line"/>
      <point x="787" y="0" type="line" smooth="yes"/>
      <point x="1077" y="0"/>
      <point x="1275" y="152"/>
      <point x="1275" y="366" type="curve" smooth="yes"/>
      <point x="1275" y="563"/>
      <point x="1119" y="674"/>
      <point x="837" y="674" type="curve" smooth="yes"/>
      <point x="459" y="674" type="line"/>
      <point x="577" y="440" type="line"/>
      <point x="761" y="440" type="line" smooth="yes"/>
      <point x="825" y="440"/>
      <point x="861" y="405"/>
      <point x="861" y="356" type="curve" smooth="yes"/>
      <point x="861" y="301"/>
      <point x="815" y="268"/>
      <point x="755" y="268" type="curve" smooth="yes"/>
      <point x="643" y="268" type="line"/>
      <point x="903" y="1480" type="line"/>
      <point x="463" y="1294" type="line"/>
    </contour>
    <contour>
      <point x="51" y="748" type="line"/>
      <point x="1009" y="748" type="line"/>
      <point x="1071" y="1040" type="line"/>
      <point x="177" y="1040" type="line"/>
    </contour>
  </outline>
</glyph>
<glyph name="Izhitsa-cy" format="2">
  <advance width="1520"/>
  <unicode hex="0474"/>
  <outline>
    <contour>
      <point x="369" y="0" type="line"/>
      <point x="839" y="0" type="line"/>
      <point x="1277" y="768" type="line" smooth="yes"/>
      <point x="1399" y="990"/>
      <point x="1497" y="1050"/>
      <point x="1657" y="1032" type="curve"/>
      <point x="1741" y="1430" type="line"/>
      <point x="1383" y="1474"/>
      <point x="1167" y="1368"/>
      <point x="953" y="964" type="curve" smooth="yes"/>
      <point x="707" y="512" type="line"/>
      <point x="615" y="1400" type="line"/>
      <point x="167" y="1400" type="line"/>
    </contour>
  </outline>
</glyph>
<glyph name="izhitsa-cy" format="2">
  <advance width="1250"/>
  <unicode hex="0475"/>
  <outline>
    <contour>
      <point x="255" y="0" type="line"/>
      <point x="701" y="0" type="line"/>
      <point x="973" y="470" type="line" smooth="yes"/>
      <point x="1097" y="684"/>
      <point x="1181" y="730"/>
      <point x="1291" y="706" type="curve"/>
      <point x="1365" y="1060" type="line"/>
      <point x="1057" y="1124"/>
      <point x="873" y="1060"/>
      <point x="727" y="764" type="curve" smooth="yes"/>
      <point x="579" y="466" type="line"/>
      <point x="541" y="1040" type="line"/>
      <point x="117" y="1040" type="line"/>
    </contour>
  </outline>
</glyph>
<glyph name="gheupturn-cy" format="2">
  <advance width="899"/>
  <unicode hex="0491"/>
  <anchor x="336" y="462" name="bar"/>
  <anchor x="418" y="0" name="descender"/>
  <anchor x="610" y="1040" name="top"/>
  <outline>
    <contour>
      <point x="539" y="728" type="line"/>
      <point x="903" y="728" type="line"/>
      <point x="1051" y="1424" type="line"/>
      <point x="651" y="1256" type="line"/>
    </contour>
    <component base="ge-cy"/>
  </outline>
</glyph>
<glyph name="Ghemiddlehook-cy" format="2">
  <advance width="1459"/>
  <unicode hex="0494"/>
  <outline>
    <contour>
      <point x="45" y="0" type="line"/>
      <point x="451" y="0" type="line"/>
      <point x="667" y="1040" type="line"/>
      <point x="1225" y="1040" type="line"/>
      <point x="1301" y="1400" type="line"/>
      <point x="341" y="1400" type="line"/>
    </contour>
    <contour>
      <point x="801" y="-336" type="line"/>
      <point x="1135" y="-208"/>
      <point x="1373" y="100"/>
      <point x="1375" y="410" type="curve" smooth="yes"/>
      <point x="1377" y="714"/>
      <point x="1163" y="902"/>
      <point x="815" y="902" type="curve" smooth="yes"/>
      <point x="733" y="902"/>
      <point x="649" y="888"/>
      <point x="563" y="862" type="curve"/>
      <point x="503" y="546" type="line"/>
      <point x="573" y="570"/>
      <point x="631" y="582"/>
      <point x="685" y="582" type="curve" smooth="yes"/>
      <point x="849" y="582"/>
      <point x="953" y="486"/>
      <point x="951" y="340" type="curve" smooth="yes"/>
      <point x="949" y="194"/>
      <point x="835" y="54"/>
      <point x="659" y="-20" type="curve"/>
    </contour>
  </outline>
</glyph>
<glyph name="ghemiddlehook-cy" format="2">
  <advance width="1184"/>
  <unicode hex="0495"/>
  <anchor x="336" y="462" name="bar"/>
  <anchor x="418" y="0" name="descender"/>
  <anchor x="610" y="1040" name="top"/>
  <outline>
    <contour>
      <point x="621" y="-262" type="line"/>
      <point x="891" y="-166"/>
      <point x="1057" y="20"/>
      <point x="1057" y="252" type="curve" smooth="yes"/>
      <point x="1057" y="462"/>
      <point x="907" y="622"/>
      <point x="637" y="622" type="curve" smooth="yes"/>
      <point x="575" y="622"/>
      <point x="505" y="614"/>
      <point x="441" y="600" type="curve"/>
      <point x="391" y="310" type="line"/>
      <point x="441" y="322"/>
      <point x="487" y="328"/>
      <point x="523" y="328" type="curve" smooth="yes"/>
      <point x="629" y="328"/>
      <point x="691" y="280"/>
      <point x="691" y="214" type="curve" smooth="yes"/>
      <point x="691" y="128"/>
      <point x="615" y="64"/>
      <point x="491" y="18" type="curve"/>
    </contour>
    <component base="ge-cy"/>
  </outline>
</glyph>
<glyph name="Kabashkir-cy" format="2">
  <advance width="1760"/>
  <unicode hex="04A0"/>
  <anchor x="1520" y="0" name="descender"/>
  <anchor x="1152" y="1400" name="top"/>
  <outline>
    <contour>
      <point x="500" y="1032" type="line"/>
      <point x="982" y="1400" type="line"/>
      <point x="258" y="1400" type="line"/>
      <point x="100" y="1032" type="line"/>
    </contour>
    <component base="Ka-cy" xOffset="234"/>
  </outline>
</glyph>
<glyph name="enghe-cy" format="2">
  <advance width="1620"/>
  <unicode hex="04A5"/>
  <outline>
    <contour>
      <point x="18" y="0" type="line"/>
      <point x="418" y="0" type="line"/>
      <point x="496" y="370" type="line"/>
      <point x="816" y="370" type="line"/>
      <point x="738" y="0" type="line"/>
      <point x="1138" y="0" type="line"/>
      <point x="1292" y="728" type="line"/>
      <point x="1626" y="728" type="line"/>
      <point x="1692" y="1040" type="line"/>
      <point x="959" y="1040" type="line"/>
      <point x="882" y="682" type="line"/>
      <point x="562" y="682" type="line"/>
      <point x="650" y="1100" type="line"/>
      <point x="210" y="914" type="line"/>
    </contour>
  </outline>
</glyph>
<glyph name="ustraight-cy" format="2">
  <advance width="1170"/>
  <unicode hex="04AF"/>
  <guideline x="361" y="-100" angle="0"/>
  <anchor x="469" y="-80" name="bar"/>
  <outline>
    <contour>
      <point x="197" y="-420" type="line"/>
      <point x="597" y="-420" type="line"/>
      <point x="685" y="2" type="line"/>
      <point x="1275" y="1040" type="line"/>
      <point x="841" y="1040" type="line"/>
      <point x="503" y="356" type="line"/>
      <point x="599" y="338" type="line"/>
      <point x="537" y="1040" type="line"/>
      <point x="117" y="1040" type="line"/>
      <point x="285" y="0" type="line"/>
    </contour>
  </outline>
</glyph>
<glyph name="Obarred-cy" format="2">
  <advance width="1658"/>
  <unicode hex="04E8"/>
  <anchor x="755" y="0" name="bottom"/>
  <anchor x="1383" y="1400" name="horn"/>
  <anchor x="1021" y="0" name="ogonek"/>
  <anchor x="979" y="1400" name="top"/>
  <anchor x="273" y="1400" name="topleft"/>
  <outline>
    <contour>
      <point x="367" y="562" type="line"/>
      <point x="1329" y="562" type="line"/>
      <point x="1393" y="864" type="line"/>
      <point x="431" y="864" type="line"/>
    </contour>
    <component base="O"/>
  </outline>
</glyph>
<glyph name="Germandbls" format="2">
  <advance width="1580"/>
  <unicode hex="1E9E"/>
  <outline>
    <contour>
      <point x="963" y="-26" type="curve" smooth="yes"/>
      <point x="1263" y="-26"/>
      <point x="1511" y="160"/>
      <point x="1511" y="406" type="curve" smooth="yes"/>
      <point x="1511" y="602"/>
      <point x="1333" y="692"/>
      <point x="1333" y="816" type="curve" smooth="yes"/>
      <point x="1333" y="878"/>
      <point x="1375" y="936"/>
      <point x="1523" y="1006" type="curve"/>
      <point x="1575" y="1248" type="line"/>
      <point x="1387" y="1370"/>
      <point x="1183" y="1430"/>
      <point x="947" y="1430" type="curve" smooth="yes"/>
      <point x="583" y="1430"/>
      <point x="299" y="1212"/>
      <point x="215" y="816" type="curve" smooth="yes"/>
      <point x="41" y="0" type="line"/>
      <point x="481" y="0" type="line"/>
      <point x="655" y="816" type="line" smooth="yes"/>
      <point x="691" y="982"/>
      <point x="791" y="1074"/>
      <point x="921" y="1074" type="curve" smooth="yes"/>
      <point x="979" y="1074"/>
      <point x="1053" y="1054"/>
      <point x="1099" y="1020" type="curve"/>
      <point x="989" y="960"/>
      <point x="887" y="858"/>
      <point x="887" y="740" type="curve" smooth="yes"/>
      <point x="887" y="578"/>
      <point x="1057" y="498"/>
      <point x="1057" y="404" type="curve" smooth="yes"/>
      <point x="1057" y="338"/>
      <point x="995" y="290"/>
      <point x="907" y="290" type="curve" smooth="yes"/>
      <point x="831" y="290"/>
      <point x="757" y="320"/>
      <point x="689" y="368" type="curve"/>
      <point x="615" y="28" type="line"/>
      <point x="717" y="2"/>
      <point x="861" y="-26"/>
    </contour>
  </outline>
</glyph>
<glyph name="emdash" format="2">
  <advance width="2000"/>
  <unicode hex="2014"/>
  <outline>
    <contour>
      <point x="178" y="412" type="line"/>
      <point x="1777" y="412" type="line"/>
      <point x="1843" y="728" type="line"/>
      <point x="244" y="728" type="line"/>
    </contour>
  </outline>
</glyph>
<glyph name="quoteleft" format="2">
  <advance width="608"/>
  <unicode hex="2018"/>
  <outline>
    <contour>
      <point x="377" y="587" type="curve" smooth="yes"/>
      <point x="515" y="587"/>
      <point x="621" y="691"/>
      <point x="621" y="824" type="curve" smooth="yes"/>
      <point x="621" y="941"/>
      <point x="515" y="1024"/>
      <point x="398" y="1011" type="curve"/>
      <point x="439" y="1116"/>
      <point x="554" y="1186"/>
      <point x="689" y="1192" type="curve"/>
      <point x="732" y="1400" type="line"/>
      <point x="401" y="1374"/>
      <point x="121" y="1165"/>
      <point x="121" y="848" type="curve" smooth="yes"/>
      <point x="121" y="691"/>
      <point x="223" y="587"/>
    </contour>
  </outline>
</glyph>
<glyph name="dagger" format="2">
  <advance width="1351"/>
  <unicode hex="2020"/>
  <outline>
    <contour>
      <point x="344" y="-118" type="line"/>
      <point x="738" y="-118" type="line"/>
      <point x="932" y="802" type="line"/>
      <point x="1344" y="802" type="line"/>
      <point x="1414" y="1126" type="line"/>
      <point x="1002" y="1126" type="line"/>
      <point x="1102" y="1600" type="line"/>
      <point x="708" y="1600" type="line"/>
      <point x="608" y="1126" type="line"/>
      <point x="196" y="1126" type="line"/>
      <point x="126" y="802" type="line"/>
      <point x="538" y="802" type="line"/>
    </contour>
  </outline>
</glyph>
<glyph name="daggerdbl" format="2">
  <advance width="1352"/>
  <unicode hex="2021"/>
  <outline>
    <contour>
      <point x="344" y="-118" type="line"/>
      <point x="738" y="-118" type="line"/>
      <point x="814" y="244" type="line"/>
      <point x="1226" y="244" type="line"/>
      <point x="1296" y="568" type="line"/>
      <point x="884" y="568" type="line"/>
      <point x="956" y="914" type="line"/>
      <point x="1368" y="914" type="line"/>
      <point x="1438" y="1238" type="line"/>
      <point x="1026" y="1238" type="line"/>
      <point x="1102" y="1600" type="line"/>
      <point x="708" y="1600" type="line"/>
      <point x="632" y="1238" type="line"/>
      <point x="220" y="1238" type="line"/>
      <point x="150" y="914" type="line"/>
      <point x="562" y="914" type="line"/>
      <point x="490" y="568" type="line"/>
      <point x="78" y="568" type="line"/>
      <point x="8" y="244" type="line"/>
      <point x="420" y="244" type="line"/>
    </contour>
  </outline>
</glyph>
<glyph name="guilsinglleft" format="2">
  <advance width="710"/>
  <unicode hex="2039"/>
  <outline>
    <contour>
      <point x="206" y="140" type="line"/>
      <point x="560" y="140" type="line"/>
      <point x="408" y="508" type="line"/>
      <point x="722" y="918" type="line"/>
      <point x="344" y="918" type="line"/>
      <point x="42" y="528" type="line"/>
    </contour>
  </outline>
</glyph>
<glyph name="franc" format="2">
  <advance width="1296"/>
  <unicode hex="20A3"/>
  <outline>
    <contour>
      <point x="-32" y="140" type="line"/>
      <point x="796" y="140" type="line"/>
      <point x="850" y="390" type="line"/>
      <point x="22" y="390" type="line"/>
    </contour>
    <component base="_part.franc" xOffset="136"/>
  </outline>
</glyph>
<glyph name="lira" format="2">
  <advance width="1296"/>
  <unicode hex="20A4"/>
  <outline>
    <contour>
      <point x="8" y="0" type="line"/>
      <point x="1076" y="0" type="line"/>
      <point x="1220" y="298" type="line"/>
      <point x="604" y="298" type="line"/>
      <point x="670" y="380"/>
      <point x="698" y="480"/>
      <point x="698" y="548" type="curve" smooth="yes"/>
      <point x="698" y="660"/>
      <point x="700" y="820"/>
      <point x="698" y="918" type="curve" smooth="yes"/>
      <point x="698" y="1034"/>
      <point x="772" y="1124"/>
      <point x="902" y="1124" type="curve" smooth="yes"/>
      <point x="990" y="1124"/>
      <point x="1080" y="1098"/>
      <point x="1170" y="1016" type="curve"/>
      <point x="1354" y="1252" type="line"/>
      <point x="1288" y="1338"/>
      <point x="1118" y="1426"/>
      <point x="904" y="1426" type="curve" smooth="yes"/>
      <point x="572" y="1426"/>
      <point x="332" y="1228"/>
      <point x="332" y="940" type="curve" smooth="yes"/>
      <point x="332" y="814"/>
      <point x="366" y="606"/>
      <point x="366" y="524" type="curve" smooth="yes"/>
      <point x="366" y="344"/>
      <point x="248" y="308"/>
      <point x="68" y="292" type="curve"/>
    </contour>
    <contour>
      <point x="78" y="420" type="line"/>
      <point x="994" y="420" type="line"/>
      <point x="1042" y="646" type="line"/>
      <point x="126" y="646" type="line"/>
    </contour>
    <contour>
      <point x="150" y="758" type="line"/>
      <point x="1066" y="758" type="line"/>
      <point x="1114" y="984" type="line"/>
      <point x="198" y="984" type="line"/>
    </contour>
  </outline>
</glyph>
<glyph name="euro" format="2">
  <advance width="1296"/>
  <unicode hex="20AC"/>
  <guideline x="562" y="186" angle="78.0239"/>
  <guideline x="599" y="501" angle="78.0239"/>
  <outline>
    <contour>
      <point x="778" y="-30" type="curve" smooth="yes"/>
      <point x="890" y="-30"/>
      <point x="996" y="-12"/>
      <point x="1090" y="22" type="curve"/>
      <point x="1164" y="372" type="line"/>
      <point x="1032" y="308"/>
      <point x="932" y="284"/>
      <point x="818" y="284" type="curve" smooth="yes"/>
      <point x="680" y="284"/>
      <point x="594" y="322"/>
      <point x="550" y="420" type="curve"/>
      <point x="906" y="420" type="line"/>
      <point x="954" y="646" type="line"/>
      <point x="536" y="646" type="line"/>
      <point x="536" y="692"/>
      <point x="546" y="730"/>
      <point x="554" y="758" type="curve"/>
      <point x="978" y="758" type="line"/>
      <point x="1026" y="984" type="line"/>
      <point x="634" y="984" type="line"/>
      <point x="704" y="1080"/>
      <point x="790" y="1116"/>
      <point x="890" y="1116" type="curve" smooth="yes"/>
      <point x="1028" y="1116"/>
      <point x="1134" y="1076"/>
      <point x="1238" y="1002" type="curve"/>
      <point x="1308" y="1332" type="line"/>
      <point x="1208" y="1394"/>
      <point x="1066" y="1430"/>
      <point x="928" y="1430" type="curve" smooth="yes"/>
      <point x="644" y="1430"/>
      <point x="402" y="1282"/>
      <point x="256" y="984" type="curve"/>
      <point x="112" y="984" type="line"/>
      <point x="64" y="758" type="line"/>
      <point x="188" y="758" type="line"/>
      <point x="182" y="730"/>
      <point x="176" y="692"/>
      <point x="174" y="646" type="curve"/>
      <point x="40" y="646" type="line"/>
      <point x="-8" y="420" type="line"/>
      <point x="174" y="420" type="line"/>
      <point x="224" y="140"/>
      <point x="448" y="-30"/>
    </contour>
  </outline>
</glyph>
<glyph name="tugrik" format="2">
  <advance width="1296"/>
  <unicode hex="20AE"/>
  <anchor x="673" y="644" name="bar"/>
  <anchor x="535" y="0" name="bottom"/>
  <anchor x="831" y="1400" name="top"/>
  <outline>
    <contour>
      <point x="228" y="384" type="line"/>
      <point x="662" y="590" type="line"/>
      <point x="652" y="540" type="line"/>
      <point x="1088" y="746" type="line"/>
      <point x="1142" y="1004" type="line"/>
      <point x="706" y="798" type="line"/>
      <point x="716" y="848" type="line"/>
      <point x="282" y="640" type="line"/>
    </contour>
    <contour>
      <point x="154" y="36" type="line"/>
      <point x="590" y="242" type="line"/>
      <point x="580" y="192" type="line"/>
      <point x="1014" y="400" type="line"/>
      <point x="1068" y="656" type="line"/>
      <point x="634" y="450" type="line"/>
      <point x="644" y="500" type="line"/>
      <point x="208" y="294" type="line"/>
    </contour>
    <component base="T" xOffset="54"/>
  </outline>
</glyph>
<glyph name="tenge" format="2">
  <advance width="1296"/>
  <unicode hex="20B8"/>
  <outline>
    <contour>
      <point x="340" y="0" type="line"/>
      <point x="740" y="0" type="line"/>
      <point x="916" y="836" type="line"/>
      <point x="1276" y="836" type="line"/>
      <point x="1324" y="1062" type="line"/>
      <point x="204" y="1062" type="line"/>
      <point x="156" y="836" type="line"/>
      <point x="516" y="836" type="line"/>
    </contour>
    <contour>
      <point x="228" y="1174" type="line"/>
      <point x="1348" y="1174" type="line"/>
      <point x="1396" y="1400" type="line"/>
      <point x="276" y="1400" type="line"/>
    </contour>
  </outline>
</glyph>
<glyph name="ruble" format="2">
  <advance width="1296"/>
  <unicode hex="20BD"/>
  <outline>
    <contour>
      <point x="36" y="274" type="line"/>
      <point x="1156" y="274" type="line"/>
      <point x="1204" y="500" type="line"/>
      <point x="84" y="500" type="line"/>
    </contour>
    <contour>
      <point x="192" y="0" type="line"/>
      <point x="536" y="0" type="line"/>
      <point x="770" y="1104" type="line"/>
      <point x="852" y="1104" type="line" smooth="yes"/>
      <point x="942" y="1104"/>
      <point x="994" y="1068"/>
      <point x="994" y="990" type="curve" smooth="yes"/>
      <point x="994" y="900"/>
      <point x="936" y="838"/>
      <point x="834" y="838" type="curve" smooth="yes"/>
      <point x="156" y="838" type="line"/>
      <point x="108" y="612" type="line"/>
      <point x="810" y="612" type="line" smooth="yes"/>
      <point x="1114" y="612"/>
      <point x="1326" y="768"/>
      <point x="1326" y="1048" type="curve" smooth="yes"/>
      <point x="1326" y="1254"/>
      <point x="1180" y="1400"/>
      <point x="926" y="1400" type="curve" smooth="yes"/>
      <point x="488" y="1400" type="line"/>
    </contour>
  </outline>
</glyph>
<glyph name="leftArrow" format="2">
  <advance width="1799"/>
  <unicode hex="2190"/>
  <outline>
    <contour>
      <point x="810" y="50" type="line"/>
      <point x="1008" y="248" type="line"/>
      <point x="672" y="584" type="line"/>
      <point x="1810" y="586" type="line"/>
      <point x="1810" y="882" type="line"/>
      <point x="672" y="880" type="line"/>
      <point x="1008" y="1216" type="line"/>
      <point x="810" y="1414" type="line"/>
      <point x="128" y="732" type="line"/>
    </contour>
  </outline>
</glyph>
<glyph name="northWestArrow" format="2">
  <advance width="2129"/>
  <unicode hex="2196"/>
  <outline>
    <contour>
      <point x="1587" y="-64" type="line"/>
      <point x="1797" y="146" type="line"/>
      <point x="821" y="1120" type="line"/>
      <point x="1295" y="1120" type="line"/>
      <point x="1295" y="1400" type="line"/>
      <point x="331" y="1400" type="line"/>
      <point x="333" y="436" type="line"/>
      <point x="613" y="436" type="line"/>
      <point x="613" y="908" type="line"/>
    </contour>
  </outline>
</glyph>
<glyph name="southEastArrow" format="2">
  <advance width="2130"/>
  <unicode hex="2198"/>
  <outline>
    <contour>
      <point x="911" y="0" type="line"/>
      <point x="1875" y="0" type="line"/>
      <point x="1873" y="964" type="line"/>
      <point x="1593" y="964" type="line"/>
      <point x="1593" y="492" type="line"/>
      <point x="619" y="1464" type="line"/>
      <point x="409" y="1254" type="line"/>
      <point x="1385" y="280" type="line"/>
      <point x="911" y="280" type="line"/>
    </contour>
  </outline>
</glyph>
<glyph name="southWestArrow" format="2">
  <advance width="1799"/>
  <unicode hex="2199"/>
  <outline>
    <contour>
      <point x="236" y="0" type="line"/>
      <point x="1200" y="0" type="line"/>
      <point x="1200" y="280" type="line"/>
      <point x="726" y="280" type="line"/>
      <point x="1702" y="1254" type="line"/>
      <point x="1492" y="1464" type="line"/>
      <point x="518" y="492" type="line"/>
      <point x="518" y="964" type="line"/>
      <point x="238" y="964" type="line"/>
    </contour>
  </outline>
</glyph>
<glyph name="divisionslash" format="2">
  <advance width="1296"/>
  <unicode hex="2215"/>
  <guideline x="35" y="39" angle="322.7187"/>
  <guideline x="649" y="663" angle="322.7187"/>
  <outline>
    <contour>
      <point x="293" y="0" type="line"/>
      <point x="1359" y="1400" type="line"/>
      <point x="1081" y="1400" type="line"/>
      <point x="14" y="0" type="line"/>
    </contour>
  </outline>
</glyph>
<glyph name="rightanglebracket-math" format="2">
  <advance width="1296"/>
  <unicode hex="27E9"/>
  <outline>
    <contour>
      <point x="-40" y="-450" type="line"/>
      <point x="1168" y="664" type="line"/>
      <point x="432" y="1778" type="line"/>
      <point x="352" y="1398" type="line"/>
      <point x="824" y="682" type="line"/>
      <point x="48" y="-32" type="line"/>
    </contour>
  </outline>
</glyph>
<glyph name="De-cy.loclBGR" format="2">
  <advance width="1774"/>
  <outline>
    <contour>
      <point x="30" y="0" type="line"/>
      <point x="494" y="0" type="line"/>
      <point x="998" y="974" type="line"/>
      <point x="1084" y="0" type="line"/>
      <point x="1530" y="0" type="line"/>
      <point x="1324" y="1400" type="line"/>
      <point x="846" y="1400" type="line"/>
    </contour>
    <contour>
      <point x="-132" y="-440" type="line"/>
      <point x="290" y="-260" type="line"/>
      <point x="346" y="0" type="line"/>
      <point x="1208" y="0" type="line"/>
      <point x="1114" y="-440" type="line"/>
      <point x="1536" y="-260" type="line"/>
      <point x="1670" y="368" type="line"/>
      <point x="40" y="368" type="line"/>
    </contour>
  </outline>
</glyph>
<glyph name=".notdef" format="2">
  <advance width="1364"/>
  <outline>
    <contour>
      <point x="20" y="0" type="line"/>
      <point x="1124" y="0" type="line"/>
      <point x="1420" y="1400" type="line"/>
      <point x="316" y="1400" type="line"/>
    </contour>
    <contour>
      <point x="400" y="266" type="line"/>
      <point x="584" y="1134" type="line"/>
      <point x="1040" y="1134" type="line"/>
      <point x="856" y="266" type="line"/>
    </contour>
  </outline>
</glyph>
<glyph name="_part.Tse-cy" format="2">
  <advance width="1586"/>
  <anchor x="683" y="0" name="bottom"/>
  <anchor x="1321" y="0" name="descender"/>
  <outline>
    <contour>
      <point x="45" y="0" type="line"/>
      <point x="1321" y="0" type="line"/>
      <point x="1617" y="1400" type="line"/>
      <point x="1213" y="1400" type="line"/>
      <point x="995" y="368" type="line"/>
      <point x="527" y="368" type="line"/>
      <point x="745" y="1400" type="line"/>
      <point x="341" y="1400" type="line"/>
    </contour>
  </outline>
</glyph>
<glyph name="_part.cedi" format="2">
  <advance width="1296"/>
  <guideline x="566" y="466" angle="78.0239"/>
  <guideline x="541" y="215" angle="78.0239"/>
  <anchor x="640" y="0" name="bottom"/>
  <anchor x="914" y="1400" name="top"/>
  <outline>
    <contour>
      <point x="730" y="-30" type="curve" smooth="yes"/>
      <point x="844" y="-30"/>
      <point x="946" y="-10"/>
      <point x="1036" y="24" type="curve"/>
      <point x="1122" y="430" type="line"/>
      <point x="1008" y="358"/>
      <point x="888" y="328"/>
      <point x="784" y="328" type="curve" smooth="yes"/>
      <point x="590" y="328"/>
      <point x="494" y="440"/>
      <point x="494" y="622" type="curve" smooth="yes"/>
      <point x="494" y="856"/>
      <point x="616" y="1072"/>
      <point x="850" y="1072" type="curve" smooth="yes"/>
      <point x="1000" y="1072"/>
      <point x="1112" y="1020"/>
      <point x="1172" y="932" type="curve"/>
      <point x="1254" y="1318" type="line"/>
      <point x="1152" y="1394"/>
      <point x="1030" y="1430"/>
      <point x="866" y="1430" type="curve" smooth="yes"/>
      <point x="432" y="1430"/>
      <point x="106" y="1042"/>
      <point x="106" y="574" type="curve" smooth="yes"/>
      <point x="106" y="202"/>
      <point x="344" y="-30"/>
    </contour>
  </outline>
</glyph>
<glyph name="_part.currencyBarHorizontalDoubl" format="2">
  <advance width="1296"/>
  <anchor x="798" y="1400" name="_top"/>
  <outline>
    <contour>
      <point x="54" y="740" type="line"/>
      <point x="1334" y="740" type="line"/>
      <point x="1382" y="966" type="line"/>
      <point x="102" y="966" type="line"/>
    </contour>
    <contour>
      <point x="-18" y="402" type="line"/>
      <point x="1262" y="402" type="line"/>
      <point x="1310" y="628" type="line"/>
      <point x="30" y="628" type="line"/>
    </contour>
  </outline>
</glyph>
<glyph name="_part.currencyVertDiag" format="2">
  <advance width="1426"/>
  <anchor x="980" y="1400" name="_top"/>
  <outline>
    <contour>
      <point x="464" y="-160" type="line"/>
      <point x="704" y="-160" type="line"/>
      <point x="1368" y="1560" type="line"/>
      <point x="1124" y="1560" type="line"/>
    </contour>
    <contour>
      <point x="108" y="-160" type="line"/>
      <point x="352" y="-160" type="line"/>
      <point x="1012" y="1560" type="line"/>
      <point x="772" y="1560" type="line"/>
    </contour>
  </outline>
</glyph>
<glyph name="_part.cy-desc-uc-reversed-stem" format="2">
  <advance width="993"/>
  <anchor x="-146" y="0" name="_descender"/>
  <outline>
    <contour>
      <point x="-432" y="-440" type="line"/>
      <point x="-10" y="-260" type="line"/>
      <point x="46" y="0" type="line"/>
      <point x="70" y="20" type="line"/>
      <point x="164" y="468" type="line"/>
      <point x="-280" y="278" type="line"/>
    </contour>
  </outline>
</glyph>
<glyph name="_part.cy-desc-uc" format="2">
  <advance width="993"/>
  <anchor x="-152" y="0" name="_descender"/>
  <outline>
    <contour>
      <point x="-402" y="-440" type="line"/>
      <point x="20" y="-260" type="line"/>
      <point x="154" y="368" type="line"/>
      <point x="-330" y="368" type="line"/>
      <point x="-408" y="0" type="line"/>
      <point x="-308" y="0" type="line"/>
    </contour>
  </outline>
</glyph>
<glyph name="_part.cy-descender-uc-center" format="2">
  <anchor x="-138" y="0" name="_bottom"/>
  <outline>
    <contour>
      <point x="-424" y="-440" type="line"/>
      <point x="-2" y="-260" type="line"/>
      <point x="116" y="288" type="line"/>
      <point x="-268" y="288" type="line"/>
    </contour>
  </outline>
</glyph>
<glyph name="_part.dollar" format="2">
  <advance width="1296"/>
  <anchor x="578" y="0" name="bottom"/>
  <anchor x="842" y="1400" name="top"/>
  <outline>
    <contour>
      <point x="604" y="-30" type="curve" smooth="yes"/>
      <point x="914" y="-30"/>
      <point x="1170" y="160"/>
      <point x="1170" y="458" type="curve" smooth="yes"/>
      <point x="1170" y="618"/>
      <point x="1070" y="743"/>
      <point x="804" y="822" type="curve"/>
      <point x="684" y="842" type="line"/>
      <point x="595" y="874"/>
      <point x="544" y="922"/>
      <point x="544" y="1004" type="curve" smooth="yes"/>
      <point x="544" y="1094"/>
      <point x="636" y="1158"/>
      <point x="782" y="1158" type="curve" smooth="yes"/>
      <point x="946" y="1158"/>
      <point x="1106" y="1096"/>
      <point x="1180" y="1014" type="curve"/>
      <point x="1248" y="1315" type="line"/>
      <point x="1135" y="1385"/>
      <point x="976" y="1430"/>
      <point x="792" y="1430" type="curve" smooth="yes"/>
      <point x="504" y="1430"/>
      <point x="246" y="1240"/>
      <point x="246" y="950" type="curve" smooth="yes"/>
      <point x="246" y="796"/>
      <point x="338" y="663"/>
      <point x="556" y="579" type="curve"/>
      <point x="670" y="560" type="line"/>
      <point x="810" y="520"/>
      <point x="856" y="472"/>
      <point x="856" y="390" type="curve" smooth="yes"/>
      <point x="856" y="294"/>
      <point x="766" y="242"/>
      <point x="616" y="242" type="curve" smooth="yes"/>
      <point x="448" y="242"/>
      <point x="252" y="308"/>
      <point x="158" y="404" type="curve"/>
      <point x="92" y="104" type="line"/>
      <point x="226" y="18"/>
      <point x="416" y="-30"/>
    </contour>
  </outline>
</glyph>
<glyph name="_part.franc" format="2">
  <advance width="1204"/>
  <outline>
    <contour>
      <point x="50" y="0" type="line"/>
      <point x="418" y="0" type="line"/>
      <point x="524" y="500" type="line"/>
      <point x="1038" y="500" type="line"/>
      <point x="1106" y="822" type="line"/>
      <point x="592" y="822" type="line"/>
      <point x="644" y="1066" type="line"/>
      <point x="1220" y="1066" type="line"/>
      <point x="1290" y="1400" type="line"/>
      <point x="346" y="1400" type="line"/>
    </contour>
  </outline>
</glyph>
<glyph name="_part.guarani" format="2">
  <advance width="1296"/>
  <guideline x="560" y="494" angle="78.0239"/>
  <anchor x="842" y="1400" name="top"/>
  <outline>
    <contour>
      <point x="704" y="-30" type="curve" smooth="yes"/>
      <point x="824" y="-30"/>
      <point x="974" y="-2"/>
      <point x="1092" y="48" type="curve"/>
      <point x="1256" y="818" type="line"/>
      <point x="944" y="818" type="line"/>
      <point x="834" y="300" type="line"/>
      <point x="804" y="294"/>
      <point x="780" y="290"/>
      <point x="758" y="290" type="curve" smooth="yes"/>
      <point x="592" y="290"/>
      <point x="480" y="418"/>
      <point x="480" y="614" type="curve" smooth="yes"/>
      <point x="480" y="862"/>
      <point x="604" y="1096"/>
      <point x="846" y="1096" type="curve" smooth="yes"/>
      <point x="974" y="1096"/>
      <point x="1072" y="1066"/>
      <point x="1160" y="988" type="curve"/>
      <point x="1232" y="1326" type="line"/>
      <point x="1102" y="1408"/>
      <point x="968" y="1430"/>
      <point x="862" y="1430" type="curve" smooth="yes"/>
      <point x="430" y="1430"/>
      <point x="102" y="1046"/>
      <point x="102" y="590" type="curve" smooth="yes"/>
      <point x="102" y="202"/>
      <point x="372" y="-30"/>
    </contour>
  </outline>
</glyph>
<glyph name="_part.heng" format="2">
  <advance width="1370"/>
  <anchor x="556" y="1224" name="bar"/>
  <outline>
    <contour>
      <point x="674" y="-332" type="line"/>
      <point x="1040" y="-172"/>
      <point x="1308" y="206"/>
      <point x="1308" y="604" type="curve" smooth="yes"/>
      <point x="1308" y="866"/>
      <point x="1180" y="1070"/>
      <point x="910" y="1070" type="curve" smooth="yes"/>
      <point x="806" y="1070"/>
      <point x="686" y="1018"/>
      <point x="616" y="944" type="curve"/>
      <point x="732" y="1480" type="line"/>
      <point x="294" y="1294" type="line"/>
      <point x="18" y="0" type="line"/>
      <point x="418" y="0" type="line"/>
      <point x="530" y="536" type="line" smooth="yes"/>
      <point x="554" y="652"/>
      <point x="628" y="710"/>
      <point x="720" y="710" type="curve" smooth="yes"/>
      <point x="804" y="710"/>
      <point x="864" y="646"/>
      <point x="864" y="514" type="curve" smooth="yes"/>
      <point x="864" y="318"/>
      <point x="726" y="88"/>
      <point x="532" y="-18" type="curve"/>
    </contour>
  </outline>
</glyph>
<glyph name="_part.hryvnia" format="2">
  <advance width="1296"/>
  <guideline x="496" y="219" angle="78.0016"/>
  <guideline x="153" y="490" angle="78.0016"/>
  <anchor x="798" y="1400" name="top"/>
  <outline>
    <contour>
      <point x="638" y="-32" type="curve" smooth="yes"/>
      <point x="776" y="-32"/>
      <point x="900" y="-4"/>
      <point x="1000" y="38" type="curve"/>
      <point x="1074" y="364" type="line"/>
      <point x="976" y="290"/>
      <point x="808" y="240"/>
      <point x="664" y="240" type="curve" smooth="yes"/>
      <point x="530" y="240"/>
      <point x="444" y="280"/>
      <point x="444" y="372" type="curve" smooth="yes"/>
      <point x="444" y="468"/>
      <point x="530" y="518"/>
      <point x="634" y="554" type="curve" smooth="yes"/>
      <point x="762" y="598" type="line" smooth="yes"/>
      <point x="988" y="676"/>
      <point x="1192" y="806"/>
      <point x="1192" y="1048" type="curve" smooth="yes"/>
      <point x="1192" y="1296"/>
      <point x="958" y="1430"/>
      <point x="694" y="1430" type="curve" smooth="yes"/>
      <point x="576" y="1430"/>
      <point x="466" y="1408"/>
      <point x="370" y="1372" type="curve"/>
      <point x="300" y="1050" type="line"/>
      <point x="392" y="1114"/>
      <point x="512" y="1162"/>
      <point x="654" y="1162" type="curve" smooth="yes"/>
      <point x="794" y="1162"/>
      <point x="876" y="1108"/>
      <point x="876" y="1022" type="curve" smooth="yes"/>
      <point x="876" y="926"/>
      <point x="802" y="890"/>
      <point x="686" y="850" type="curve" smooth="yes"/>
      <point x="562" y="806" type="line" smooth="yes"/>
      <point x="326" y="722"/>
      <point x="128" y="620"/>
      <point x="128" y="360" type="curve" smooth="yes"/>
      <point x="128" y="96"/>
      <point x="372" y="-32"/>
    </contour>
  </outline>
</glyph>
<glyph name="_part.hryvniaBase" format="2">
  <advance width="1217"/>
  <guideline x="494" y="219" angle="78.0016"/>
  <guideline x="151" y="490" angle="78.0016"/>
  <anchor x="760" y="1400" name="top"/>
  <outline>
    <contour>
      <point x="604" y="-32" type="curve" smooth="yes"/>
      <point x="740" y="-32"/>
      <point x="870" y="-8"/>
      <point x="984" y="36" type="curve"/>
      <point x="1070" y="438" type="line"/>
      <point x="968" y="354"/>
      <point x="780" y="302"/>
      <point x="636" y="302" type="curve" smooth="yes"/>
      <point x="508" y="302"/>
      <point x="446" y="330"/>
      <point x="446" y="394" type="curve" smooth="yes"/>
      <point x="446" y="456"/>
      <point x="508" y="496"/>
      <point x="596" y="522" type="curve" smooth="yes"/>
      <point x="734" y="564" type="line" smooth="yes"/>
      <point x="982" y="640"/>
      <point x="1186" y="786"/>
      <point x="1186" y="1026" type="curve" smooth="yes"/>
      <point x="1186" y="1288"/>
      <point x="932" y="1430"/>
      <point x="650" y="1430" type="curve" smooth="yes"/>
      <point x="524" y="1430"/>
      <point x="408" y="1410"/>
      <point x="308" y="1376" type="curve"/>
      <point x="224" y="980" type="line"/>
      <point x="324" y="1050"/>
      <point x="448" y="1100"/>
      <point x="596" y="1100" type="curve" smooth="yes"/>
      <point x="730" y="1100"/>
      <point x="790" y="1058"/>
      <point x="790" y="1000" type="curve" smooth="yes"/>
      <point x="790" y="944"/>
      <point x="762" y="916"/>
      <point x="640" y="878" type="curve" smooth="yes"/>
      <point x="512" y="838" type="line" smooth="yes"/>
      <point x="250" y="756"/>
      <point x="50" y="648"/>
      <point x="50" y="384" type="curve" smooth="yes"/>
      <point x="50" y="104"/>
      <point x="316" y="-32"/>
    </contour>
  </outline>
</glyph>
<glyph name="_part.kaverticalstroke-cy" format="2">
  <advance width="1406"/>
  <anchor x="651" y="526" name="center"/>
  <outline>
    <contour>
      <point x="815" y="0" type="line"/>
      <point x="1285" y="0" type="line"/>
      <point x="1049" y="560" type="line"/>
      <point x="1487" y="1040" type="line"/>
      <point x="1067" y="1040" type="line"/>
      <point x="619" y="538" type="line"/>
    </contour>
    <contour>
      <point x="15" y="0" type="line"/>
      <point x="415" y="0" type="line"/>
      <point x="493" y="370" type="line"/>
      <point x="813" y="370" type="line"/>
      <point x="879" y="682" type="line"/>
      <point x="559" y="682" type="line"/>
      <point x="649" y="1100" type="line"/>
      <point x="211" y="914" type="line"/>
    </contour>
  </outline>
</glyph>
<glyph name="_part.kip" format="2">
  <advance width="1296"/>
  <guideline x="199" y="626" angle="0"/>
  <outline>
    <contour>
      <point x="758" y="0" type="line"/>
      <point x="1150" y="0" type="line"/>
      <point x="1012" y="668" type="line"/>
      <point x="1440" y="1400" type="line"/>
      <point x="1034" y="1400" type="line"/>
      <point x="638" y="694" type="line"/>
    </contour>
    <contour>
      <point x="90" y="0" type="line"/>
      <point x="450" y="0" type="line"/>
      <point x="746" y="1400" type="line"/>
      <point x="386" y="1400" type="line"/>
    </contour>
  </outline>
</glyph>
<glyph name="_part.ogonek" format="2">
  <advance width="2"/>
  <anchor x="-421" y="0" name="_ogonek"/>
  <outline>
    <contour>
      <point x="-713" y="-449" type="curve" smooth="yes"/>
      <point x="-646" y="-449"/>
      <point x="-585" y="-437"/>
      <point x="-527" y="-407" type="curve"/>
      <point x="-478" y="-174" type="line"/>
      <point x="-517" y="-213"/>
      <point x="-568" y="-229"/>
      <point x="-619" y="-229" type="curve" smooth="yes"/>
      <point x="-662" y="-229"/>
      <point x="-696" y="-205"/>
      <point x="-696" y="-158" type="curve" smooth="yes"/>
      <point x="-696" y="-32"/>
      <point x="-548" y="-7"/>
      <point x="-421" y="0" type="curve"/>
      <point x="-421" y="115" type="line"/>
      <point x="-684" y="98"/>
      <point x="-932" y="-17"/>
      <point x="-932" y="-235" type="curve" smooth="yes"/>
      <point x="-932" y="-365"/>
      <point x="-835" y="-449"/>
    </contour>
  </outline>
</glyph>
<glyph name="_part.tse-cy" format="2">
  <advance width="1332"/>
  <anchor x="555" y="0" name="bottom"/>
  <anchor x="1095" y="0" name="descender"/>
  <outline>
    <contour>
      <point x="15" y="0" type="line"/>
      <point x="1093" y="0" type="line"/>
      <point x="1329" y="1100" type="line"/>
      <point x="891" y="914" type="line"/>
      <point x="761" y="312" type="line"/>
      <point x="481" y="312" type="line"/>
      <point x="649" y="1100" type="line"/>
      <point x="211" y="914" type="line"/>
    </contour>
  </outline>
</glyph>
<glyph name="_part.verticalstroke.case" format="2">
  <advance width="1200"/>
  <anchor x="510" y="780" name="_center"/>
  <outline>
    <contour>
      <point x="326" y="380" type="line"/>
      <point x="526" y="380" type="line"/>
      <point x="694" y="1180" type="line"/>
      <point x="494" y="1180" type="line"/>
    </contour>
  </outline>
</glyph>
<glyph name="_part.verticalstroke" format="2">
  <advance width="1200"/>
  <anchor x="502" y="780" name="_center"/>
  <outline>
    <contour>
      <point x="350" y="450" type="line"/>
      <point x="514" y="450" type="line"/>
      <point x="670" y="1186" type="line"/>
      <point x="490" y="1110" type="line"/>
    </contour>
  </outline>
</glyph>
<glyph name="brevecomb.case" format="2">
  <anchor x="657" y="1400" name="_top"/>
  <anchor x="743" y="1814" name="top"/>
  <outline>
    <contour>
      <point x="729" y="1498" type="curve" smooth="yes"/>
      <point x="985" y="1498"/>
      <point x="1185" y="1638"/>
      <point x="1203" y="1862" type="curve"/>
      <point x="867" y="1862" type="line"/>
      <point x="863" y="1800"/>
      <point x="813" y="1756"/>
      <point x="739" y="1756" type="curve" smooth="yes"/>
      <point x="659" y="1756"/>
      <point x="619" y="1810"/>
      <point x="633" y="1862" type="curve"/>
      <point x="295" y="1862" type="line"/>
      <point x="269" y="1648"/>
      <point x="447" y="1498"/>
    </contour>
  </outline>
</glyph>
<glyph name="breveinvertedcomb.narrow" format="2">
  <anchor x="519" y="1040" name="_top"/>
  <outline>
    <contour>
      <point x="151" y="1170" type="curve"/>
      <point x="469" y="1170" type="line"/>
      <point x="475" y="1252"/>
      <point x="513" y="1304"/>
      <point x="561" y="1304" type="curve" smooth="yes"/>
      <point x="623" y="1304"/>
      <point x="637" y="1248"/>
      <point x="627" y="1170" type="curve"/>
      <point x="947" y="1170" type="line"/>
      <point x="977" y="1392"/>
      <point x="831" y="1554"/>
      <point x="581" y="1554" type="curve" smooth="yes"/>
      <point x="347" y="1554"/>
      <point x="177" y="1404"/>
    </contour>
  </outline>
</glyph>
<glyph name="caroncomb.alt" format="2">
  <anchor x="136" y="1440" name="_caron"/>
  <outline>
    <contour>
      <point x="134" y="1092" type="line"/>
      <point x="402" y="1092" type="line"/>
      <point x="558" y="1440" type="line"/>
      <point x="206" y="1440" type="line"/>
    </contour>
  </outline>
</glyph>
<glyph name="dieresiscomb.case" format="2">
  <anchor x="-834" y="1400" name="_top"/>
  <anchor x="-746" y="1834" name="top"/>
  <outline>
    <contour>
      <point x="-1070" y="1510" type="curve" smooth="yes"/>
      <point x="-954" y="1510"/>
      <point x="-832" y="1594"/>
      <point x="-832" y="1736" type="curve" smooth="yes"/>
      <point x="-832" y="1854"/>
      <point x="-928" y="1926"/>
      <point x="-1036" y="1926" type="curve" smooth="yes"/>
      <point x="-1154" y="1926"/>
      <point x="-1274" y="1840"/>
      <point x="-1274" y="1698" type="curve" smooth="yes"/>
      <point x="-1274" y="1580"/>
      <point x="-1178" y="1510"/>
    </contour>
    <contour>
      <point x="-502" y="1510" type="curve" smooth="yes"/>
      <point x="-384" y="1510"/>
      <point x="-264" y="1594"/>
      <point x="-264" y="1736" type="curve" smooth="yes"/>
      <point x="-264" y="1854"/>
      <point x="-360" y="1926"/>
      <point x="-468" y="1926" type="curve" smooth="yes"/>
      <point x="-586" y="1926"/>
      <point x="-706" y="1840"/>
      <point x="-706" y="1698" type="curve" smooth="yes"/>
      <point x="-706" y="1580"/>
      <point x="-610" y="1510"/>
    </contour>
  </outline>
</glyph>
<glyph name="f.calt" format="2">
  <advance width="878"/>
  <outline>
    <contour>
      <point x="92" y="0" type="line"/>
      <point x="492" y="0" type="line"/>
      <point x="647" y="728" type="line"/>
      <point x="887" y="728" type="line"/>
      <point x="955" y="1040" type="line"/>
      <point x="713" y="1040" type="line"/>
      <point x="720" y="1074" type="line" smooth="yes"/>
      <point x="730" y="1123"/>
      <point x="757" y="1146"/>
      <point x="805" y="1146" type="curve" smooth="yes"/>
      <point x="826" y="1146"/>
      <point x="843" y="1144"/>
      <point x="861" y="1138" type="curve"/>
      <point x="929" y="1455" type="line"/>
      <point x="886" y="1466"/>
      <point x="839" y="1470"/>
      <point x="756" y="1470" type="curve" smooth="yes"/>
      <point x="536" y="1470"/>
      <point x="377" y="1346"/>
      <point x="326" y="1106" type="curve" smooth="yes"/>
    </contour>
    <contour>
      <point x="41" y="728" type="line"/>
      <point x="285" y="728" type="line"/>
      <point x="353" y="1060" type="line"/>
      <point x="57" y="808" type="line"/>
    </contour>
  </outline>
</glyph>
<glyph name="ge-cy.loclBGR" format="2">
  <advance width="1059"/>
  <anchor x="397" y="0" name="bottom"/>
  <anchor x="663" y="1040" name="top"/>
  <outline>
    <contour>
      <point x="411" y="-28" type="curve" smooth="yes"/>
      <point x="569" y="-28"/>
      <point x="723" y="4"/>
      <point x="855" y="66" type="curve"/>
      <point x="927" y="404" type="line"/>
      <point x="775" y="314"/>
      <point x="627" y="264"/>
      <point x="501" y="264" type="curve" smooth="yes"/>
      <point x="431" y="264"/>
      <point x="393" y="280"/>
      <point x="393" y="310" type="curve" smooth="yes"/>
      <point x="393" y="346"/>
      <point x="427" y="362"/>
      <point x="593" y="414" type="curve" smooth="yes"/>
      <point x="917" y="516"/>
      <point x="1027" y="640"/>
      <point x="1027" y="806" type="curve" smooth="yes"/>
      <point x="1027" y="982"/>
      <point x="883" y="1080"/>
      <point x="647" y="1080" type="curve" smooth="yes"/>
      <point x="517" y="1080"/>
      <point x="371" y="1046"/>
      <point x="247" y="992" type="curve"/>
      <point x="175" y="658" type="line"/>
      <point x="303" y="738"/>
      <point x="445" y="788"/>
      <point x="553" y="788" type="curve" smooth="yes"/>
      <point x="613" y="788"/>
      <point x="655" y="768"/>
      <point x="655" y="738" type="curve" smooth="yes"/>
      <point x="655" y="704"/>
      <point x="625" y="690"/>
      <point x="459" y="646" type="curve" smooth="yes"/>
      <point x="145" y="562"/>
      <point x="21" y="444"/>
      <point x="21" y="266" type="curve" smooth="yes"/>
      <point x="21" y="78"/>
      <point x="169" y="-28"/>
    </contour>
  </outline>
</glyph>
<glyph name="hardsign-cy.loclBGR" format="2">
  <advance width="1383"/>
  <outline>
    <contour>
      <point x="781" y="-20" type="curve" smooth="yes"/>
      <point x="1065" y="-20"/>
      <point x="1305" y="168"/>
      <point x="1305" y="414" type="curve" smooth="yes"/>
      <point x="1305" y="628"/>
      <point x="1131" y="776"/>
      <point x="875" y="776" type="curve" smooth="yes"/>
      <point x="779" y="776"/>
      <point x="687" y="760"/>
      <point x="559" y="674" type="curve"/>
      <point x="715" y="590" type="line"/>
      <point x="811" y="1040" type="line"/>
      <point x="411" y="1040" type="line"/>
      <point x="297" y="500" type="line" smooth="yes"/>
      <point x="221" y="144"/>
      <point x="461" y="-20"/>
    </contour>
    <contour>
      <point x="787" y="268" type="curve" smooth="yes"/>
      <point x="715" y="268"/>
      <point x="653" y="312"/>
      <point x="653" y="374" type="curve" smooth="yes"/>
      <point x="653" y="446"/>
      <point x="717" y="486"/>
      <point x="797" y="486" type="curve" smooth="yes"/>
      <point x="875" y="486"/>
      <point x="937" y="446"/>
      <point x="937" y="386" type="curve" smooth="yes"/>
      <point x="937" y="304"/>
      <point x="869" y="268"/>
    </contour>
    <contour>
      <point x="29" y="690" type="line"/>
      <point x="357" y="690" type="line"/>
      <point x="811" y="1040" type="line"/>
      <point x="183" y="1040" type="line"/>
    </contour>
  </outline>
</glyph>
<glyph name="hookabovecomb.case" format="2">
  <anchor x="475" y="1400" name="_top"/>
  <outline>
    <contour>
      <point x="379" y="1508" type="curve"/>
      <point x="627" y="1508" type="line"/>
      <point x="613" y="1546"/>
      <point x="641" y="1560"/>
      <point x="705" y="1586" type="curve" smooth="yes"/>
      <point x="793" y="1622"/>
      <point x="855" y="1674"/>
      <point x="855" y="1764" type="curve" smooth="yes"/>
      <point x="855" y="1872"/>
      <point x="739" y="1940"/>
      <point x="545" y="1940" type="curve" smooth="yes"/>
      <point x="463" y="1940"/>
      <point x="371" y="1926"/>
      <point x="303" y="1900" type="curve"/>
      <point x="263" y="1702" type="line"/>
      <point x="317" y="1716"/>
      <point x="371" y="1726"/>
      <point x="437" y="1726" type="curve" smooth="yes"/>
      <point x="491" y="1726"/>
      <point x="527" y="1720"/>
      <point x="527" y="1708" type="curve" smooth="yes"/>
      <point x="527" y="1686"/>
      <point x="503" y="1682"/>
      <point x="461" y="1672" type="curve" smooth="yes"/>
      <point x="363" y="1650"/>
      <point x="337" y="1592"/>
    </contour>
  </outline>
</glyph>
<glyph name="horncomb.alt" format="2">
  <anchor x="-211" y="1040" name="_horn"/>
  <outline>
    <contour>
      <point x="-167" y="720" type="curve" smooth="yes"/>
      <point x="17" y="720"/>
      <point x="151" y="862"/>
      <point x="151" y="1038" type="curve" smooth="yes"/>
      <point x="152" y="1098"/>
      <point x="137" y="1162"/>
      <point x="106" y="1222" type="curve"/>
      <point x="-170" y="1222" type="line"/>
      <point x="-140" y="1157"/>
      <point x="-129" y="1095"/>
      <point x="-131" y="1046" type="curve" smooth="yes"/>
      <point x="-131" y="982"/>
      <point x="-165" y="944"/>
      <point x="-219" y="944" type="curve" smooth="yes"/>
      <point x="-243" y="944"/>
      <point x="-269" y="952"/>
      <point x="-299" y="966" type="curve"/>
      <point x="-345" y="756" type="line"/>
      <point x="-285" y="736"/>
      <point x="-227" y="720"/>
    </contour>
  </outline>
</glyph>
<glyph name="horncomb.alt_case" format="2">
  <anchor x="-195" y="1400" name="_horn"/>
  <outline>
    <contour>
      <point x="-129" y="1036" type="curve" smooth="yes"/>
      <point x="73" y="1036"/>
      <point x="221" y="1186"/>
      <point x="221" y="1374" type="curve" smooth="yes"/>
      <point x="220" y="1437"/>
      <point x="206" y="1505"/>
      <point x="174" y="1568" type="curve"/>
      <point x="-115" y="1568" type="line"/>
      <point x="-84" y="1496"/>
      <point x="-73" y="1437"/>
      <point x="-75" y="1386" type="curve" smooth="yes"/>
      <point x="-75" y="1316"/>
      <point x="-115" y="1270"/>
      <point x="-181" y="1270" type="curve" smooth="yes"/>
      <point x="-231" y="1270"/>
      <point x="-293" y="1300"/>
      <point x="-371" y="1336" type="curve"/>
      <point x="-417" y="1110" type="line"/>
      <point x="-319" y="1070"/>
      <point x="-225" y="1036"/>
    </contour>
  </outline>
</glyph>
<glyph name="jdotless.calt" format="2">
  <advance width="658"/>
  <anchor x="438" y="1040" name="top"/>
  <outline>
    <contour>
      <point x="-30" y="-450" type="curve" smooth="yes"/>
      <point x="190" y="-450"/>
      <point x="349" y="-326"/>
      <point x="400" y="-86" type="curve" smooth="yes"/>
      <point x="652" y="1100" type="line"/>
      <point x="212" y="914" type="line"/>
      <point x="6" y="-54" type="line" smooth="yes"/>
      <point x="-4" y="-103"/>
      <point x="-31" y="-126"/>
      <point x="-79" y="-126" type="curve" smooth="yes"/>
      <point x="-100" y="-126"/>
      <point x="-117" y="-124"/>
      <point x="-135" y="-118" type="curve"/>
      <point x="-203" y="-435" type="line"/>
      <point x="-160" y="-446"/>
      <point x="-113" y="-450"/>
    </contour>
  </outline>
</glyph>
<glyph name="macroncomb.wide" format="2">
  <anchor x="-540" y="1040" name="_top"/>
  <outline>
    <contour>
      <point x="-1000" y="1230" type="line"/>
      <point x="26" y="1230" type="line"/>
      <point x="56" y="1462" type="line"/>
      <point x="-970" y="1462" type="line"/>
    </contour>
  </outline>
</glyph>
<glyph name="nine.ss02" format="2">
  <advance width="1258"/>
  <outline>
    <contour>
      <point x="165" y="0" type="line"/>
      <point x="593" y="0" type="line"/>
      <point x="953" y="400" type="line" smooth="yes"/>
      <point x="1103" y="568"/>
      <point x="1275" y="754"/>
      <point x="1275" y="982" type="curve" smooth="yes"/>
      <point x="1275" y="1232"/>
      <point x="1077" y="1430"/>
      <point x="773" y="1430" type="curve" smooth="yes"/>
      <point x="453" y="1430"/>
      <point x="169" y="1200"/>
      <point x="169" y="888" type="curve" smooth="yes"/>
      <point x="169" y="642"/>
      <point x="355" y="484"/>
      <point x="625" y="484" type="curve" smooth="yes"/>
      <point x="667" y="484"/>
      <point x="711" y="488"/>
      <point x="757" y="496" type="curve"/>
      <point x="731" y="616" type="line"/>
    </contour>
    <contour>
      <point x="707" y="756" type="curve" smooth="yes"/>
      <point x="611" y="756"/>
      <point x="543" y="808"/>
      <point x="543" y="910" type="curve" smooth="yes"/>
      <point x="543" y="1044"/>
      <point x="641" y="1118"/>
      <point x="741" y="1118" type="curve" smooth="yes"/>
      <point x="833" y="1118"/>
      <point x="905" y="1064"/>
      <point x="905" y="962" type="curve" smooth="yes"/>
      <point x="905" y="846"/>
      <point x="821" y="756"/>
    </contour>
  </outline>
</glyph>
<glyph name="one.dnom" format="2">
  <advance width="674"/>
  <outline>
    <contour>
      <point x="204" y="0" type="line"/>
      <point x="442" y="0" type="line"/>
      <point x="640" y="930" type="line"/>
      <point x="622" y="930" type="line"/>
      <point x="178" y="794" type="line"/>
      <point x="128" y="558" type="line"/>
      <point x="338" y="618" type="line"/>
    </contour>
  </outline>
</glyph>
<glyph name="one.numr" format="2">
  <advance width="674"/>
  <outline>
    <contour>
      <point x="308" y="490" type="line"/>
      <point x="546" y="490" type="line"/>
      <point x="744" y="1420" type="line"/>
      <point x="726" y="1420" type="line"/>
      <point x="282" y="1284" type="line"/>
      <point x="232" y="1048" type="line"/>
      <point x="442" y="1108" type="line"/>
    </contour>
  </outline>
</glyph>
<glyph name="one.tf" format="2">
  <advance width="1296"/>
  <outline>
    <contour>
      <point x="24" y="0" type="line"/>
      <point x="1128" y="0" type="line"/>
      <point x="1204" y="358" type="line"/>
      <point x="858" y="358" type="line"/>
      <point x="1086" y="1430" type="line"/>
      <point x="1058" y="1430" type="line"/>
      <point x="388" y="1220" type="line"/>
      <point x="310" y="858" type="line"/>
      <point x="618" y="952" type="line"/>
      <point x="490" y="358" type="line"/>
      <point x="100" y="358" type="line"/>
    </contour>
  </outline>
</glyph>
<glyph name="one.tnum" format="2">
  <advance width="1296"/>
  <guideline x="182" y="429" angle="77.8394"/>
  <outline>
    <contour>
      <point x="24" y="0" type="line"/>
      <point x="1128" y="0" type="line"/>
      <point x="1204" y="358" type="line"/>
      <point x="858" y="358" type="line"/>
      <point x="1086" y="1430" type="line"/>
      <point x="1058" y="1430" type="line"/>
      <point x="388" y="1220" type="line"/>
      <point x="310" y="858" type="line"/>
      <point x="618" y="952" type="line"/>
      <point x="490" y="358" type="line"/>
      <point x="100" y="358" type="line"/>
    </contour>
  </outline>
</glyph>
<glyph name="ordfeminine.ss01" format="2">
  <advance width="944"/>
  <guideline x="211" y="450" angle="0"/>
  <anchor x="516" y="722" name="bottom"/>
  <anchor x="884" y="722" name="ogonek"/>
  <anchor x="624" y="1398" name="top"/>
  <outline>
    <contour>
      <point x="480" y="702" type="curve" smooth="yes"/>
      <point x="594" y="702"/>
      <point x="680" y="754"/>
      <point x="726" y="840" type="curve"/>
      <point x="702" y="906" type="line"/>
      <point x="664" y="722" type="line"/>
      <point x="884" y="722" type="line"/>
      <point x="1032" y="1424" type="line"/>
      <point x="746" y="1304" type="line"/>
      <point x="728" y="1214" type="line"/>
      <point x="812" y="1256" type="line"/>
      <point x="794" y="1354"/>
      <point x="684" y="1418"/>
      <point x="552" y="1418" type="curve" smooth="yes"/>
      <point x="326" y="1418"/>
      <point x="172" y="1226"/>
      <point x="172" y="1006" type="curve" smooth="yes"/>
      <point x="172" y="818"/>
      <point x="300" y="702"/>
    </contour>
    <contour>
      <point x="550" y="924" type="curve" smooth="yes"/>
      <point x="480" y="924"/>
      <point x="426" y="968"/>
      <point x="426" y="1040" type="curve" smooth="yes"/>
      <point x="426" y="1138"/>
      <point x="502" y="1196"/>
      <point x="578" y="1196" type="curve" smooth="yes"/>
      <point x="648" y="1196"/>
      <point x="700" y="1150"/>
      <point x="700" y="1078" type="curve" smooth="yes"/>
      <point x="700" y="982"/>
      <point x="628" y="924"/>
    </contour>
  </outline>
</glyph>
<glyph name="ringcomb.case" format="2">
  <anchor x="542" y="1400" name="_top"/>
  <anchor x="682" y="2056" name="top"/>
  <outline>
    <contour>
      <point x="596" y="1476" type="curve" smooth="yes"/>
      <point x="792" y="1476"/>
      <point x="970" y="1624"/>
      <point x="970" y="1824" type="curve" smooth="yes"/>
      <point x="970" y="1988"/>
      <point x="840" y="2112"/>
      <point x="656" y="2112" type="curve" smooth="yes"/>
      <point x="456" y="2112"/>
      <point x="282" y="1962"/>
      <point x="282" y="1762" type="curve" smooth="yes"/>
      <point x="282" y="1596"/>
      <point x="412" y="1476"/>
    </contour>
    <contour>
      <point x="612" y="1686" type="curve" smooth="yes"/>
      <point x="552" y="1686"/>
      <point x="516" y="1724"/>
      <point x="516" y="1778" type="curve" smooth="yes"/>
      <point x="516" y="1852"/>
      <point x="570" y="1902"/>
      <point x="640" y="1902" type="curve" smooth="yes"/>
      <point x="700" y="1902"/>
      <point x="736" y="1864"/>
      <point x="736" y="1810" type="curve" smooth="yes"/>
      <point x="736" y="1736"/>
      <point x="684" y="1686"/>
    </contour>
  </outline>
</glyph>
<glyph name="sha-cy.loclBGR" format="2">
  <advance width="2001"/>
  <anchor x="1764" y="0" name="descender"/>
  <anchor x="1106" y="1040" name="top"/>
  <outline>
    <contour>
      <point x="398" y="-30" type="curve" smooth="yes"/>
      <point x="558" y="-30"/>
      <point x="708" y="36"/>
      <point x="788" y="170" type="curve"/>
      <point x="804" y="50"/>
      <point x="910" y="-30"/>
      <point x="1056" y="-30" type="curve" smooth="yes"/>
      <point x="1188" y="-30"/>
      <point x="1338" y="44"/>
      <point x="1402" y="178" type="curve"/>
      <point x="1364" y="0" type="line"/>
      <point x="1764" y="0" type="line"/>
      <point x="1998" y="1100" type="line"/>
      <point x="1560" y="914" type="line"/>
      <point x="1462" y="454" type="line" smooth="yes"/>
      <point x="1446" y="378"/>
      <point x="1374" y="330"/>
      <point x="1298" y="330" type="curve" smooth="yes"/>
      <point x="1204" y="330"/>
      <point x="1168" y="384"/>
      <point x="1190" y="492" type="curve" smooth="yes"/>
      <point x="1318" y="1100" type="line"/>
      <point x="880" y="914" type="line"/>
      <point x="782" y="454" type="line" smooth="yes"/>
      <point x="766" y="378"/>
      <point x="694" y="330"/>
      <point x="618" y="330" type="curve" smooth="yes"/>
      <point x="524" y="330"/>
      <point x="488" y="384"/>
      <point x="510" y="492" type="curve" smooth="yes"/>
      <point x="638" y="1100" type="line"/>
      <point x="200" y="914" type="line"/>
      <point x="86" y="378" type="line" smooth="yes"/>
      <point x="30" y="114"/>
      <point x="158" y="-30"/>
    </contour>
  </outline>
</glyph>
<glyph name="softsign-cy.loclBGR" format="2">
  <advance width="1194"/>
  <guideline x="-103" y="-82" angle="0"/>
  <outline>
    <contour>
      <point x="589" y="-20" type="curve" smooth="yes"/>
      <point x="873" y="-20"/>
      <point x="1113" y="168"/>
      <point x="1113" y="414" type="curve" smooth="yes"/>
      <point x="1113" y="628"/>
      <point x="939" y="776"/>
      <point x="683" y="776" type="curve" smooth="yes"/>
      <point x="587" y="776"/>
      <point x="495" y="760"/>
      <point x="367" y="674" type="curve"/>
      <point x="523" y="590" type="line"/>
      <point x="631" y="1100" type="line"/>
      <point x="193" y="914" type="line"/>
      <point x="105" y="500" type="line" smooth="yes"/>
      <point x="29" y="142"/>
      <point x="269" y="-20"/>
    </contour>
    <contour>
      <point x="595" y="268" type="curve" smooth="yes"/>
      <point x="523" y="268"/>
      <point x="461" y="312"/>
      <point x="461" y="374" type="curve" smooth="yes"/>
      <point x="461" y="446"/>
      <point x="525" y="486"/>
      <point x="605" y="486" type="curve" smooth="yes"/>
      <point x="683" y="486"/>
      <point x="745" y="446"/>
      <point x="745" y="386" type="curve" smooth="yes"/>
      <point x="745" y="304"/>
      <point x="677" y="268"/>
    </contour>
  </outline>
</glyph>
<glyph name="three.numr" format="2">
  <advance width="824"/>
  <outline>
    <contour>
      <point x="404" y="470" type="curve" smooth="yes"/>
      <point x="612" y="470"/>
      <point x="790" y="596"/>
      <point x="790" y="790" type="curve" smooth="yes"/>
      <point x="790" y="916"/>
      <point x="702" y="996"/>
      <point x="606" y="1020" type="curve"/>
      <point x="846" y="1210" type="line"/>
      <point x="884" y="1400" type="line"/>
      <point x="284" y="1400" type="line"/>
      <point x="190" y="1190" type="line"/>
      <point x="542" y="1190" type="line"/>
      <point x="296" y="1024" type="line"/>
      <point x="328" y="870" type="line"/>
      <point x="362" y="878"/>
      <point x="394" y="880"/>
      <point x="418" y="880" type="curve" smooth="yes"/>
      <point x="498" y="880"/>
      <point x="550" y="848"/>
      <point x="550" y="790" type="curve" smooth="yes"/>
      <point x="550" y="728"/>
      <point x="490" y="686"/>
      <point x="406" y="686" type="curve" smooth="yes"/>
      <point x="310" y="686"/>
      <point x="210" y="726"/>
      <point x="166" y="786" type="curve"/>
      <point x="117" y="553" type="line"/>
      <point x="182" y="504"/>
      <point x="292" y="470"/>
    </contour>
  </outline>
</glyph>
<glyph name="tildecomb.narrow" format="2">
  <anchor x="-674" y="1040" name="_top"/>
  <anchor x="-582" y="1464" name="top"/>
  <outline>
    <contour>
      <point x="-1037" y="1178" type="line"/>
      <point x="-971" y="1242"/>
      <point x="-897" y="1280"/>
      <point x="-829" y="1280" type="curve" smooth="yes"/>
      <point x="-721" y="1280"/>
      <point x="-598" y="1180"/>
      <point x="-468" y="1180" type="curve" smooth="yes"/>
      <point x="-385" y="1180"/>
      <point x="-314" y="1215"/>
      <point x="-249" y="1270" type="curve"/>
      <point x="-185" y="1536" type="line"/>
      <point x="-248" y="1474"/>
      <point x="-322" y="1434"/>
      <point x="-392" y="1434" type="curve" smooth="yes"/>
      <point x="-500" y="1434"/>
      <point x="-623" y="1534"/>
      <point x="-754" y="1534" type="curve" smooth="yes"/>
      <point x="-840" y="1534"/>
      <point x="-909" y="1499"/>
      <point x="-973" y="1445" type="curve"/>
    </contour>
  </outline>
</glyph>
<glyph name="ze-cy.loclBGR" format="2">
  <advance width="1062"/>
  <anchor x="263" y="-420" name="bottom"/>
  <anchor x="579" y="1040" name="top"/>
  <outline>
    <contour>
      <point x="335" y="-450" type="curve" smooth="yes"/>
      <point x="677" y="-450"/>
      <point x="931" y="-252"/>
      <point x="931" y="30" type="curve" smooth="yes"/>
      <point x="931" y="181"/>
      <point x="856" y="279"/>
      <point x="707" y="352" type="curve"/>
      <point x="879" y="405"/>
      <point x="1023" y="550"/>
      <point x="1023" y="718" type="curve" smooth="yes"/>
      <point x="1023" y="939"/>
      <point x="804" y="1080"/>
      <point x="523" y="1080" type="curve" smooth="yes"/>
      <point x="382" y="1080"/>
      <point x="264" y="1054"/>
      <point x="168" y="1012" type="curve"/>
      <point x="87" y="638" type="line"/>
      <point x="158" y="699"/>
      <point x="284" y="740"/>
      <point x="403" y="740" type="curve" smooth="yes"/>
      <point x="542" y="740"/>
      <point x="617" y="698"/>
      <point x="617" y="620" type="curve" smooth="yes"/>
      <point x="617" y="527"/>
      <point x="541" y="484"/>
      <point x="379" y="484" type="curve" smooth="yes"/>
      <point x="218" y="484" type="line"/>
      <point x="86" y="172" type="line"/>
      <point x="325" y="172" type="line" smooth="yes"/>
      <point x="474" y="172"/>
      <point x="544" y="134"/>
      <point x="544" y="48" type="curve" smooth="yes"/>
      <point x="544" y="-48"/>
      <point x="446" y="-112"/>
      <point x="309" y="-112" type="curve" smooth="yes"/>
      <point x="173" y="-112"/>
      <point x="30" y="-56"/>
      <point x="-55" y="30" type="curve"/>
      <point x="-130" y="-320" type="line"/>
      <point x="-6" y="-401"/>
      <point x="163" y="-450"/>
    </contour>
  </outline>
</glyph>
